<?xml version="1.0" standalone="no"?>
<!DOCTYPE svg PUBLIC "-//W3C//DTD SVG 20010904//EN"
 "http://www.w3.org/TR/2001/REC-SVG-20010904/DTD/svg10.dtd">
<svg version="1.0" xmlns="http://www.w3.org/2000/svg"
 width="587.000000pt" height="587.000000pt" viewBox="0 0 587.000000 587.000000"
 preserveAspectRatio="xMidYMid meet">
<metadata>
Created by potrace 1.14, written by Peter Selinger 2001-2017
</metadata>
<g transform="translate(0.000000,587.000000) scale(0.100000,-0.100000)"
fill="#000000" stroke="none">
<path d="M2680 5640 c-6 -11 -7 -20 -2 -20 6 0 12 9 15 20 3 11 3 20 1 20 -2
0 -8 -9 -14 -20z"/>
<path d="M2714 5647 c-20 -11 -18 -24 6 -30 10 -3 18 -1 17 3 -1 4 1 7 4 7 3
-1 13 4 22 11 14 12 16 11 12 -9 -3 -13 -15 -32 -27 -44 l-22 -20 17 21 c21
25 22 41 3 24 -8 -6 -23 -10 -33 -8 -10 1 -24 -1 -31 -6 -11 -6 -11 -11 0 -24
12 -15 11 -16 -4 -4 -9 8 -15 19 -12 27 8 21 -12 27 -27 7 -13 -15 -12 -16 4
-3 18 14 22 5 8 -18 -5 -7 -14 -11 -20 -7 -6 4 -19 2 -30 -3 -14 -8 -21 -8
-24 2 -4 9 -6 8 -6 -2 -1 -10 -4 -11 -15 -2 -10 8 -16 9 -21 1 -4 -6 -3 -10 2
-9 20 3 27 -2 13 -11 -8 -5 -12 -12 -8 -15 3 -3 13 1 22 10 9 9 16 14 16 10 0
-3 8 -1 18 4 14 7 19 6 19 -4 0 -8 -4 -12 -8 -9 -5 3 -21 -2 -36 -9 -15 -8
-36 -13 -45 -12 -11 2 -18 -3 -19 -13 0 -11 -2 -12 -6 -5 -3 9 -10 10 -24 3
-10 -6 -19 -8 -19 -4 0 3 -8 0 -17 -7 -11 -10 -14 -10 -9 -1 4 7 2 12 -4 12
-6 0 -8 5 -4 13 5 7 1 7 -10 -2 -15 -13 -19 -13 -28 0 -8 11 -9 10 -4 -5 5
-14 2 -17 -10 -12 -15 6 -15 4 -3 -10 13 -16 12 -16 -11 -4 -21 10 -23 10 -12
-1 6 -7 12 -18 12 -23 0 -7 -3 -8 -8 -1 -18 25 -40 36 -48 24 -4 -7 -3 -9 3
-6 6 4 16 0 22 -7 10 -12 8 -14 -13 -12 -16 2 -23 -1 -19 -10 2 -7 12 -10 21
-7 14 4 15 3 2 -6 -11 -7 -20 -5 -34 7 -19 17 -19 17 -1 -10 19 -31 15 -36
-10 -11 -16 15 -17 15 -13 -4 3 -20 -1 -23 -24 -23 -9 0 -8 4 2 10 10 6 11 10
3 10 -22 0 -28 -4 -25 -17 2 -8 -3 -10 -14 -6 -13 5 -15 3 -9 -8 8 -12 6 -12
-8 0 -16 12 -17 12 -11 -5 5 -18 5 -18 -10 0 -16 20 -21 13 -17 -21 1 -7 -7
-17 -18 -23 -14 -7 -18 -16 -14 -28 6 -16 5 -16 -11 1 -17 17 -20 17 -37 1
-14 -13 -16 -21 -8 -35 5 -11 6 -19 1 -19 -5 0 -14 10 -20 23 -7 12 -11 15
-11 7 1 -8 1 -24 0 -35 -1 -16 -3 -17 -10 -5 -6 8 -7 18 -4 24 3 5 1 6 -5 2
-6 -3 -9 -15 -7 -25 3 -15 -1 -18 -18 -14 -21 4 -20 3 2 -10 23 -14 23 -14
-17 -11 -23 1 -42 -2 -42 -7 0 -6 10 -7 23 -3 21 6 21 6 4 -13 -9 -11 -14 -23
-10 -28 5 -4 3 -5 -3 -2 -13 8 -59 -29 -59 -46 0 -7 -6 -13 -12 -13 -30 -3
-33 -4 -32 -11 3 -19 -2 -23 -19 -14 -14 7 -19 6 -19 -4 0 -8 3 -12 7 -10 3 2
6 -4 6 -14 0 -19 -26 -18 -56 2 -8 5 -2 -3 15 -18 27 -25 27 -27 6 -20 -15 5
-21 4 -17 -3 6 -10 -31 -55 -48 -59 -4 -1 -11 -5 -14 -9 -4 -4 -2 -4 4 -1 7 4
14 1 17 -7 4 -10 -4 -12 -31 -10 -27 2 -32 1 -17 -5 11 -5 23 -7 28 -4 4 2 7
0 7 -5 0 -6 -7 -13 -16 -16 -8 -3 -12 -2 -9 4 3 5 -1 7 -9 4 -9 -3 -12 -12 -8
-22 5 -15 3 -15 -11 -4 -15 12 -15 11 -7 -20 13 -44 12 -48 -5 -18 l-14 25 -1
-27 c0 -18 -5 -28 -15 -28 -8 0 -15 -4 -15 -10 0 -5 7 -7 15 -4 8 4 15 1 15
-6 0 -6 -4 -9 -9 -5 -6 3 -20 -8 -32 -24 -12 -16 -30 -32 -41 -34 -14 -4 -17
-10 -12 -19 5 -7 10 -22 11 -33 2 -16 1 -17 -6 -5 -6 8 -13 11 -17 7 -4 -3 -1
-13 5 -21 9 -11 9 -16 0 -22 -7 -4 -10 -3 -6 2 3 5 0 17 -7 26 -11 14 -12 9
-10 -35 3 -36 1 -47 -6 -37 -9 14 -14 7 -11 -13 1 -5 -3 -6 -9 -2 -6 4 -3 16
7 33 13 20 14 24 3 15 -8 -6 -19 -11 -23 -11 -5 0 -12 -4 -15 -8 -4 -4 -1 -4
7 1 9 5 12 3 9 -6 -3 -8 -1 -23 5 -34 9 -18 9 -19 -8 -5 -17 14 -18 13 -13 -7
5 -20 4 -21 -14 -12 -15 8 -19 8 -14 0 4 -6 1 -11 -6 -11 -8 0 -9 -3 -3 -8 17
-12 17 -35 0 -28 -9 3 -14 2 -10 -3 3 -5 2 -11 -2 -14 -5 -2 -3 -2 4 -1 6 2
14 -3 16 -10 4 -9 -2 -11 -19 -8 -14 2 -24 0 -24 -7 0 -7 4 -10 8 -7 4 2 14 0
22 -5 12 -8 11 -9 -4 -7 -10 2 -21 -3 -23 -10 -3 -8 2 -10 14 -6 14 5 15 4 4
-4 -19 -14 -39 -5 -36 16 1 9 0 11 -2 4 -3 -7 -9 -9 -15 -6 -6 4 -8 2 -5 -4 4
-5 4 -17 1 -26 -5 -14 -9 -14 -22 -4 -13 12 -14 11 -2 -9 8 -12 18 -19 24 -16
5 3 6 1 2 -6 -6 -9 -11 -9 -22 0 -12 10 -15 10 -12 -2 2 -8 7 -17 13 -21 5 -4
6 -10 2 -14 -3 -4 -13 -1 -21 5 -12 10 -14 8 -12 -13 2 -14 9 -33 17 -43 9
-11 10 -14 2 -9 -8 4 -13 2 -13 -5 0 -6 -8 -9 -20 -6 -11 3 -23 0 -27 -5 -3
-7 -1 -8 5 -4 7 4 12 2 12 -4 0 -7 9 -9 23 -5 19 5 20 5 4 -5 -10 -7 -25 -9
-33 -6 -12 4 -14 1 -9 -14 7 -21 -13 -25 -27 -5 -5 6 -8 5 -9 -2 -3 -28 -4
-32 -12 -39 -4 -4 -7 -12 -7 -18 0 -6 4 -5 9 3 6 9 8 4 8 -17 -1 -20 -6 -28
-15 -24 -8 3 -10 7 -4 11 6 3 3 12 -6 21 -14 13 -15 12 -10 -2 4 -8 1 -21 -5
-28 -9 -10 -9 -11 0 -6 7 4 13 3 13 -2 0 -16 -13 -22 -26 -11 -11 9 -13 0 -5
-29 1 -1 11 2 23 8 21 10 21 9 -2 -9 -14 -11 -29 -21 -33 -21 -5 0 -6 -8 -2
-19 3 -12 0 -21 -10 -25 -9 -3 -14 -10 -11 -14 3 -5 -1 -9 -9 -9 -13 0 -13 3
0 17 13 14 13 17 0 17 -8 0 -12 -4 -9 -8 2 -4 0 -11 -6 -14 -7 -4 -7 -11 -2
-18 5 -7 9 -20 9 -29 0 -14 -3 -15 -14 -6 -7 6 -17 8 -20 4 -4 -4 -3 -10 3
-14 19 -13 9 -37 -15 -36 l-23 1 23 -19 24 -18 -27 10 c-15 5 -27 6 -27 2 3
-20 -3 -23 -18 -11 -16 13 -17 12 -4 -4 15 -19 16 -19 -19 -34 l-25 -11 27 2
c16 0 28 4 28 7 0 3 6 13 13 23 13 17 14 18 20 2 4 -10 3 -14 -3 -11 -5 3 -14
-4 -20 -15 -6 -11 -16 -17 -22 -14 -8 5 -9 1 -4 -11 6 -16 4 -16 -10 -4 -16
13 -16 12 -5 -10 8 -15 9 -21 2 -17 -6 4 -11 0 -11 -8 0 -9 -5 -16 -11 -16 -5
0 -7 6 -3 13 5 9 3 9 -7 -1 -9 -8 -10 -15 -4 -20 15 -11 14 -49 -1 -49 -10 0
-11 4 -3 13 7 8 6 14 -2 20 -7 4 -9 3 -6 -3 9 -15 -19 -36 -35 -27 -7 4 -3 -3
10 -15 17 -17 20 -26 13 -35 -6 -7 -7 -16 -3 -20 4 -4 0 -6 -8 -4 -8 1 -14 -3
-12 -10 1 -7 -3 -12 -10 -11 -24 3 -38 -1 -38 -11 0 -5 8 -7 18 -4 13 5 14 4
3 -4 -7 -5 -11 -15 -7 -21 5 -7 1 -9 -8 -5 -9 3 -16 14 -17 23 0 10 -2 12 -6
3 -3 -7 1 -19 7 -27 12 -15 3 -21 -23 -16 -5 1 -6 -3 -2 -9 3 -5 0 -10 -7 -10
-8 0 -6 -5 5 -11 9 -6 15 -15 11 -21 -4 -7 -9 -6 -14 2 -5 8 -9 7 -13 -5 -4
-9 -3 -13 3 -10 6 3 10 1 10 -6 0 -6 -8 -9 -18 -7 -11 3 -19 0 -19 -8 0 -7 4
-11 9 -8 4 3 5 -2 2 -10 -3 -9 -10 -16 -16 -16 -5 0 -6 5 -3 10 3 6 -1 10 -10
10 -12 0 -14 -4 -6 -19 8 -14 7 -20 -4 -24 -10 -4 -12 -1 -9 11 4 14 3 13 -6
-2 -7 -10 -8 -21 -4 -25 5 -3 10 -15 12 -26 2 -18 2 -18 -8 -2 -6 9 -16 17
-23 17 -8 0 -8 -3 2 -9 9 -6 10 -11 2 -15 -14 -9 -14 -26 0 -26 5 0 7 4 4 10
-4 6 1 7 11 3 15 -5 14 -7 -2 -17 -11 -6 -22 -11 -26 -11 -12 0 -10 -20 1 -20
6 0 16 -6 23 -14 11 -12 11 -13 -2 -6 -8 5 -26 10 -40 11 -14 1 -19 0 -12 -3
6 -2 12 -9 12 -14 0 -6 -4 -8 -9 -4 -5 3 -13 0 -17 -6 -4 -8 -3 -9 4 -5 19 11
14 -5 -5 -21 -16 -12 -15 -13 12 -8 28 5 28 5 6 -5 -13 -6 -35 -11 -48 -12
-12 -1 -23 -6 -23 -11 0 -5 7 -7 15 -3 8 3 15 1 15 -4 0 -6 -4 -10 -10 -10 -5
0 -6 -7 -3 -17 4 -11 3 -14 -5 -9 -7 4 -12 2 -12 -4 0 -6 -4 -9 -9 -5 -5 3
-13 0 -17 -6 -4 -8 -3 -9 4 -5 7 4 12 2 12 -4 0 -6 5 -8 12 -4 7 5 8 3 2 -7
-5 -8 -9 -18 -9 -24 0 -5 -12 -10 -26 -9 -17 0 -25 -4 -22 -12 2 -7 -5 -10
-21 -9 -15 2 -24 -1 -21 -5 3 -5 11 -7 18 -4 7 2 21 -2 32 -10 17 -12 16 -13
-19 -11 -35 3 -36 2 -19 -12 10 -8 12 -11 4 -7 -10 5 -13 3 -8 -9 3 -8 -1 -21
-9 -28 -10 -8 -11 -15 -4 -24 8 -9 4 -12 -14 -10 -24 3 -28 -8 -13 -32 4 -6 3
-14 -3 -18 -5 -3 -10 -1 -10 6 0 7 -3 10 -6 7 -3 -4 -1 -15 5 -27 8 -13 8 -22
1 -26 -6 -4 -7 -11 -4 -17 4 -5 -4 -3 -18 6 -24 16 -24 15 -22 -15 2 -26 0
-28 -14 -17 -13 11 -14 11 -7 -1 6 -11 4 -13 -8 -8 -9 3 -19 1 -23 -5 -4 -7
-3 -8 4 -4 18 11 14 0 -14 -45 -14 -23 -21 -38 -15 -35 6 4 11 4 12 -1 0 -4 2
-16 4 -26 2 -11 1 -16 -2 -13 -4 3 -14 -1 -23 -9 -14 -13 -17 -13 -17 0 0 8 5
11 10 8 6 -3 7 -1 3 5 -3 6 2 12 11 14 15 3 14 5 -5 10 -12 3 -20 2 -16 -3 3
-5 1 -9 -5 -9 -12 0 -11 -40 1 -57 6 -7 4 -14 -3 -19 -7 -4 -10 -3 -7 2 3 5 0
14 -6 20 -10 9 -16 7 -25 -8 -7 -11 -8 -17 -2 -14 5 4 12 2 16 -4 3 -5 2 -10
-4 -10 -5 0 -12 -13 -16 -30 -7 -33 -4 -46 8 -42 5 1 0 -10 -12 -26 -11 -16
-17 -33 -13 -37 4 -5 1 -5 -5 -1 -10 5 -9 13 3 32 10 15 12 24 5 24 -6 0 -11
-7 -11 -15 0 -8 -4 -15 -10 -15 -5 0 -10 5 -10 12 0 6 -3 9 -6 6 -3 -4 2 -21
11 -38 9 -18 12 -29 6 -26 -16 10 -31 -2 -25 -19 5 -11 11 -12 27 -4 21 10 21
10 3 -5 -13 -11 -23 -13 -31 -6 -9 8 -12 4 -11 -12 0 -13 6 -27 11 -31 6 -5 0
-6 -12 -2 -12 3 -24 1 -28 -5 -4 -6 -3 -9 2 -8 4 2 9 -2 10 -7 1 -6 -10 -9
-25 -8 -25 3 -25 2 -6 -6 32 -14 38 -30 11 -27 -21 3 -23 -1 -22 -31 1 -18 -2
-36 -6 -39 -12 -7 1 -33 14 -30 7 1 9 1 4 -1 -4 -3 -4 -10 -1 -15 5 -7 2 -8
-6 -3 -8 5 -11 3 -8 -6 3 -8 11 -13 17 -11 7 1 10 -2 6 -8 -3 -6 -11 -8 -16
-5 -5 4 -9 -1 -9 -10 0 -10 -5 -14 -12 -9 -10 6 -10 4 -1 -7 11 -11 8 -15 -15
-26 -15 -7 -19 -11 -10 -9 22 6 33 -11 19 -28 -7 -9 -6 -19 6 -37 14 -19 14
-21 2 -12 -10 8 -19 9 -25 3 -6 -6 -10 -2 -11 12 -2 19 0 20 8 8 9 -13 10 -13
6 1 -3 9 -1 21 4 26 6 6 4 10 -5 10 -8 0 -13 -4 -10 -8 2 -4 -1 -11 -7 -14 -5
-4 -8 -13 -5 -21 3 -8 0 -14 -7 -14 -6 0 0 -8 13 -17 14 -10 29 -17 33 -15 5
1 6 -2 2 -8 -5 -8 -11 -8 -19 -1 -16 13 -27 4 -19 -15 3 -8 1 -14 -5 -14 -11
0 -11 18 0 36 4 6 1 11 -7 11 -8 0 -12 -4 -9 -8 2 -4 0 -11 -6 -14 -8 -5 -8
-11 -1 -19 6 -7 8 -16 4 -20 -4 -4 0 -4 10 0 10 3 17 1 17 -5 0 -6 -7 -11 -15
-11 -9 0 -18 -7 -21 -15 -4 -8 -12 -15 -20 -15 -19 0 -18 16 1 24 16 6 21 36
5 36 -5 0 -6 -7 -3 -17 4 -10 2 -14 -5 -9 -9 6 -22 -16 -28 -51 -3 -16 52 11
58 29 3 8 7 6 11 -6 4 -9 3 -15 -2 -11 -5 3 -12 1 -16 -5 -3 -5 -1 -10 6 -10
20 0 1 -13 -24 -16 -12 -1 -24 -3 -28 -3 -3 -1 -5 -43 -5 -95 0 -52 4 -93 7
-90 4 2 11 0 14 -6 4 -6 1 -9 -7 -8 -10 2 -13 -13 -14 -57 0 -47 4 -63 18 -73
10 -7 16 -18 13 -23 -7 -10 8 -12 18 -2 4 3 -3 18 -15 32 -20 22 -20 23 -2 8
11 -9 23 -16 25 -15 2 2 3 1 2 -1 -2 -2 2 -10 9 -18 6 -8 7 -13 2 -11 -5 2 -9
-2 -9 -7 0 -5 4 -9 8 -7 5 1 6 -2 2 -8 -3 -6 -10 -8 -15 -5 -4 3 -10 -1 -13
-7 -2 -7 -8 -9 -13 -5 -5 4 -2 13 6 18 12 9 12 10 -3 5 -10 -3 -15 -2 -12 3 3
5 1 12 -5 16 -6 4 -8 11 -5 16 4 5 2 9 -3 9 -15 0 -7 -61 9 -71 8 -5 21 -6 31
-3 10 3 24 -6 39 -27 13 -18 18 -29 11 -25 -8 5 -11 0 -8 -16 3 -13 5 -25 5
-28 1 -3 6 2 11 10 5 8 10 11 10 5 -1 -13 -23 -42 -33 -43 -5 0 -12 -3 -15 -7
-4 -4 0 -5 8 -3 10 2 15 -4 14 -20 -2 -25 2 -27 20 -10 11 11 11 15 -2 24 -12
9 -12 13 -2 19 9 5 11 4 6 -3 -6 -11 6 -16 27 -13 4 0 7 -4 7 -9 0 -6 -4 -10
-10 -10 -5 0 -14 -10 -21 -21 -9 -17 -8 -24 6 -38 16 -15 17 -15 6 6 -13 26 1
39 26 23 15 -9 14 -10 -7 -4 -22 6 -23 5 -11 -10 11 -13 11 -20 3 -28 -7 -7
-12 -17 -12 -23 0 -5 5 -3 10 5 8 13 10 13 10 -2 0 -9 3 -18 8 -21 4 -2 2 -2
-5 -1 -16 4 -26 -13 -14 -21 6 -3 8 -13 5 -23 -4 -12 -3 -13 3 -4 7 10 13 8
27 -7 16 -18 16 -20 -6 -36 -13 -10 -16 -15 -8 -12 8 3 24 8 35 12 l20 8 -20
-17 c-17 -13 -17 -15 -2 -10 13 5 16 2 10 -12 -5 -13 -3 -15 7 -9 10 6 12 4 7
-9 -4 -10 -3 -15 3 -11 6 4 8 -6 6 -25 -3 -26 -1 -29 12 -18 13 11 15 10 9 -5
-4 -11 -3 -16 3 -12 5 3 17 2 26 -3 15 -8 15 -10 0 -15 -12 -5 -15 -3 -10 6 4
6 3 9 -1 4 -5 -4 -10 -18 -12 -30 -2 -12 0 -17 4 -12 5 6 13 11 20 12 15 3 25
-25 11 -33 -7 -4 -8 -3 -4 4 4 7 2 12 -4 12 -7 0 -10 -6 -8 -12 3 -7 10 -13
15 -13 13 0 28 -13 28 -23 0 -17 35 -54 47 -49 7 2 21 0 31 -5 15 -7 16 -12 6
-24 -9 -11 -7 -14 10 -14 13 0 21 -6 21 -17 0 -15 -2 -16 -10 -3 -7 12 -9 10
-7 -7 1 -21 2 -22 21 -5 18 16 19 16 13 -1 -4 -11 -3 -16 3 -12 6 4 20 3 31 0
17 -6 19 -9 8 -16 -8 -5 -18 -9 -24 -9 -5 0 -3 5 5 10 9 6 10 10 3 10 -17 0
-25 -17 -12 -26 7 -4 21 -8 33 -9 11 -1 25 -3 30 -4 4 0 6 -13 2 -28 -3 -16
-3 -22 0 -15 9 20 23 14 19 -8 -2 -12 0 -18 6 -15 5 4 7 10 4 15 -11 18 24 17
41 -1 14 -15 20 -17 32 -6 13 9 14 9 8 0 -6 -12 5 -18 27 -14 4 0 7 -6 7 -15
0 -8 4 -13 8 -10 5 3 24 -10 42 -29 18 -19 37 -32 42 -29 5 3 12 -3 15 -15 3
-12 9 -21 14 -21 5 0 6 7 3 15 -10 25 3 17 24 -16 15 -24 20 -27 25 -15 4 9 2
15 -5 13 -6 -1 -12 4 -14 11 -1 7 0 8 3 2 3 -7 10 -7 20 1 11 10 14 10 11 -2
-2 -9 4 -13 17 -11 16 2 17 1 5 -7 -8 -5 -18 -7 -22 -5 -4 3 -5 -3 -1 -12 4
-11 8 -13 11 -6 2 7 8 12 13 12 6 0 7 -4 4 -10 -3 -5 -2 -10 4 -10 5 0 8 -9 6
-20 -3 -17 -1 -19 16 -9 12 6 23 8 26 5 4 -3 12 -1 19 4 14 12 48 -15 39 -31
-4 -5 -1 -9 4 -9 6 0 11 5 11 11 0 8 6 7 17 -2 11 -10 14 -10 9 -2 -4 8 -2 13
4 13 6 0 8 5 4 12 -4 7 -3 8 4 4 6 -4 8 -14 5 -24 -5 -14 -3 -14 17 3 l23 20
-12 -23 -12 -23 28 18 c26 16 27 16 14 0 -8 -10 -11 -20 -7 -24 3 -3 6 -1 6 5
0 20 40 14 41 -5 0 -13 2 -14 6 -4 3 8 -2 20 -13 28 -10 7 -13 13 -6 13 6 0
18 -10 26 -22 9 -12 16 -17 16 -10 0 6 9 12 20 12 11 0 20 -4 20 -10 0 -5 -8
-7 -18 -3 -9 3 -14 3 -10 -2 4 -4 20 -8 35 -9 21 -1 27 -5 25 -20 -3 -15 -1
-16 12 -5 13 12 12 16 -10 32 -13 10 -24 24 -24 30 0 7 5 4 11 -6 6 -9 14 -15
20 -12 5 4 9 1 9 -6 0 -8 5 -7 18 2 15 13 16 12 3 -3 -12 -16 -10 -19 13 -28
18 -7 24 -14 20 -27 -5 -15 -4 -15 4 -3 6 8 8 18 5 23 -3 5 4 6 17 2 17 -6 21
-4 14 6 -12 20 -14 40 -3 33 5 -3 7 -9 4 -14 -9 -14 15 -23 29 -11 9 8 18 6
32 -5 18 -14 18 -15 -4 -4 -18 9 -23 8 -28 -5 -3 -8 -11 -12 -18 -8 -6 3 2 -8
18 -25 17 -18 31 -32 31 -32 1 0 1 11 0 25 -2 17 2 25 11 25 10 0 12 -5 8 -12
-5 -9 -2 -9 9 1 9 7 17 10 17 7 0 -4 10 -1 23 5 19 11 20 10 9 -3 -10 -13 -10
-17 3 -22 9 -3 13 -2 10 3 -3 5 -1 12 4 15 5 4 12 -2 16 -13 3 -10 14 -28 24
-40 16 -18 20 -19 25 -6 4 11 2 14 -6 9 -7 -5 -8 -3 -3 6 5 8 4 11 -3 7 -6 -5
-8 0 -5 13 3 11 10 23 15 26 6 4 7 -2 3 -16 -7 -21 -6 -21 19 -5 23 15 26 16
20 2 -3 -9 -9 -16 -12 -15 -23 2 -24 -5 -2 -18 23 -14 23 -14 3 -9 -13 4 -23
2 -23 -4 0 -7 395 -11 1293 -11 1146 0 1294 2 1294 15 0 8 -5 15 -11 15 -6 0
-3 5 7 11 9 6 15 14 13 18 -3 4 10 7 29 6 21 -2 35 2 35 9 0 6 5 4 10 -4 5 -8
10 -19 10 -25 0 -5 -5 -3 -10 5 -6 9 -10 10 -10 3 0 -6 6 -15 13 -20 12 -8 17
-9 38 -12 5 0 8 -5 5 -9 -3 -5 1 -9 9 -9 8 0 13 5 12 10 -1 5 4 12 11 14 8 3
10 -2 6 -14 -5 -15 -4 -15 5 -3 8 11 11 12 11 2 0 -10 3 -10 15 2 19 19 20 32
0 16 -12 -10 -16 -9 -20 2 -3 8 -12 15 -20 15 -8 0 -11 -5 -8 -11 3 -6 1 -6
-7 1 -7 6 -19 9 -26 6 -8 -3 -14 0 -14 6 0 6 7 12 15 12 32 3 36 4 45 19 6 8
10 10 10 3 0 -6 8 -10 18 -8 9 2 17 4 17 5 0 1 17 2 37 4 21 2 35 -1 32 -6 -3
-4 0 -8 6 -8 7 0 10 6 7 13 -3 8 -2 19 3 26 5 10 9 9 13 -4 5 -10 3 -14 -5 -9
-6 4 -8 3 -5 -4 4 -5 15 -9 25 -7 9 2 20 4 24 4 5 1 7 7 5 14 -1 6 5 13 13 13
32 3 34 5 20 14 -11 8 -8 9 14 6 32 -6 47 -15 25 -17 -8 -1 -18 -1 -22 0 -5 1
-6 -3 -2 -9 4 -7 12 -7 26 0 11 6 25 8 31 4 7 -4 8 -3 4 4 -4 7 -2 12 4 12 6
0 9 4 5 9 -3 5 0 13 6 17 8 5 9 3 4 -6 -6 -10 -4 -12 8 -7 17 7 41 -15 29 -28
-4 -5 -1 -5 6 0 10 5 11 10 3 18 -18 18 -13 31 6 16 11 -10 14 -10 9 -1 -4 6
-3 12 3 12 5 0 12 -8 14 -18 4 -15 5 -14 6 2 1 20 1 20 17 0 8 -10 12 -13 8
-5 -5 11 -3 13 10 8 10 -4 15 -3 11 3 -3 6 -1 10 5 10 6 0 8 4 5 10 -4 6 1 7
11 3 13 -5 15 -3 9 7 -6 9 -4 11 4 5 9 -5 10 -10 2 -18 -14 -14 -14 -27 -1
-27 5 0 9 3 7 8 -1 4 1 7 4 7 13 0 48 38 43 46 -3 5 5 19 17 31 12 13 19 18
15 11 -8 -14 3 -43 16 -43 7 0 7 4 0 13 -7 8 -6 18 4 31 8 12 14 15 14 7 0
-11 3 -11 15 -1 8 7 15 9 15 4 0 -5 5 -2 10 6 8 13 10 13 10 -2 0 -9 -5 -20
-10 -23 -6 -3 -10 -1 -10 5 0 6 -5 8 -11 5 -6 -4 -8 -9 -6 -11 8 -8 48 -13 43
-6 -2 4 5 19 16 32 15 18 18 20 14 6 -5 -13 -2 -17 8 -13 8 3 17 1 20 -6 3 -7
4 -3 1 9 -4 14 0 21 10 21 9 0 14 -6 11 -14 -3 -8 -2 -12 3 -8 5 3 12 -1 15
-7 3 -7 2 1 -1 17 -6 27 -5 29 10 16 9 -7 14 -18 10 -25 -4 -6 2 -4 13 4 29
22 30 24 12 17 -10 -3 -20 -2 -23 3 -4 6 -1 10 5 10 6 0 8 5 4 13 -5 7 0 6 11
-3 15 -12 17 -12 10 -1 -6 11 -4 13 8 8 9 -3 19 -1 23 5 4 7 3 8 -4 4 -7 -4
-12 -2 -12 4 0 8 9 10 24 6 16 -4 26 -1 30 9 3 9 12 12 23 8 10 -3 15 -3 12 1
-9 10 -50 16 -44 6 3 -5 1 -11 -4 -14 -5 -3 -11 3 -14 14 -3 11 -1 18 3 15 5
-3 11 -1 15 5 4 6 11 8 16 5 17 -11 50 -14 44 -4 -4 5 -10 7 -15 4 -5 -3 -12
0 -16 6 -4 8 -3 9 4 5 7 -4 12 -2 12 5 0 9 3 9 14 0 12 -10 13 -8 9 11 -5 22
-5 22 10 3 14 -18 15 -18 12 13 -1 17 1 30 5 27 4 -3 11 2 14 11 3 8 10 12 16
9 5 -3 10 -1 10 4 0 6 5 11 12 11 9 0 9 -3 0 -12 -7 -7 -12 -17 -12 -22 0 -6
7 0 16 12 8 12 12 27 8 34 -4 7 -3 8 4 4 7 -4 12 -2 12 4 0 6 4 9 10 5 5 -3 6
-13 3 -22 -5 -12 0 -10 15 5 26 26 29 41 5 21 -15 -13 -15 -12 -3 11 8 14 13
29 11 35 -1 5 1 6 6 2 4 -5 8 -13 8 -18 0 -5 5 -9 10 -8 6 0 9 7 7 16 -2 10 1
12 9 7 8 -4 10 -3 5 5 -4 6 -11 9 -16 6 -5 -3 -12 -1 -15 5 -4 6 -3 9 2 8 12
-4 73 26 73 35 0 5 -4 6 -9 2 -5 -3 -12 -1 -15 4 -4 5 5 8 18 7 17 -2 23 1 19
10 -3 8 -10 11 -17 8 -6 -3 -2 2 8 10 11 9 16 16 12 16 -5 0 -3 7 4 15 7 8 18
15 24 15 6 0 2 -7 -8 -15 -11 -8 -15 -15 -9 -15 7 0 15 5 18 10 4 6 10 8 15 5
5 -3 12 0 16 6 4 7 3 10 -2 7 -5 -3 -14 -1 -20 6 -8 9 -7 16 4 26 14 13 15 12
10 -2 -7 -17 15 -19 29 -3 4 4 2 5 -4 1 -7 -4 -13 -2 -13 3 0 6 7 11 15 11 8
0 15 4 15 10 0 5 -8 7 -17 4 -15 -5 -15 -4 -3 4 10 8 19 7 29 -1 12 -10 13 -9
7 2 -5 8 -4 16 4 21 9 6 9 13 1 28 -13 24 8 38 30 19 10 -10 11 -9 3 3 -14 20
-11 46 5 42 7 -1 10 2 6 8 -3 6 -10 8 -14 5 -10 -6 -8 61 2 71 4 4 14 1 24 -7
9 -8 14 -9 10 -2 -4 7 0 16 10 22 11 6 13 11 5 11 -7 0 -11 4 -7 9 3 5 1 12
-4 16 -6 3 -8 -4 -6 -15 3 -13 0 -18 -7 -14 -7 5 -8 2 -3 -6 5 -9 4 -11 -4 -6
-8 6 -9 12 -2 20 6 7 9 15 7 17 -3 2 4 15 16 29 11 14 17 20 14 14 -3 -7 0
-14 7 -17 7 -3 12 4 12 18 0 13 -3 21 -6 19 -6 -3 -5 38 1 44 7 6 5 29 -2 45
-6 12 -5 17 4 15 7 -2 11 4 9 12 -2 8 -3 21 -2 28 1 15 1 38 0 55 -1 6 2 21 7
31 6 15 4 17 -7 11 -8 -5 -11 -5 -6 1 5 5 14 9 20 9 7 0 12 7 12 15 0 8 5 19
10 23 6 5 4 7 -5 4 -8 -2 -14 -12 -12 -22 2 -9 -1 -14 -7 -11 -5 4 -9 14 -9
24 0 9 -3 26 -7 37 l-8 20 16 -20 c18 -21 18 -21 22 11 2 17 -2 20 -18 16 -19
-5 -19 -4 2 17 12 12 19 26 16 31 -4 6 0 10 7 10 7 1 1 8 -14 16 -16 8 -28 20
-28 27 0 7 3 8 8 2 9 -13 32 -18 32 -7 0 5 -10 14 -22 21 -13 6 -16 10 -7 7
13 -3 16 3 15 32 0 24 4 36 12 35 6 -2 12 2 12 7 0 12 -6 13 -29 1 -15 -8 -17
-4 -15 37 0 26 -4 50 -10 54 -7 5 -7 8 2 8 10 0 10 5 1 21 -6 12 -7 19 -1 15
5 -3 12 1 15 9 4 9 1 12 -8 9 -14 -6 -14 11 0 57 4 11 2 19 -4 19 -6 0 -10 -3
-10 -7 3 -21 -2 -33 -12 -27 -8 5 -8 9 1 14 8 5 9 10 2 14 -13 8 -4 36 10 36
6 0 4 -8 -3 -17 -13 -16 -12 -17 4 -4 12 9 15 17 8 24 -7 7 -15 6 -24 -1 -10
-9 -18 -8 -33 4 -18 15 -18 15 3 5 16 -8 22 -7 26 4 4 10 1 12 -11 8 -14 -6
-15 -4 -4 9 10 13 10 17 -3 22 -9 3 -13 2 -10 -3 3 -5 2 -12 -3 -15 -4 -2 -8
4 -9 13 -1 10 8 24 20 30 16 8 17 10 3 6 -10 -3 -26 0 -34 7 -13 11 -15 10 -9
-5 4 -11 3 -16 -3 -12 -12 7 -13 35 -2 35 4 0 13 -5 20 -12 9 -9 12 -9 12 0 0
7 -4 12 -9 12 -6 0 -6 12 -1 30 6 21 5 29 -3 27 -6 -1 -13 9 -15 22 -3 19 -6
21 -14 10 -7 -10 -8 -8 -3 8 3 12 2 24 -3 27 -5 3 -8 17 -7 31 2 14 -1 23 -6
19 -5 -3 -9 1 -9 8 0 8 -5 6 -11 -4 -5 -10 -18 -18 -28 -18 -11 0 -22 -7 -25
-16 -5 -14 -4 -15 8 -5 10 8 16 9 21 1 4 -6 1 -9 -7 -8 -7 2 -12 -3 -10 -10 2
-10 -2 -10 -19 -1 -13 6 -19 7 -15 1 3 -6 2 -13 -4 -17 -5 -3 -10 -11 -10 -18
0 -6 7 -2 16 9 14 18 15 18 4 -4 -6 -13 -17 -21 -24 -19 -7 3 -13 -1 -13 -9 0
-7 3 -11 7 -9 4 2 7 -2 7 -9 0 -8 -8 -11 -21 -8 -16 4 -18 2 -10 -7 13 -15 6
-54 -8 -45 -5 3 -4 12 3 20 8 10 8 14 0 14 -6 0 -11 -5 -11 -11 0 -5 -4 -8 -9
-4 -5 3 -13 0 -17 -6 -4 -7 -3 -9 3 -6 11 7 28 -22 18 -31 -3 -3 -5 -1 -5 5 0
5 -7 10 -15 10 -13 0 -13 -3 1 -18 12 -13 12 -19 3 -25 -7 -4 -10 -3 -5 4 3 6
2 13 -4 17 -10 6 -14 -6 -11 -35 2 -12 0 -13 -7 -1 -5 7 -8 23 -5 35 3 18 2
17 -7 -3 -6 -14 -8 -31 -5 -38 3 -9 1 -11 -8 -6 -16 10 -38 13 -33 5 2 -4 0
-18 -5 -31 -8 -19 -12 -21 -24 -11 -12 10 -13 7 -9 -17 4 -27 4 -27 -12 -8
-17 21 -17 20 3 -32 4 -12 -2 -9 -16 7 -21 23 -21 23 -11 3 7 -15 7 -23 1 -23
-6 0 -8 -8 -5 -17 5 -14 4 -15 -4 -4 -6 8 -8 20 -5 28 3 7 0 13 -7 13 -6 0 -9
-3 -7 -8 8 -13 -12 -52 -28 -52 -8 0 -15 -5 -15 -11 0 -5 4 -8 8 -5 5 3 9 -1
9 -8 0 -8 -7 -12 -15 -8 -9 3 -13 1 -9 -5 4 -6 0 -16 -7 -22 -11 -9 -16 -9
-22 0 -5 8 -3 9 6 4 9 -6 11 -4 5 5 -5 9 -4 11 3 6 8 -5 10 -2 6 8 -3 9 -10
16 -16 16 -5 0 -6 -4 -3 -10 3 -5 -5 -15 -19 -21 -18 -9 -23 -17 -20 -36 3
-15 1 -22 -6 -18 -5 3 -20 -1 -32 -9 -12 -9 -18 -16 -12 -16 5 0 15 5 21 11 7
7 13 7 17 1 3 -6 2 -13 -4 -17 -5 -3 -10 -4 -10 -1 0 2 -13 1 -29 -4 -19 -5
-34 -4 -42 3 -10 10 -10 8 0 -6 13 -17 6 -23 -22 -18 -5 1 -6 -3 -2 -9 5 -8
-5 -14 -25 -12 -3 0 -5 -15 -4 -34 1 -20 -2 -31 -8 -28 -5 3 -7 12 -5 18 3 7
1 19 -5 27 -8 11 -9 10 -4 -4 4 -12 0 -17 -12 -17 -15 0 -15 -2 -2 -10 12 -7
12 -13 4 -27 -13 -21 -30 -15 -26 9 2 9 -1 19 -7 22 -5 4 -7 -4 -4 -16 4 -19
3 -20 -6 -8 -14 19 -14 5 -1 -20 9 -16 8 -18 -5 -14 -11 5 -14 2 -9 -12 5 -15
4 -16 -4 -5 -6 8 -8 21 -5 30 4 14 3 14 -6 1 -6 -8 -11 -11 -11 -6 0 5 -6 3
-13 -3 -8 -6 -17 -8 -20 -4 -4 3 -7 1 -7 -5 0 -16 13 -15 29 1 8 6 6 0 -3 -14
-9 -14 -13 -29 -9 -32 3 -4 1 -7 -6 -7 -8 0 -11 7 -7 15 4 13 2 14 -14 5 -11
-6 -31 -21 -46 -35 -14 -13 -31 -23 -38 -22 -6 1 -10 -4 -8 -11 1 -8 -2 -11
-8 -7 -8 5 -7 11 1 21 9 11 9 14 0 14 -7 0 -9 5 -5 12 4 7 3 8 -5 4 -6 -4 -9
-11 -6 -16 6 -10 -20 -32 -28 -23 -4 3 -7 11 -7 17 0 6 4 5 9 -3 6 -9 11 -10
15 -2 4 6 2 11 -4 11 -6 0 -8 6 -4 12 4 7 -1 6 -12 -3 -24 -20 -51 -14 -60 14
-4 12 -14 28 -23 34 -15 12 -15 13 0 7 20 -6 34 11 18 22 -8 5 -9 3 -4 -6 5
-9 4 -11 -4 -6 -9 6 -9 11 1 24 11 13 11 15 -2 10 -11 -4 -16 1 -17 16 0 11 1
15 4 9 6 -16 33 -17 33 -2 0 5 -4 8 -8 5 -4 -2 -14 4 -20 15 -12 19 -11 19 8
9 24 -13 26 -7 4 14 -8 9 -11 16 -5 16 6 0 11 5 11 11 0 5 -4 7 -10 4 -6 -3
-10 -1 -10 4 0 6 5 11 10 11 6 0 10 5 10 11 0 5 -6 7 -12 3 -10 -6 -10 -4 0 7
21 23 13 33 -10 13 -23 -19 -23 -19 -5 2 9 11 14 24 10 29 -5 4 -2 5 5 1 6 -4
12 -3 12 2 0 6 -7 13 -16 16 -17 6 -10 26 9 26 7 0 6 -4 -3 -10 -9 -6 -10 -10
-3 -10 18 0 26 19 10 26 -7 2 -14 11 -14 19 0 8 4 12 9 9 4 -3 8 0 8 5 0 6 -5
11 -12 11 -6 0 -3 6 8 14 18 14 18 15 2 21 -10 4 -15 11 -12 17 4 5 11 5 18
-1 9 -8 13 -7 13 3 0 10 -10 13 -31 11 l-31 -3 28 11 c30 12 36 26 11 23 -9 0
-19 6 -21 14 -4 12 -3 12 5 1 8 -10 14 -11 28 -1 16 10 16 11 2 6 -12 -3 -18
0 -18 10 0 9 5 12 12 8 7 -4 8 -3 4 4 -4 7 -1 12 6 12 7 0 0 10 -17 21 -16 12
-22 18 -12 15 15 -5 17 -2 11 16 -4 15 0 26 16 38 17 13 18 17 6 17 -9 0 -16
-4 -16 -9 0 -4 -8 -8 -17 -7 -11 0 -13 3 -6 6 10 3 10 10 2 25 -9 16 -8 19 2
13 9 -6 10 -3 5 11 -8 21 -9 24 -7 42 0 6 6 12 12 12 8 0 8 -5 -1 -15 -7 -9
-8 -15 -2 -15 6 0 9 -11 7 -25 -1 -14 0 -23 4 -20 3 4 6 24 7 46 1 36 -5 43
-31 40 -5 -1 -1 5 9 14 18 13 17 14 -13 10 -26 -3 -34 1 -40 17 -8 21 -8 21
-14 -1 -5 -19 -8 -21 -26 -11 -15 7 -27 8 -40 0 -25 -13 -31 -13 -31 1 0 5 4
8 8 5 5 -3 9 1 9 9 0 11 -4 12 -13 4 -9 -7 -19 -7 -32 0 -14 7 -19 7 -19 -4 0
-7 6 -11 13 -8 6 2 14 1 17 -4 3 -4 -17 -8 -43 -8 -26 0 -46 3 -43 8 7 12 -12
8 -26 -6 -11 -10 -13 -9 -8 5 3 10 1 20 -5 24 -6 4 -8 3 -5 -3 4 -6 0 -16 -8
-23 -12 -10 -18 -10 -32 1 -11 10 -14 10 -9 2 12 -21 16 -54 5 -48 -5 4 -7 10
-4 15 3 5 0 12 -6 16 -8 4 -9 3 -5 -4 4 -7 3 -12 -2 -12 -5 0 -9 -10 -8 -22 1
-15 -4 -22 -14 -20 -12 3 -12 0 2 -15 8 -10 14 -29 12 -43 -3 -18 -2 -21 5
-10 5 8 7 18 5 22 -3 4 2 5 11 1 12 -4 13 -8 4 -13 -7 -5 -9 -16 -5 -25 3 -10
0 -28 -8 -40 -12 -18 -12 -22 -1 -22 8 0 12 4 9 8 -2 4 0 10 5 13 5 4 8 -2 7
-11 -2 -9 -8 -19 -13 -20 -6 -2 -9 -13 -6 -24 3 -10 0 -25 -6 -32 -8 -10 -7
-14 4 -14 7 0 13 5 12 10 -1 5 4 11 11 13 7 1 8 0 2 -3 -5 -2 -8 -9 -4 -14 3
-5 -1 -12 -9 -15 -9 -3 -13 -13 -10 -25 3 -10 0 -25 -6 -32 -8 -10 -7 -14 4
-14 8 0 12 4 9 8 -2 4 1 11 7 15 7 4 9 3 5 -4 -3 -5 0 -13 6 -15 10 -4 10 -6
0 -6 -7 -1 -10 -5 -7 -11 3 -6 -1 -7 -10 -4 -11 5 -14 2 -8 -12 5 -14 3 -16
-13 -11 -16 6 -17 5 -4 -5 16 -14 20 -51 8 -64 -5 -4 -8 -12 -8 -18 0 -5 6 -2
13 7 9 13 16 14 27 6 13 -10 13 -10 0 -6 -9 3 -20 -4 -26 -17 -8 -17 -7 -23 2
-23 7 0 11 4 8 8 -2 4 1 11 7 15 7 4 9 3 5 -4 -3 -5 0 -13 6 -15 10 -4 10 -6
0 -6 -7 -1 -10 -5 -7 -11 3 -6 -1 -7 -10 -4 -11 5 -14 2 -8 -12 5 -14 3 -16
-13 -11 -16 6 -17 5 -4 -5 13 -11 19 -51 10 -60 -7 -7 -5 -66 2 -62 13 8 9
-10 -4 -25 -10 -11 -10 -13 0 -7 11 6 14 0 11 -20 0 -4 5 -11 13 -15 9 -6 9
-9 1 -9 -7 0 -16 8 -21 17 -8 13 -10 10 -9 -15 1 -18 5 -32 10 -32 4 0 5 -4 2
-10 -3 -5 -1 -10 5 -10 7 0 9 8 5 20 -5 15 -2 20 12 20 10 0 14 -4 8 -8 -5 -4
-10 -18 -10 -31 0 -14 -7 -26 -15 -28 -13 -4 -13 -3 0 6 8 6 10 11 4 11 -6 0
-13 -3 -17 -6 -8 -8 3 -35 12 -30 4 3 8 -4 8 -15 1 -10 -3 -19 -8 -19 -6 0 -8
4 -5 8 3 5 -1 9 -9 9 -11 0 -12 -5 -4 -19 7 -13 16 -17 27 -13 14 5 15 4 4 -7
-10 -10 -17 -10 -31 -1 -20 13 -24 1 -8 -24 5 -7 4 -13 0 -13 -5 0 -15 6 -23
13 -12 10 -12 9 -1 -6 9 -11 21 -15 35 -12 19 5 19 5 3 -5 -10 -7 -24 -9 -32
-6 -9 3 -12 0 -8 -9 3 -8 10 -12 17 -8 7 4 7 1 -1 -9 -7 -8 -9 -19 -5 -24 4
-4 0 -3 -10 4 -10 8 -27 10 -44 6 -21 -5 -25 -4 -19 6 5 9 4 11 -4 6 -6 -4 -8
-12 -5 -18 5 -8 1 -9 -10 -5 -9 4 -15 3 -12 -2 3 -5 -5 -11 -18 -13 -17 -4
-23 -1 -19 9 3 7 0 13 -6 13 -6 0 -11 -9 -11 -20 0 -11 -5 -20 -11 -20 -5 0
-7 5 -3 12 5 8 2 9 -9 5 -11 -4 -17 -1 -17 9 0 8 -5 12 -10 9 -7 -4 -6 -13 1
-26 6 -12 8 -23 6 -26 -3 -2 -8 5 -12 16 -6 19 -17 25 -37 22 -12 -2 -9 17 3
25 8 5 6 10 -5 16 -9 5 -13 14 -10 20 4 7 2 8 -4 4 -7 -4 -12 -2 -12 3 0 6 5
11 12 11 6 0 8 3 5 6 -4 4 -14 1 -24 -7 -9 -8 -14 -9 -10 -2 4 6 3 14 -2 18
-12 7 -3 35 11 35 6 0 5 -6 -2 -15 -7 -9 -8 -15 -2 -15 18 0 21 29 4 39 -13 8
-13 10 -3 11 11 0 10 4 -4 13 -13 10 -15 16 -6 21 9 6 9 11 1 21 -7 9 -6 16 7
26 16 13 17 12 4 -3 -7 -10 -9 -18 -3 -18 14 0 23 28 12 35 -6 4 -14 3 -20 0
-6 -3 -7 1 -4 9 5 12 11 13 27 5 20 -9 20 -8 -2 10 -17 16 -19 21 -8 21 9 0
18 4 21 8 3 4 -9 7 -25 6 -26 -2 -28 0 -17 13 15 19 17 41 4 68 -9 18 -8 19 9
5 12 -10 16 -11 11 -2 -11 19 -15 62 -5 62 5 0 9 4 9 10 0 5 -6 8 -12 6 -7 -1
-10 -1 -5 1 4 3 4 10 1 15 -4 7 -2 8 4 4 7 -4 12 -2 12 3 0 6 -5 11 -11 11 -6
0 -3 8 8 18 10 9 13 13 6 8 -9 -6 -18 -5 -26 3 -9 10 -9 12 2 9 7 -2 16 3 19
11 3 9 0 11 -9 6 -8 -5 -11 -5 -7 0 4 4 2 15 -5 23 -10 13 -9 14 2 7 11 -6 13
-4 8 9 -5 11 -3 15 4 10 7 -4 10 -1 7 7 -3 8 -11 13 -17 11 -7 -1 -10 2 -6 8
3 6 10 8 15 5 4 -3 10 2 13 10 4 9 1 12 -8 9 -11 -5 -11 2 1 41 10 36 11 45 1
37 -9 -8 -12 -1 -13 34 0 24 4 44 9 44 4 0 5 -4 2 -10 -4 -6 1 -7 11 -3 16 6
16 8 -4 16 -28 13 -34 33 -14 49 15 11 15 11 5 -2 -10 -13 -8 -18 10 -29 18
-11 20 -11 10 0 -7 7 -13 17 -13 22 0 4 6 5 13 1 8 -5 8 -2 -2 9 -7 9 -21 17
-30 17 -13 0 -14 2 -2 9 8 5 21 7 30 4 14 -4 14 -3 1 5 -8 6 -17 9 -21 6 -4
-2 -6 7 -3 22 3 18 1 23 -7 18 -8 -4 -9 -3 -5 5 4 6 12 8 18 5 6 -4 9 -1 6 7
-3 8 -14 13 -24 11 -15 -2 -16 -1 -4 7 8 5 17 8 21 5 4 -2 11 1 15 7 4 7 3 9
-3 6 -6 -4 -16 0 -22 7 -8 10 -9 16 -1 21 6 3 7 11 4 17 -4 7 -2 8 5 4 9 -6 9
-11 0 -22 -8 -10 -8 -14 0 -14 11 0 15 13 12 39 -2 8 2 10 10 5 7 -4 10 -3 5
4 -3 6 -15 9 -26 7 -12 -2 -18 0 -14 6 3 6 8 8 11 5 10 -9 35 24 29 39 -3 9 0
12 9 8 8 -3 12 -10 8 -17 -4 -7 -1 -7 9 1 8 7 19 9 23 5 5 -4 5 -1 1 6 -4 7
-11 10 -16 7 -5 -3 -11 -1 -14 4 -4 5 2 8 11 7 10 -2 21 2 25 8 5 7 8 4 8 -6
0 -10 5 -18 11 -18 5 0 8 3 6 8 -3 4 10 7 29 8 18 0 31 -2 29 -5 -2 -4 5 -7
15 -7 13 0 16 4 9 12 -7 8 -5 11 8 10 10 0 18 4 19 9 0 6 4 18 9 29 5 12 3 21
-6 27 -11 7 -9 9 7 9 12 0 28 8 35 17 12 15 12 16 -1 8 -28 -18 -36 -13 -32
19 3 23 -2 36 -15 46 -15 12 -16 12 -5 0 6 -8 12 -19 12 -24 0 -6 -7 0 -16 12
-13 19 -18 21 -32 10 -9 -8 -13 -8 -9 -2 4 7 0 14 -8 18 -10 3 -15 -1 -16 -12
0 -13 -3 -11 -9 6 -7 17 -17 22 -45 22 -19 0 -35 5 -35 11 0 5 -4 7 -10 4 -5
-3 -7 0 -4 8 3 8 0 18 -7 23 -8 4 -10 3 -5 -4 4 -7 3 -12 -3 -12 -5 0 -9 9 -8
19 0 11 5 17 9 15 4 -3 8 0 8 5 0 6 -7 11 -16 11 -8 0 -12 4 -9 10 3 5 1 19
-6 31 -8 15 -8 19 0 15 6 -4 11 0 11 9 0 9 -4 14 -9 11 -9 -6 -7 37 4 53 3 6
1 11 -5 11 -6 0 -9 4 -5 10 3 5 13 7 23 4 14 -5 14 -4 3 4 -8 6 -23 9 -34 7
-15 -3 -17 -1 -7 10 8 10 8 19 1 33 -11 20 -26 23 -48 9 -6 -4 -15 -3 -18 3
-5 8 -11 7 -21 -1 -8 -6 -14 -8 -14 -3 0 4 -5 3 -12 -4 -9 -9 -16 -8 -32 6
-18 16 -19 16 -13 0 9 -24 -5 -23 -21 2 -7 11 -18 20 -25 20 -9 0 -9 -2 1 -9
10 -6 9 -11 -4 -22 -10 -8 -15 -9 -11 -2 5 7 -2 14 -15 19 -13 4 -24 5 -24 3
-1 -2 -12 5 -25 16 l-24 20 18 -21 c16 -20 16 -22 2 -28 -24 -9 -32 -7 -16 3
9 6 10 11 2 15 -6 4 -20 -5 -33 -19 -12 -14 -28 -23 -35 -21 -7 3 -10 -1 -7
-9 3 -8 11 -13 17 -11 7 1 9 1 4 -1 -4 -3 -4 -10 -1 -15 4 -7 2 -8 -4 -4 -7 4
-12 2 -12 -3 0 -6 5 -11 10 -11 6 0 10 -5 10 -11 0 -5 -4 -7 -10 -4 -5 3 -10
2 -10 -4 0 -5 6 -12 13 -14 10 -4 10 -6 0 -6 -7 -1 -13 -5 -13 -11 0 -5 6 -8
13 -6 6 1 9 1 4 -1 -4 -3 -4 -10 -1 -15 4 -6 2 -8 -4 -4 -18 11 -20 -18 -3
-38 15 -18 15 -18 -7 -7 -21 11 -22 11 -10 -8 6 -11 17 -17 23 -14 5 3 4 0 -3
-8 -11 -11 -14 -12 -21 -1 -7 11 -10 10 -14 -3 -4 -9 -3 -13 3 -10 6 3 10 1
10 -5 0 -7 7 -9 16 -6 8 3 12 2 9 -4 -3 -6 -18 -8 -33 -5 -15 3 -21 2 -14 -1
19 -9 14 -24 -5 -18 -17 5 -17 5 0 -9 26 -22 20 -30 -8 -11 -18 12 -25 13 -23
4 2 -7 -3 -15 -11 -18 -8 -2 -11 0 -8 5 3 5 -3 10 -14 10 -10 1 -19 -4 -19
-10 0 -7 -4 -6 -10 3 -5 8 -10 10 -10 4 0 -6 8 -18 17 -25 10 -8 14 -9 10 -2
-4 6 -2 15 4 18 7 5 9 1 7 -11 -2 -11 -11 -17 -19 -15 -8 2 -22 3 -32 3 -9 0
-15 3 -12 9 4 5 1 9 -5 9 -7 0 -9 -7 -6 -16 3 -9 6 -18 6 -20 0 -3 4 -3 9 1 5
3 12 1 15 -4 7 -10 -20 -9 -30 2 -4 4 -12 7 -17 7 -6 0 0 -9 13 -20 13 -11 19
-20 14 -20 -6 0 -16 6 -23 13 -11 10 -12 8 -3 -9 9 -16 8 -26 -3 -40 -8 -11
-15 -14 -15 -8 0 5 5 15 10 20 8 8 7 14 -3 23 -11 9 -17 7 -28 -6 -12 -16 -12
-17 2 -6 19 16 33 5 18 -14 -9 -10 -6 -21 12 -47 19 -29 27 -33 46 -25 14 5
25 4 28 -2 4 -5 16 -7 28 -4 16 5 18 4 8 -3 -11 -8 -9 -11 10 -14 13 -2 23 -9
21 -16 -1 -6 3 -12 9 -12 6 0 8 9 4 23 -5 16 -4 18 3 8 6 -8 18 -11 28 -7 18
6 17 5 0 -9 -11 -8 -15 -16 -8 -16 27 -3 31 -4 39 -13 5 -5 3 -6 -4 -2 -8 4
-13 1 -13 -9 0 -10 -5 -14 -12 -10 -7 4 -2 -3 11 -15 20 -17 22 -23 11 -33
-10 -9 -11 -9 -6 0 5 9 2 11 -11 6 -14 -6 -13 -9 12 -19 19 -8 23 -13 13 -14
-10 0 -18 -5 -18 -11 0 -5 4 -8 8 -5 5 3 8 -8 8 -24 0 -16 -3 -27 -8 -24 -4 3
-8 0 -8 -5 0 -6 8 -11 18 -12 13 0 12 -2 -5 -9 -13 -5 -23 -12 -23 -14 0 -3 6
-3 13 0 8 3 14 -2 14 -10 0 -8 -4 -13 -9 -10 -4 3 -8 1 -8 -5 0 -5 8 -12 18
-14 16 -4 16 -5 0 -6 -10 0 -18 -6 -18 -12 0 -5 4 -8 9 -5 4 3 7 -5 6 -17 -1
-12 -4 -22 -5 -22 -1 0 -4 -13 -6 -30 -2 -18 0 -25 5 -17 7 11 9 11 14 -2 4
-9 1 -15 -5 -13 -6 1 -13 -4 -16 -12 -2 -8 0 -11 5 -8 5 3 10 0 10 -8 0 -8 -4
-12 -9 -9 -4 3 -8 1 -8 -5 0 -5 8 -12 18 -14 16 -4 16 -5 0 -6 -10 0 -18 -6
-18 -12 0 -5 4 -8 8 -5 5 3 9 -1 9 -9 0 -8 -4 -12 -9 -9 -4 3 -8 1 -8 -5 0 -5
8 -12 18 -14 16 -4 16 -5 0 -6 -10 0 -18 -6 -18 -12 0 -5 4 -8 8 -5 5 3 9 -1
9 -9 0 -8 -4 -12 -9 -9 -4 3 -8 0 -8 -5 0 -6 8 -11 18 -12 13 0 12 -2 -5 -9
-27 -11 -31 -22 -5 -13 9 3 14 3 10 -2 -4 -4 -3 -17 3 -28 7 -13 7 -17 1 -13
-6 3 -13 2 -17 -4 -3 -5 0 -10 7 -11 7 0 4 -4 -7 -9 -17 -7 -17 -9 -2 -9 9 -1
17 -6 17 -12 0 -5 -4 -8 -8 -5 -5 3 -9 -2 -9 -10 0 -9 6 -13 15 -9 12 4 12 3
3 -9 -9 -11 -10 -20 -1 -35 9 -17 8 -20 -5 -15 -8 4 -15 1 -15 -5 0 -6 5 -11
11 -11 5 0 7 -5 4 -10 -5 -8 -12 -7 -23 2 -15 12 -16 11 -3 -4 7 -10 17 -15
22 -12 5 3 9 0 9 -5 0 -6 -4 -11 -10 -11 -5 0 -10 -5 -10 -11 0 -5 4 -8 9 -4
5 3 13 0 17 -6 4 -8 3 -9 -5 -5 -8 5 -10 -1 -6 -23 3 -19 1 -31 -5 -31 -6 0
-8 5 -4 12 4 7 3 8 -4 4 -6 -4 -9 -13 -6 -21 4 -8 10 -13 14 -10 5 3 12 0 16
-6 4 -7 3 -9 -3 -6 -6 4 -16 0 -23 -8 -11 -13 -10 -14 6 -9 10 4 16 4 12 -1
-4 -4 -3 -17 3 -28 9 -15 8 -18 -2 -12 -9 6 -10 3 -5 -10 6 -18 6 -18 -15 1
l-22 19 14 -23 c8 -12 18 -22 23 -22 4 0 -2 -9 -15 -20 -13 -10 -19 -19 -12
-20 6 0 13 6 16 13 2 6 8 9 11 5 4 -3 -1 -15 -12 -26 -20 -20 -20 -20 2 -31
l21 -12 -22 5 c-28 5 -29 -2 -5 -21 12 -10 13 -13 2 -10 -19 5 -50 -22 -43
-38 2 -7 -1 -16 -8 -21 -7 -4 -10 -3 -5 4 3 6 2 13 -3 17 -6 3 -8 -5 -5 -20 5
-26 -9 -34 -22 -13 -5 7 -3 8 5 3 10 -6 11 -3 2 12 -6 11 -7 24 -3 28 4 5 2 5
-5 1 -7 -4 -10 -13 -7 -20 8 -21 -17 -32 -31 -13 -10 14 -12 14 -23 -1 -10
-15 -11 -15 -6 3 3 11 2 16 -3 10 -11 -14 -47 -19 -38 -6 3 7 0 8 -9 5 -9 -3
-14 -10 -11 -14 3 -5 1 -12 -5 -15 -6 -4 -9 -1 -8 7 2 8 -4 12 -17 10 -11 -2
-17 -1 -13 3 3 3 13 8 22 9 17 2 23 21 7 21 -18 0 -30 21 -33 62 -1 7 -5 10
-10 7 -4 -3 -8 -1 -8 5 0 5 5 12 10 14 6 3 5 4 -2 3 -7 -2 -12 -12 -10 -22 2
-10 4 -24 4 -31 1 -7 5 -10 9 -8 12 8 4 -24 -9 -37 -9 -9 -12 -9 -12 0 0 7 5
12 11 12 5 0 7 5 4 10 -4 6 -12 7 -18 3 -8 -4 -7 -1 1 9 9 11 10 18 2 23 -5 3
-10 15 -10 26 0 13 -4 18 -12 13 -7 -4 -5 1 4 12 17 19 17 21 0 38 -9 11 -12
16 -6 12 7 -3 14 1 17 9 4 8 1 13 -6 11 -7 -1 -8 -1 -4 2 4 2 2 11 -5 20 -10
14 -10 15 2 4 18 -16 27 -15 27 3 0 8 -4 12 -9 9 -4 -3 -8 0 -8 6 0 6 -5 8
-12 4 -7 -5 -8 -3 -4 5 5 7 13 10 20 8 7 -3 12 4 12 18 0 13 -4 21 -8 19 -5
-3 -5 -10 -2 -16 4 -7 2 -8 -5 -4 -6 4 -8 12 -5 18 4 6 0 14 -7 19 -12 7 -12
9 0 9 11 0 11 3 0 18 -11 14 -11 15 1 4 19 -16 35 -16 21 1 -6 8 -8 17 -4 21
4 4 -1 4 -12 1 -14 -5 -16 -4 -7 3 15 10 13 52 -3 65 -6 5 -3 7 7 4 18 -6 33
19 17 28 -5 4 -7 11 -4 16 3 5 -2 6 -12 3 -13 -4 -15 -3 -5 4 8 5 12 18 11 28
-2 11 0 25 4 31 5 8 3 12 -5 10 -7 -2 -9 -2 -5 1 4 2 2 11 -5 20 -10 14 -10
15 2 5 19 -17 35 -17 21 0 -6 8 -8 17 -4 21 4 4 -1 4 -12 1 -14 -5 -16 -4 -7
3 15 10 13 52 -3 65 -6 5 -3 7 7 4 18 -6 33 19 17 28 -5 4 -7 11 -4 16 3 5 -2
6 -12 3 -12 -4 -14 -3 -6 3 14 10 14 75 0 66 -6 -3 -7 -1 -3 6 6 9 11 9 21 1
9 -7 16 -6 26 7 12 16 12 17 -1 6 -12 -9 -19 -8 -35 4 -20 15 -20 15 0 11 18
-4 21 0 20 33 0 20 -3 35 -7 32 -5 -2 -8 3 -8 12 0 10 -5 13 -12 9 -10 -6 -10
-4 0 8 10 13 10 17 0 22 -7 3 -4 5 8 3 15 -3 20 1 20 19 0 17 -6 24 -20 25
-16 1 -17 2 -5 6 11 3 15 11 12 23 -3 12 -10 17 -17 13 -6 -4 -5 0 2 9 7 9 9
18 5 20 -4 3 -3 4 2 2 6 -1 11 13 11 32 0 32 -1 33 -20 16 -11 -9 -16 -12 -13
-6 4 7 0 17 -8 24 -8 7 -15 9 -15 4 0 -5 -5 -2 -11 6 -9 13 -10 13 -6 0 2 -8
10 -14 16 -12 7 1 10 -2 6 -8 -4 -7 -13 -6 -28 2 -12 6 -35 11 -51 9 -18 -2
-26 1 -22 8 11 17 0 13 -15 -6 -12 -15 -12 -16 1 -8 12 6 13 6 2 -6 -11 -12
-14 -12 -22 1 -5 8 -7 17 -4 21 5 9 -17 6 -33 -4 -16 -10 -35 1 -27 15 4 7 2
8 -5 4 -6 -4 -9 -11 -6 -16 2 -4 -6 -10 -20 -12 -22 -5 -23 -3 -13 10 8 10 3
9 -13 -3 -15 -11 -25 -23 -23 -27 2 -4 0 -9 -5 -12 -10 -7 -9 20 2 30 4 4 7
12 7 18 0 6 -5 3 -11 -7 -6 -9 -15 -14 -21 -11 -7 5 -9 1 -5 -9 6 -16 -8 -34
-16 -20 -2 5 -2 2 0 -6 2 -7 -2 -11 -10 -8 -8 3 -13 -3 -14 -17 0 -11 1 -15 4
-8 3 6 9 12 14 12 4 0 5 -7 2 -17 -5 -12 -3 -14 7 -8 9 5 11 4 6 -4 -4 -6 -11
-9 -16 -6 -5 3 -12 0 -16 -6 -4 -7 -3 -9 2 -6 6 3 16 2 24 -4 13 -7 12 -9 -2
-9 -10 0 -18 -5 -18 -11 0 -5 5 -7 11 -3 7 4 10 1 7 -7 -3 -8 1 -20 9 -27 10
-10 10 -18 2 -34 -6 -11 -13 -17 -16 -14 -3 3 -1 11 5 19 8 10 6 16 -11 27
-20 12 -21 12 -8 -4 12 -14 12 -19 2 -25 -9 -6 -8 -11 4 -21 8 -7 15 -9 15 -4
0 5 5 1 11 -9 13 -22 3 -38 -19 -31 -14 5 -14 3 2 -10 10 -8 23 -13 27 -10 5
3 9 0 9 -5 0 -6 -5 -11 -11 -11 -5 0 -8 -4 -4 -9 3 -5 1 -12 -4 -16 -6 -3 -8
4 -6 16 2 12 2 19 -2 15 -3 -3 -12 -1 -20 5 -10 9 -10 5 1 -16 8 -16 13 -32
10 -37 -3 -5 -2 -8 3 -7 4 1 15 1 23 0 13 -1 13 -3 1 -10 -8 -5 -20 -7 -26 -5
-21 8 -24 -23 -5 -44 14 -15 16 -22 7 -32 -9 -10 -7 -11 13 -5 19 5 22 4 14
-4 -6 -7 -20 -13 -31 -14 -17 -1 -19 -4 -10 -18 6 -10 15 -15 19 -13 4 3 8 0
8 -6 0 -6 5 -8 13 -4 8 5 8 2 -2 -9 -11 -14 -11 -20 0 -34 10 -11 10 -14 2 -9
-13 7 -17 -4 -14 -31 1 -7 -5 -13 -13 -13 -8 0 -18 -5 -22 -11 -4 -8 0 -9 15
-4 13 4 21 2 21 -5 0 -6 5 -8 13 -4 9 6 9 4 -1 -8 -7 -8 -10 -23 -6 -32 3 -9
2 -16 -4 -16 -6 0 -9 11 -8 23 2 14 -2 24 -10 24 -7 0 -10 -5 -7 -10 3 -5 6
-19 7 -31 1 -15 7 -20 21 -18 16 2 17 1 5 -7 -8 -5 -18 -7 -22 -5 -4 3 -8 0
-8 -5 0 -6 5 -11 10 -11 6 0 10 -5 10 -11 0 -5 -4 -8 -9 -5 -4 3 -8 -5 -7 -17
1 -12 8 -21 15 -19 7 1 10 -2 6 -8 -3 -6 -11 -8 -16 -5 -5 4 -9 1 -9 -4 0 -6
5 -11 10 -11 6 0 10 -5 10 -11 0 -5 -4 -8 -9 -5 -4 3 -6 -7 -4 -22 4 -21 2
-24 -6 -12 -6 8 -11 10 -11 4 0 -16 10 -23 26 -17 8 3 11 10 7 16 -4 6 -1 7 7
2 10 -6 10 -10 -2 -19 -20 -15 -22 -27 -6 -38 10 -7 9 -8 -4 -4 -10 3 -18 1
-18 -4 0 -6 5 -10 10 -10 6 0 10 -5 10 -12 0 -8 -6 -6 -17 4 -13 14 -14 20 -3
32 7 9 8 16 2 16 -19 0 -22 -33 -6 -59 l17 -26 -22 19 c-21 19 -22 19 -15 1 6
-15 4 -17 -10 -12 -9 4 -15 3 -11 -2 3 -5 1 -12 -5 -16 -5 -3 -10 0 -10 7 0
10 -3 9 -9 -2 -6 -8 -7 -18 -5 -22 5 -8 -11 -12 -30 -9 -5 1 -6 -5 -3 -13 4
-9 2 -18 -4 -21 -5 -4 -9 -3 -8 2 4 22 -2 34 -13 26 -37 -22 -44 7 -10 35 11
8 12 12 3 12 -7 0 -10 4 -7 8 3 5 -3 8 -12 7 -9 0 -17 -5 -17 -10 0 -6 5 -9
13 -7 10 2 10 -1 1 -17 -12 -19 -13 -19 -25 5 -7 14 -11 32 -8 42 4 11 3 13
-3 5 -6 -8 -12 -8 -25 1 -10 7 -16 15 -13 17 2 3 -5 5 -15 6 -28 2 -25 -4 10
-22 17 -9 30 -21 30 -28 0 -8 -3 -9 -8 -1 -8 12 -43 28 -55 25 -5 -1 -6 2 -3
7 2 4 1 14 -4 22 -5 9 -4 20 3 30 6 8 1 6 -11 -4 -22 -19 -22 -19 -16 -1 5 13
4 16 -4 11 -7 -4 -12 -1 -12 8 0 9 -4 16 -10 16 -5 0 -7 -8 -3 -17 3 -12 0
-10 -11 5 -10 12 -22 19 -28 16 -7 -4 -8 -2 -4 5 6 9 11 9 21 1 9 -7 16 -6 26
7 13 16 12 17 -3 5 -14 -11 -18 -10 -27 5 -6 10 -11 13 -11 6 0 -7 -7 -10 -17
-6 -11 5 -14 3 -8 -6 6 -10 3 -11 -13 -2 -12 6 -24 17 -28 24 -6 9 -4 9 8 -1
17 -13 48 -7 48 11 0 7 -4 7 -12 -1 -14 -14 -32 -16 -24 -3 5 8 -22 8 -31 1
-11 -9 -32 -3 -50 14 -23 19 -33 53 -13 41 6 -4 7 -11 4 -17 -5 -7 -2 -8 6 -3
9 6 11 4 5 -6 -5 -8 -4 -11 0 -6 5 4 17 -1 28 -10 15 -13 18 -14 12 -3 -5 8
-17 21 -27 28 -10 7 -15 18 -12 24 4 6 2 8 -3 5 -6 -4 -16 0 -23 8 -7 8 -19
15 -26 15 -8 0 -14 5 -14 11 0 5 4 7 10 4 6 -3 7 1 4 9 -6 15 -18 20 -37 17
-5 -1 -5 8 -2 20 6 19 5 20 -8 8 -11 -10 -12 -19 -5 -34 9 -19 9 -19 -6 -1 -9
10 -13 23 -10 27 3 5 -7 14 -22 19 -15 6 -24 13 -21 17 4 3 18 -2 32 -11 14
-9 25 -12 25 -6 0 5 -5 10 -11 10 -5 0 -7 4 -4 10 3 6 -1 7 -9 4 -15 -6 -22
12 -16 41 1 5 -7 2 -18 -8 -15 -14 -19 -14 -19 -2 0 8 4 12 9 9 4 -3 8 0 8 5
0 6 -4 11 -10 11 -5 0 -10 5 -10 11 0 5 5 7 11 3 8 -5 8 -1 0 14 -6 11 -8 22
-3 25 4 2 1 2 -6 1 -7 -2 -17 8 -22 21 -5 14 -14 26 -20 26 -5 1 -14 2 -19 3
-5 0 -13 4 -17 8 -4 4 -14 2 -22 -5 -10 -8 -9 -2 4 18 17 26 17 28 2 22 -10
-3 -20 -1 -24 5 -4 7 -3 8 4 4 8 -5 12 1 12 14 0 12 -4 19 -8 16 -5 -3 -9 1
-9 9 0 13 3 13 17 0 14 -13 17 -13 17 0 0 8 -5 11 -10 8 -6 -4 -8 0 -4 9 3 9
-1 24 -9 35 -14 17 -14 16 -4 -4 7 -16 7 -23 0 -23 -5 0 -10 7 -10 16 0 9 -5
12 -12 8 -10 -6 -10 -4 0 7 14 15 17 33 4 25 -5 -3 -9 1 -9 9 0 8 4 12 8 9 4
-2 11 1 15 7 5 8 3 9 -6 4 -10 -6 -12 -4 -7 9 4 10 3 15 -3 11 -6 -3 -10 -1
-10 5 0 6 -4 8 -10 5 -5 -3 -10 -1 -10 4 0 6 -3 10 -8 8 -4 -1 -8 1 -10 6 -5
16 -1 19 12 8 10 -9 17 -7 27 6 13 16 12 17 -3 4 -15 -11 -19 -11 -24 3 -3 9
-9 14 -13 12 -4 -3 -13 -1 -20 3 -10 6 -9 10 4 14 11 5 14 3 9 -6 -4 -6 -3 -9
1 -4 5 4 10 18 11 30 2 12 0 16 -2 10 -7 -16 -34 -17 -34 -2 0 5 6 7 13 3 6
-4 9 -4 5 1 -4 4 0 14 10 22 13 10 13 12 2 8 -11 -4 -16 1 -17 16 -2 18 0 19
15 7 15 -12 16 -11 3 4 -7 10 -18 15 -25 11 -6 -4 -5 1 3 11 12 14 12 17 1 14
-9 -2 -15 6 -16 19 -1 13 3 20 9 16 7 -4 8 0 2 13 -4 10 -7 27 -7 37 1 16 -1
17 -15 5 -15 -12 -15 -11 -2 9 8 13 17 23 22 23 4 0 5 -5 1 -12 -4 -7 -3 -8 5
-4 9 6 9 11 0 22 -6 7 -15 12 -19 9 -5 -3 -12 0 -16 6 -4 7 -3 9 3 6 6 -4 14
0 17 9 8 22 8 26 -3 19 -5 -3 -13 0 -17 6 -4 8 -3 9 4 5 7 -4 14 3 18 19 3 14
11 22 17 18 6 -4 7 -1 3 6 -5 7 -14 10 -22 7 -7 -3 -16 0 -20 6 -4 7 -3 8 4 4
8 -5 12 0 12 13 0 12 4 21 10 21 5 0 7 -6 4 -14 -3 -7 2 -16 12 -20 14 -5 15
-4 5 8 -8 9 -9 16 -2 21 11 6 -4 43 -24 57 -5 4 -6 8 -1 8 5 0 3 7 -4 16 -11
12 -11 15 1 12 8 -2 13 4 13 14 -1 10 2 15 7 12 5 -3 7 5 5 18 -2 13 1 28 6
35 12 15 1 36 -14 27 -7 -4 -8 -2 -4 5 6 8 12 9 20 2 7 -6 16 -7 21 -3 4 4 3
-2 -3 -13 -9 -18 -7 -21 11 -22 16 -2 18 0 8 6 -7 5 -10 14 -7 20 4 6 11 9 16
6 5 -3 12 0 16 6 4 8 3 9 -4 5 -7 -4 -12 -2 -12 3 0 6 -5 11 -11 11 -5 0 -7
-4 -4 -10 3 -6 -1 -7 -9 -4 -18 7 -11 24 10 24 8 0 14 5 14 11 0 6 6 7 13 2 6
-4 4 5 -6 21 l-18 27 23 -11 c19 -10 21 -10 11 1 -15 15 -17 33 -4 24 5 -3 12
-1 15 4 4 5 1 13 -5 17 -8 4 -9 3 -5 -4 5 -8 1 -10 -10 -5 -15 5 -15 7 0 15 9
5 13 14 10 20 -4 7 -2 8 4 4 7 -4 12 -2 12 3 0 6 -4 11 -10 11 -5 0 -10 4 -10
9 0 5 8 8 17 7 12 -1 18 9 20 36 4 33 2 37 -14 31 -12 -5 -10 1 8 18 15 13 27
27 27 32 0 4 3 13 6 20 2 6 4 2 2 -10 -1 -11 -8 -28 -14 -36 -9 -10 -10 -17
-2 -22 9 -6 14 1 11 18 -1 4 5 10 12 13 7 2 12 17 11 34 -1 22 2 27 14 23 11
-5 13 -3 7 7 -6 10 -4 12 8 7 9 -3 19 -1 23 5 4 7 3 8 -4 4 -7 -4 -12 -3 -12
3 0 5 5 13 10 16 16 10 12 25 -7 26 -15 0 -15 2 2 8 12 5 26 4 35 -3 13 -10
13 -9 1 7 -16 20 -24 70 -10 61 5 -3 9 0 9 7 0 7 3 9 6 6 4 -4 1 -13 -5 -21
-14 -17 -7 -36 12 -35 9 0 9 2 0 6 -7 2 -13 9 -13 14 0 6 5 7 10 4 6 -4 10 -3
9 2 -3 19 2 34 10 29 5 -4 7 3 4 14 -3 13 1 22 12 26 13 6 14 9 3 16 -9 7 -8
8 6 4 12 -4 25 2 39 20 24 31 34 82 12 64 -10 -8 -15 -8 -21 1 -4 7 -3 9 4 5
6 -3 14 -1 17 5 4 5 13 8 19 6 7 -3 19 -1 27 5 11 8 11 9 -3 5 -13 -5 -16 -1
-13 15 5 25 13 34 22 24 4 -4 1 -11 -7 -16 -11 -7 -11 -10 -2 -10 7 0 15 7 19
16 5 13 7 13 14 2 7 -10 9 -10 10 0 1 6 3 17 4 22 1 6 3 20 4 32 1 21 1 21 16
2 14 -18 14 -18 8 4 -3 15 -1 22 8 22 11 0 11 2 -1 10 -13 8 -12 10 5 11 11 1
25 2 32 2 7 0 12 2 11 6 -2 18 3 31 13 31 6 0 8 -7 5 -16 -3 -8 -2 -13 3 -10
4 3 8 19 9 36 0 19 -3 28 -10 24 -7 -4 -8 -2 -4 5 4 6 11 9 16 6 5 -3 14 4 20
16 8 13 18 19 30 16 13 -3 17 0 13 9 -3 10 0 12 10 8 10 -4 15 0 14 13 -1 11
5 18 19 19 12 1 26 4 33 8 16 10 4 26 -14 20 -8 -4 -12 -11 -8 -17 3 -6 1 -7
-5 -3 -22 13 -1 34 30 31 l30 -4 -22 19 c-13 11 -18 20 -12 20 6 0 14 -5 17
-10 4 -6 11 -8 16 -5 5 4 9 1 9 -5 0 -20 26 12 27 34 2 21 2 21 -10 1 -7 -11
-18 -21 -24 -23 -21 -4 -14 12 17 36 20 16 31 19 36 11 5 -8 3 -9 -7 -4 -12 8
-12 6 0 -8 7 -9 15 -17 17 -17 5 0 -4 39 -12 52 -4 6 -3 8 4 4 5 -3 12 -3 15
1 2 5 2 2 1 -4 -5 -20 6 -15 27 12 17 20 24 23 45 15 19 -7 23 -7 18 2 -5 8
-2 9 10 5 9 -4 15 -3 11 2 -3 5 1 12 7 15 9 3 8 5 -2 3 -8 -1 -16 3 -17 8 -4
13 40 14 50 0 6 -6 7 -4 4 6 -4 13 22 40 46 45 4 1 10 3 15 4 4 1 11 2 15 1 5
-1 6 3 3 8 -7 11 -25 9 -45 -3 -9 -6 -12 -5 -7 2 3 5 0 12 -6 15 -7 3 6 4 30
2 32 -1 42 2 38 11 -8 20 10 26 26 10 13 -12 16 -11 26 5 15 24 15 32 0 23
-10 -5 -10 -3 0 7 11 12 14 12 23 -1 8 -11 9 -9 5 12 -3 15 -2 30 4 33 6 3 7
-1 4 -9 -3 -9 -1 -16 6 -16 6 0 8 -4 5 -10 -3 -6 1 -7 10 -3 13 4 14 7 3 14
-11 7 -10 10 1 21 10 10 12 10 7 1 -9 -15 22 -17 44 -3 11 7 17 5 22 -8 6 -16
7 -15 7 1 1 11 6 15 13 11 6 -4 8 -3 5 4 -4 5 -18 9 -32 7 -14 -1 -23 0 -20 4
4 3 23 7 43 8 58 4 76 9 80 21 2 7 8 10 13 6 5 -3 9 0 9 6 0 7 -7 10 -15 6 -8
-3 -15 -1 -15 3 0 5 7 12 16 15 8 3 13 10 10 15 -4 5 2 8 11 6 10 -2 21 -4 25
-4 4 -1 5 -9 2 -18 -5 -15 -4 -15 4 -3 7 9 7 18 1 26 -6 8 -3 16 8 25 17 13
17 13 3 -5 -14 -18 -13 -19 5 -12 23 8 25 9 44 7 11 -1 11 -4 0 -18 -13 -16
-12 -17 4 -4 17 13 17 15 0 35 -16 19 -16 19 -1 7 11 -8 28 -11 43 -7 20 5 23
3 18 -11 -3 -10 7 -1 23 19 16 21 35 37 42 38 6 0 12 4 12 8 0 4 -6 14 -12 22
-11 12 -10 12 4 1 14 -10 18 -9 26 6 6 10 14 14 18 10 5 -5 2 -12 -6 -17 -7
-5 -15 -16 -16 -24 -1 -9 2 -14 7 -10 5 3 7 10 3 15 -8 13 29 7 38 -6 5 -6 8
-5 8 3 0 7 5 10 12 6 7 -5 8 -3 2 7 -12 20 -14 38 -3 45 5 3 9 2 8 -3 -3 -18
2 -33 11 -33 5 0 6 7 3 17 -4 11 -3 14 5 9 7 -4 12 -2 12 6 0 9 3 9 10 -2 8
-12 12 -13 19 -2 7 11 9 10 14 -3 4 -9 3 -13 -3 -10 -6 3 -7 -1 -4 -10 6 -14
8 -13 21 5 8 11 11 26 8 33 -4 6 1 3 10 -8 14 -17 17 -18 25 -5 7 10 10 11 10
3 0 -7 5 -13 11 -13 6 0 9 6 6 13 -3 9 2 13 16 11 12 -1 26 -3 30 -3 5 -1 6
-5 3 -9 -3 -5 1 -9 9 -9 12 0 12 4 -2 20 -20 23 -3 16 32 -12 19 -15 19 -15 5
3 -14 18 -13 19 8 14 12 -4 20 -2 16 3 -3 5 0 9 6 9 6 0 8 5 5 10 -4 6 -1 9 7
8 7 -2 12 3 10 10 -1 8 2 11 7 8 5 -4 12 2 14 11 4 17 5 17 6 1 0 -10 6 -18
11 -18 6 0 10 8 10 18 1 16 1 16 11 -1 8 -14 14 -15 24 -7 10 8 15 8 21 -1 5
-8 3 -9 -6 -4 -9 5 -11 4 -6 -4 5 -8 12 -9 19 -3 7 5 20 8 30 7 9 -2 15 1 11
6 -3 5 0 9 6 9 6 0 8 5 4 12 -4 7 -3 8 5 4 6 -4 9 -11 6 -16 -3 -5 -1 -11 4
-14 5 -4 12 -2 15 3 4 5 18 8 31 5 14 -2 25 0 25 5 0 5 -13 7 -29 6 -17 -1
-32 3 -34 10 -3 6 1 12 9 12 8 0 14 -3 14 -7 0 -4 7 -7 15 -7 10 0 14 6 10 16
-3 9 4 5 15 -9 17 -21 19 -22 14 -5 -4 14 -3 16 4 7 5 -8 12 -13 16 -13 20 3
26 0 20 -11 -4 -7 -3 -10 1 -5 5 4 17 -1 28 -10 20 -18 20 -18 4 8 l-17 26 38
-2 c21 -1 42 -4 48 -7 5 -4 18 0 29 8 10 8 14 14 9 14 -6 0 -15 -5 -21 -11 -8
-8 -13 -7 -18 2 -5 7 -4 10 3 5 6 -3 15 1 20 10 5 9 12 15 15 15 18 -3 19 0 5
17 -19 21 -20 52 -1 45 7 -3 13 1 13 8 0 7 -3 9 -7 6 -3 -4 -12 -2 -19 4 -8 7
-14 6 -20 -2 -5 -8 -3 -9 6 -4 9 5 11 4 6 -4 -6 -9 -11 -9 -22 0 -16 13 -19
23 -4 14 6 -3 10 1 10 10 0 9 -4 13 -10 10 -5 -3 -10 -2 -10 3 0 5 -9 12 -20
15 -14 4 -20 14 -20 34 0 22 -2 25 -10 13 -13 -21 -13 -3 1 22 6 11 7 18 2 15
-4 -2 -17 -1 -28 4 -19 7 -19 8 3 8 12 1 22 5 22 10 0 4 -11 7 -25 6 -17 -2
-23 0 -18 8 12 19 12 38 0 30 -7 -4 -8 0 -3 13 6 15 5 16 -5 7 -9 -9 -9 -16
-1 -26 9 -11 8 -14 -3 -14 -8 0 -12 3 -10 7 2 3 0 12 -5 20 -5 9 -4 20 3 29 9
11 9 13 0 8 -6 -4 -13 -4 -16 0 -2 5 -2 2 0 -5 2 -8 -4 -12 -14 -10 -11 2 -17
13 -17 34 -1 17 -7 38 -13 46 -7 8 -11 17 -8 19 2 3 -4 5 -14 5 -13 0 -17 -5
-13 -16 5 -12 2 -11 -12 3 -10 9 -23 14 -29 10 -7 -4 -5 2 3 12 14 17 13 18
-2 13 -17 -7 -20 14 -3 29 4 4 5 2 0 -6 -5 -8 -4 -12 1 -9 5 3 15 0 22 -8 10
-10 10 -14 1 -14 -7 0 -10 -2 -7 -5 3 -3 13 -3 22 1 13 5 12 9 -11 27 -15 12
-36 20 -48 19 -19 -4 -19 -3 -1 11 15 11 16 16 6 22 -9 5 -11 4 -6 -3 4 -7 1
-12 -8 -12 -9 0 -16 -5 -16 -12 0 -6 -3 -8 -6 -5 -4 4 -1 13 5 21 8 10 9 16 1
21 -6 3 -8 11 -5 16 3 5 -2 6 -11 2 -16 -6 -15 -7 2 -20 10 -7 13 -13 7 -13
-5 0 -18 9 -28 20 -10 11 -21 17 -26 15 -13 -9 -22 16 -10 28 20 20 11 30 -11
11 -12 -10 -18 -14 -15 -7 4 6 2 15 -4 18 -5 4 -8 14 -5 22 4 11 0 13 -17 9
-12 -3 -16 -3 -10 0 10 4 10 9 -1 20 -17 17 -30 19 -20 2 4 -7 3 -8 -5 -4 -8
6 -9 12 -2 20 11 14 5 26 -13 26 -6 0 -4 -5 4 -11 13 -9 13 -10 0 -6 -9 2 -14
14 -12 27 2 20 0 21 -15 9 -14 -12 -16 -12 -8 0 6 11 4 13 -7 9 -8 -4 -22 2
-32 13 -9 11 -21 17 -27 14 -5 -4 -8 -1 -7 7 2 7 -3 12 -10 10 -8 -1 -11 2 -8
7 7 11 76 -30 69 -41 -8 -15 5 -8 18 9 8 9 9 14 4 11 -6 -4 -17 -3 -25 3 -10
6 -11 9 -2 9 6 0 12 5 12 11 0 8 -4 8 -15 -1 -12 -10 -18 -9 -31 4 -9 10 -25
15 -38 11 -11 -2 -15 -2 -8 1 6 3 9 11 5 17 -4 7 0 8 13 3 14 -5 16 -4 7 5 -6
6 -17 8 -25 3 -19 -12 -39 -14 -32 -3 3 5 9 7 14 4 10 -6 4 35 -6 44 -4 3 -5
-2 -1 -11 6 -17 -15 -32 -28 -20 -4 4 -12 7 -18 7 -7 1 -11 6 -10 13 2 7 -5
12 -15 12 -14 0 -15 2 -2 10 9 6 10 10 3 10 -6 0 -15 -5 -18 -10 -4 -6 -10 -8
-15 -5 -5 3 -11 -3 -13 -12 -3 -10 -4 -6 -4 9 1 22 4 25 17 15 12 -9 13 -9 3
2 -6 7 -10 19 -9 25 2 6 1 8 -1 3 -3 -4 -10 -4 -15 -1 -7 4 -8 2 -4 -4 4 -7 2
-12 -3 -12 -6 0 -11 5 -11 11 0 5 -4 7 -10 4 -5 -3 -10 -2 -10 4 0 5 -9 8 -20
6 -11 -2 -18 0 -15 5 3 5 -1 22 -10 37 l-16 28 6 -35 c3 -23 2 -28 -3 -16 -8
18 -20 23 -64 28 -17 2 -22 11 -19 31 0 4 -4 7 -9 7 -6 0 -10 -8 -8 -17 2 -10
-1 -18 -7 -18 -5 0 -17 -4 -25 -10 -13 -8 -13 -7 -1 8 7 9 18 14 24 10 6 -3 7
-1 3 5 -4 6 -14 8 -24 5 -15 -6 -16 -5 -2 13 14 17 13 18 -1 7 -12 -10 -18
-10 -28 0 -11 10 -11 7 -1 -13 l13 -25 -23 20 c-25 22 -29 23 -42 3 -6 -9 -7
-6 -3 10 5 16 2 22 -9 22 -10 0 -13 -6 -9 -17 3 -10 3 -15 -2 -11 -4 4 -8 18
-9 30 -1 19 -6 22 -28 20 -17 -2 -33 4 -47 19 -19 20 -20 21 -17 3 3 -14 -2
-20 -14 -20 -10 0 -17 4 -14 7 2 4 -5 14 -16 22 -11 8 -18 20 -15 28 7 19 -65
25 -77 7 -5 -8 -8 -9 -8 -2 0 7 -19 12 -45 12 -25 1 -43 -3 -40 -8 3 -5 0 -12
-6 -16 -8 -4 -9 -3 -5 5 11 17 -22 25 -41 10 -9 -8 -14 -9 -10 -3 7 13 -86 14
-109 1z m21 -7 c-3 -5 -12 -10 -18 -10 -7 0 -6 4 3 10 19 12 23 12 15 0z m297
-8 c-7 -2 -9 -9 -5 -15 3 -7 2 -8 -2 -4 -16 14 -14 36 3 29 10 -4 12 -7 4 -10z
m-224 -24 c-2 -6 -10 -13 -16 -14 -7 -1 -8 0 -2 3 5 2 8 9 4 14 -3 5 0 9 6 9
7 0 10 -5 8 -12z m127 2 c3 -6 -1 -7 -9 -4 -18 7 -21 14 -7 14 6 0 13 -4 16
-10z m115 -10 c0 -5 -5 -10 -11 -10 -5 0 -7 5 -4 10 3 6 8 10 11 10 2 0 4 -4
4 -10z m143 -35 c-3 -9 -8 -14 -10 -11 -3 3 -2 9 2 15 9 16 15 13 8 -4z m-529
-14 c-9 -9 -34 -9 -34 -1 0 5 9 8 20 7 10 -1 17 -3 14 -6z m606 -35 c0 -3 -4
-8 -10 -11 -5 -3 -10 -1 -10 4 0 6 5 11 10 11 6 0 10 -2 10 -4z m-860 -26
c-12 -22 -21 -26 -17 -7 2 10 17 26 25 27 1 0 -2 -9 -8 -20z m1130 -76 c0 -2
-7 -4 -15 -4 -8 0 -15 4 -15 10 0 5 7 7 15 4 8 -4 15 -8 15 -10z m-1459 -107
c-6 -8 -7 -18 -3 -22 4 -5 1 -5 -6 -1 -10 6 -10 11 -1 22 6 8 14 14 16 14 3 0
0 -6 -6 -13z m-311 -333 c0 -7 -27 -34 -34 -34 -4 0 -1 9 6 20 12 19 28 27 28
14z m2360 -39 c7 -9 8 -15 2 -15 -5 0 -12 7 -16 15 -3 8 -4 15 -2 15 2 0 9 -7
16 -15z m47 -107 c-3 -8 -6 -5 -6 6 -1 11 2 17 5 13 3 -3 4 -12 1 -19z m-2729
-323 c-3 -3 -9 2 -12 12 -6 14 -5 15 5 6 7 -7 10 -15 7 -18z m2572 21 c0 -2
-7 -7 -16 -10 -8 -3 -12 -2 -9 4 6 10 25 14 25 6z m44 -18 c-4 -6 -10 -5 -15
3 -7 12 -9 12 -9 0 0 -8 -3 -12 -6 -8 -10 10 6 26 21 21 8 -4 12 -11 9 -16z
m-176 -43 c-3 -3 -9 2 -12 12 -6 14 -5 15 5 6 7 -7 10 -15 7 -18z m-295 -58
c3 -8 -1 -14 -8 -14 -7 0 -11 6 -8 14 3 7 6 13 8 13 2 0 5 -6 8 -13z m-2223
-17 c0 -5 -4 -10 -10 -10 -5 0 -10 5 -10 10 0 6 5 10 10 10 6 0 10 -4 10 -10z
m2118 -36 c1 -1 -5 -7 -15 -15 -12 -10 -15 -10 -9 -1 4 7 2 20 -6 30 -12 16
-11 16 7 2 11 -8 21 -15 23 -16z m-2163 -63 c-6 -5 -25 10 -25 20 0 5 6 4 14
-3 8 -7 12 -15 11 -17z m1925 -5 c0 -2 -8 -10 -17 -17 -16 -13 -17 -12 -4 4
13 16 21 21 21 13z m3 -40 c6 -15 -17 -16 -30 -1 -4 4 -2 5 5 1 6 -4 12 -2 12
3 0 15 7 14 13 -3z m-2003 -68 c0 -4 -5 -8 -11 -8 -5 0 -7 -6 -3 -12 4 -7 3
-9 -1 -5 -15 13 -14 34 1 34 8 0 14 -4 14 -9z m1777 -28 c0 -19 -4 -27 -10
-21 -5 5 -6 18 -2 30 9 29 12 26 12 -9z m-113 -79 c3 -5 -5 -16 -19 -25 -17
-11 -26 -13 -31 -4 -4 7 -3 8 4 4 6 -4 17 2 24 14 15 23 15 23 22 11z m-89
-71 c3 -6 -1 -7 -9 -4 -18 7 -21 14 -7 14 6 0 13 -4 16 -10z m-275 -210 c0 -5
-5 -10 -11 -10 -5 0 -7 5 -4 10 3 6 8 10 11 10 2 0 4 -4 4 -10z m-75 -92 c-9
-6 -19 -7 -22 -4 -4 3 -1 6 6 6 7 0 9 4 6 10 -4 6 1 7 11 3 15 -6 15 -7 -1
-15z m-1505 -42 c0 -3 -4 -8 -10 -11 -5 -3 -10 -1 -10 4 0 6 5 11 10 11 6 0
10 -2 10 -4z m1407 -80 c0 -8 -6 -12 -15 -9 -11 5 -11 7 0 14 7 5 13 9 14 9 0
0 1 -6 1 -14z m-1518 -89 c0 -9 -2 -8 -6 1 -2 6 -10 9 -15 6 -7 -4 -8 -2 -4 5
9 13 26 5 25 -12z m1420 -50 c-11 -11 -23 -16 -27 -12 -4 3 1 11 11 17 15 8
16 12 5 25 -12 15 -11 15 9 2 l22 -13 -20 -19z m-1559 -207 c0 -5 -2 -10 -4
-10 -3 0 -8 5 -11 10 -3 6 -1 10 4 10 6 0 11 -4 11 -10z m1420 0 c0 -5 -5 -10
-11 -10 -5 0 -7 5 -4 10 3 6 8 10 11 10 2 0 4 -4 4 -10z m-83 -169 c-1 -15 -4
-17 -14 -9 -7 5 -10 14 -7 19 10 16 23 9 21 -10z m1813 -111 c0 -5 -5 -10 -11
-10 -5 0 -7 5 -4 10 3 6 8 10 11 10 2 0 4 -4 4 -10z m-1865 -39 c3 -5 2 -12
-3 -15 -5 -3 -9 1 -9 9 0 17 3 19 12 6z m-1498 -31 c1 -10 -2 -22 -7 -25 -5
-3 -7 0 -4 8 3 8 0 18 -5 22 -6 3 -9 11 -5 16 8 13 17 4 21 -21z m-112 -150
c-14 -15 -15 -23 -6 -34 10 -12 9 -14 -6 -11 -10 1 -17 9 -15 16 5 23 33 61
39 55 4 -3 -2 -15 -12 -26z m1560 -70 c3 -6 -1 -7 -9 -4 -18 7 -21 14 -7 14 6
0 13 -4 16 -10z m1982 -6 c-3 -3 -12 -4 -19 -1 -8 3 -5 6 6 6 11 1 17 -2 13
-5z m27 -20 c3 -8 2 -12 -4 -9 -6 3 -10 10 -10 16 0 14 7 11 14 -7z m46 6 c0
-16 -17 -20 -28 -7 -8 10 -6 13 9 14 10 1 19 -2 19 -7z m-3713 -102 c-3 -8 -6
-5 -6 6 -1 11 2 17 5 13 3 -3 4 -12 1 -19z m3050 3 c0 -11 -5 -18 -9 -15 -4 3
-5 11 -1 19 7 21 12 19 10 -4z m-7 -36 c7 -9 10 -18 7 -22 -8 -7 -37 15 -37
28 0 14 16 11 30 -6z m574 -73 c3 -5 -1 -9 -9 -9 -8 0 -12 4 -9 9 3 4 7 8 9 8
2 0 6 -4 9 -8z m-903 -65 c-13 -13 -26 -3 -16 12 3 6 11 8 17 5 6 -4 6 -10 -1
-17z m-41 3 c0 -5 -5 -10 -11 -10 -5 0 -7 5 -4 10 3 6 8 10 11 10 2 0 4 -4 4
-10z m2641 -23 c-13 -13 -26 -3 -16 12 3 6 11 8 17 5 6 -4 6 -10 -1 -17z
m-3665 -42 c1 -8 -2 -15 -6 -15 -5 0 -8 9 -7 20 1 21 10 18 13 -5z m2287 -12
c-5 -12 -3 -14 7 -8 8 5 11 4 6 -3 -4 -6 -13 -9 -22 -5 -10 4 -12 9 -4 18 5 6
6 16 2 20 -4 5 -2 5 5 1 7 -4 9 -14 6 -23z m1427 -64 c0 -14 -19 -19 -26 -8
-4 8 -3 9 4 5 7 -4 12 -2 12 3 0 6 -4 11 -8 11 -5 0 -9 7 -9 16 0 14 2 14 14
-2 7 -10 13 -21 13 -25z m-5494 -2 c0 -20 -5 -34 -13 -34 -7 0 -9 5 -5 11 4 6
7 19 8 29 3 41 10 37 10 -6z m3048 -5 c3 -5 -1 -9 -9 -9 -8 0 -12 4 -9 9 3 4
7 8 9 8 2 0 6 -4 9 -8z m-1204 -66 c0 -3 -4 -8 -10 -11 -5 -3 -10 -1 -10 4 0
6 5 11 10 11 6 0 10 -2 10 -4z m2251 -19 c-10 -9 -11 -8 -5 6 3 10 9 15 12 12
3 -3 0 -11 -7 -18z m339 -7 c-8 -5 -19 -10 -25 -10 -5 0 -3 5 5 10 8 5 20 10
25 10 6 0 3 -5 -5 -10z m-1385 -21 c2 -9 -3 -16 -11 -16 -10 0 -11 4 -3 13 7
8 6 14 -1 17 -6 3 -6 5 1 3 7 -1 13 -9 14 -17z m2165 -9 c0 -5 -5 -10 -11 -10
-5 0 -7 5 -4 10 3 6 8 10 11 10 2 0 4 -4 4 -10z m-39 -57 c13 -16 12 -17 -3
-4 -10 7 -18 15 -18 17 0 8 8 3 21 -13z m-2488 -49 c7 1 9 1 4 -1 -4 -3 -4 -9
-1 -15 4 -6 -3 -5 -15 2 -12 6 -19 16 -14 23 5 8 8 8 10 0 3 -7 10 -11 16 -9z
m1754 10 c-3 -3 -12 -4 -19 -1 -8 3 -5 6 6 6 11 1 17 -2 13 -5z m-1392 -62
c-3 -3 -11 0 -18 7 -9 10 -8 11 6 5 10 -3 15 -9 12 -12z m1030 8 c-3 -5 0 -10
7 -11 10 0 11 -2 0 -6 -9 -3 -10 -9 -3 -17 8 -9 7 -13 -3 -13 -8 0 -12 10 -10
26 2 31 2 31 10 31 3 0 2 -4 -1 -10z m-2132 -19 c4 -1 7 -7 7 -15 0 -7 7 -19
15 -26 8 -7 15 -18 15 -24 0 -6 -5 -4 -10 4 -6 10 -10 11 -10 3 0 -7 -4 -13
-9 -13 -6 0 -8 9 -6 19 2 11 -3 27 -12 38 -13 16 -14 16 -9 1 7 -23 3 -23 -17
0 -18 20 -21 19 36 13z m3053 -46 c-2 -14 -16 -22 -16 -10 0 3 0 10 0 15 0 6
4 10 9 10 5 0 8 -7 7 -15z m-5103 -80 c-3 -9 -8 -14 -10 -11 -3 3 -2 9 2 15 9
16 15 13 8 -4z m-36 -14 c0 -11 -5 -18 -9 -15 -4 3 -5 11 -1 19 7 21 12 19 10
-4z m5051 5 c-7 -8 -15 -14 -18 -14 -3 0 -12 0 -20 -1 -12 -1 -13 -3 -1 -10 8
-5 9 -11 3 -15 -5 -3 -12 1 -16 9 -3 9 5 20 22 29 35 19 46 20 30 2z m678 -5
c0 -16 -3 -17 -14 -9 -12 10 -7 19 13 28 1 0 1 -9 1 -19z m-1511 -1 c-3 -5 0
-10 7 -11 10 0 11 -2 0 -6 -9 -3 -10 -9 -3 -17 8 -9 7 -13 -3 -13 -8 0 -12 10
-10 26 2 31 2 31 10 31 3 0 2 -4 -1 -10z m20 -88 c5 -13 2 -13 -15 3 -21 19
-29 8 -8 -13 9 -9 9 -12 -4 -12 -10 0 -14 8 -13 23 3 28 2 27 19 21 8 -3 17
-13 21 -22z m-2002 -7 c-7 -21 -12 -19 -10 4 0 11 5 18 9 15 4 -3 5 -11 1 -19z
m952 7 c-3 -3 -11 0 -18 7 -9 10 -8 11 6 5 10 -3 15 -9 12 -12z m-3168 -7 c0
-8 -4 -12 -9 -9 -5 3 -6 10 -3 15 9 13 12 11 12 -6z m5720 -1 c-3 -3 -12 -4
-19 -1 -8 3 -5 6 6 6 11 1 17 -2 13 -5z m-13 -30 c3 -8 2 -12 -4 -9 -6 3 -10
10 -10 16 0 14 7 11 14 -7z m-3452 -8 c7 4 8 2 4 -4 -4 -6 -13 -9 -21 -6 -8 4
-12 11 -8 17 5 8 8 7 11 -1 2 -7 9 -9 14 -6z m1950 -3 c-6 -2 -9 -10 -6 -15 4
-7 2 -8 -5 -4 -13 9 -5 26 12 25 9 0 8 -2 -1 -6z m-1387 -23 c-3 -5 -12 -10
-18 -10 -7 0 -6 4 3 10 19 12 23 12 15 0z m1740 -19 c3 -5 2 -12 -3 -15 -5 -3
-9 1 -9 9 0 17 3 19 12 6z m-4559 -36 c-1 -8 -5 -17 -8 -21 -5 -4 -4 16 1 34
3 9 9 -1 7 -13z m4620 -7 c3 -4 -1 -5 -10 -4 -8 1 -18 5 -22 8 -3 4 1 5 10 4
8 -1 18 -5 22 -8z m-4616 -38 c0 -5 -2 -10 -4 -10 -3 0 -8 5 -11 10 -3 6 -1
10 4 10 6 0 11 -4 11 -10z m4175 -118 c-3 -3 -11 0 -18 7 -9 10 -8 11 6 5 10
-3 15 -9 12 -12z m-1399 -4 c4 -7 3 -10 -1 -5 -5 4 -16 -4 -25 -17 l-16 -25
-13 22 c-8 12 -10 19 -6 15 4 -4 17 -1 29 7 25 18 23 18 32 3z m1084 -43 c5 3
12 0 16 -7 4 -7 4 -10 -1 -6 -4 4 -13 4 -19 -2 -8 -6 -12 -2 -13 13 0 12 1 16
4 9 3 -6 9 -10 13 -7z m317 0 c0 -8 -4 -12 -9 -9 -5 3 -6 10 -3 15 9 13 12 11
12 -6z m-690 -11 c-3 -3 -12 -4 -19 -1 -8 3 -5 6 6 6 11 1 17 -2 13 -5z m618
-24 c-3 -5 -12 -10 -18 -10 -7 0 -6 4 3 10 19 12 23 12 15 0z m-660 -61 c-5
-16 -4 -19 5 -14 9 6 11 4 5 -5 -6 -10 -11 -9 -22 5 -10 15 -10 20 0 27 18 11
19 10 12 -13z m-230 1 c3 -5 1 -10 -4 -10 -6 0 -11 5 -11 10 0 6 2 10 4 10 3
0 8 -4 11 -10z m72 -52 c-3 -8 -6 -5 -6 6 -1 11 2 17 5 13 3 -3 4 -12 1 -19z
m78 -6 c-6 -7 -45 9 -45 18 0 4 11 3 24 -3 14 -7 23 -13 21 -15z m2248 -17
c-3 -9 -8 -14 -10 -11 -3 3 -2 9 2 15 9 16 15 13 8 -4z m-5498 -73 c-3 -3 -11
0 -18 7 -9 10 -8 11 6 5 10 -3 15 -9 12 -12z m5489 -20 c3 -5 -1 -9 -9 -9 -8
0 -12 4 -9 9 3 4 7 8 9 8 2 0 6 -4 9 -8z m-3 -35 c-7 -7 -14 -8 -21 -1 -6 6
-2 10 12 11 16 2 18 -1 9 -10z m-5406 -36 c3 -5 2 -12 -3 -15 -5 -3 -9 1 -9 9
0 17 3 19 12 6z m5390 -22 c-4 -5 -12 -9 -18 -8 -9 0 -8 2 1 6 6 2 9 10 6 15
-4 7 -2 8 5 4 6 -4 9 -12 6 -17z m-5369 -46 c-3 -4 -6 -1 -6 5 0 7 -7 9 -17 5
-15 -6 -16 -5 -3 9 13 14 16 14 23 1 5 -8 6 -17 3 -20z m94 -135 c0 -4 -5 -8
-11 -8 -5 0 -8 -4 -4 -10 3 -5 13 -7 23 -4 14 5 15 4 2 -5 -11 -7 -19 -6 -32
6 -10 9 -16 19 -13 23 6 10 35 8 35 -2z m5050 -62 c0 -2 -8 -10 -17 -17 -16
-13 -17 -12 -4 4 13 16 21 21 21 13z m-4485 -346 c0 -22 -21 -22 -22 1 -1 12
3 19 10 16 7 -2 12 -10 12 -17z m3935 -10 c0 -5 -6 -12 -12 -16 -7 -4 -10 -4
-6 1 4 4 3 14 -4 22 -8 11 -7 12 6 7 9 -3 16 -10 16 -14z m-3853 -22 c-3 -8
-6 -5 -6 6 -1 11 2 17 5 13 3 -3 4 -12 1 -19z m3620 -22 c0 -8 -6 -12 -15 -9
-11 5 -11 7 0 14 7 5 13 9 14 9 0 0 1 -6 1 -14z m-114 -23 c-7 -2 -9 -12 -6
-21 4 -14 3 -15 -5 -2 -11 15 5 47 17 34 3 -4 1 -9 -6 -11z m-3179 -15 c-3 -4
-11 -5 -19 -1 -21 7 -19 12 4 10 11 0 18 -5 15 -9z m152 -10 c5 4 5 3 1 -2
-12 -15 -34 -15 -34 0 0 9 4 11 12 4 7 -5 16 -6 21 -2z m-69 -23 c0 -8 -4 -15
-8 -15 -11 0 -20 16 -12 24 11 11 20 7 20 -9z m140 -17 c2 -17 0 -19 -7 -8 -5
8 -6 18 -4 22 8 12 10 10 11 -14z m413 -8 c0 -5 -5 -10 -11 -10 -5 0 -7 5 -4
10 3 6 8 10 11 10 2 0 4 -4 4 -10z m51 -13 c-10 -9 -11 -8 -5 6 3 10 9 15 12
12 3 -3 0 -11 -7 -18z m106 16 c-4 -3 -1 -13 6 -22 11 -14 10 -14 -5 -2 -16
12 -16 31 -1 31 4 0 3 -3 0 -7z m287 -1 c2 -4 -4 -8 -14 -8 -10 0 -16 4 -14 8
3 4 9 8 14 8 5 0 11 -4 14 -8z m71 -12 c10 -11 16 -20 13 -20 -3 0 -13 9 -23
20 -10 11 -16 20 -13 20 3 0 13 -9 23 -20z m36 -3 c-10 -9 -11 -8 -5 6 3 10 9
15 12 12 3 -3 0 -11 -7 -18z m409 13 c0 -5 -5 -10 -11 -10 -5 0 -7 5 -4 10 3
6 8 10 11 10 2 0 4 -4 4 -10z m157 -5 c0 -8 -4 -12 -9 -9 -5 3 -6 10 -3 15 9
13 12 11 12 -6z m78 -3 c-3 -3 -11 0 -18 7 -9 10 -8 11 6 5 10 -3 15 -9 12
-12z m42 3 c0 -8 -4 -12 -9 -9 -5 3 -6 10 -3 15 9 13 12 11 12 -6z m120 0 c0
-8 -4 -12 -9 -9 -5 3 -6 10 -3 15 9 13 12 11 12 -6z m77 6 c3 -5 -2 -15 -12
-22 -15 -12 -16 -12 -5 2 7 9 10 19 6 22 -3 4 -4 7 0 7 3 0 8 -4 11 -9z m46
-1 c0 -5 -5 -10 -11 -10 -5 0 -7 5 -4 10 3 6 8 10 11 10 2 0 4 -4 4 -10z m76
-5 c-1 -8 -5 -17 -8 -21 -5 -4 -4 16 1 34 3 9 9 -1 7 -13z m121 0 c0 -8 -4
-12 -9 -9 -5 3 -6 10 -3 15 9 13 12 11 12 -6z m123 5 c0 -5 -5 -10 -11 -10 -5
0 -7 5 -4 10 3 6 8 10 11 10 2 0 4 -4 4 -10z m120 0 c0 -5 -5 -10 -11 -10 -5
0 -7 5 -4 10 3 6 8 10 11 10 2 0 4 -4 4 -10z m77 -9 c0 -11 -5 -18 -9 -15 -4
3 -5 11 -1 19 7 21 12 19 10 -4z m-2037 5 c0 -2 -8 -10 -17 -17 -16 -13 -17
-12 -4 4 13 16 21 21 21 13z m157 -11 c0 -8 -4 -12 -9 -9 -5 3 -6 10 -3 15 9
13 12 11 12 -6z m884 -2 c13 -16 12 -17 -3 -4 -17 13 -22 21 -14 21 2 0 10 -8
17 -17z m159 13 c0 -2 -8 -10 -17 -17 -16 -13 -17 -12 -4 4 13 16 21 21 21 13z
m237 -9 c0 -8 -6 -14 -14 -14 -9 0 -10 4 -2 14 6 7 12 13 14 13 1 0 2 -6 2
-13z m323 9 c0 -2 -8 -10 -17 -17 -16 -13 -17 -12 -4 4 13 16 21 21 21 13z
m241 -13 c13 -16 12 -17 -3 -4 -10 7 -18 15 -18 17 0 8 8 3 21 -13z m-2086 -2
c3 -5 2 -12 -3 -15 -5 -3 -9 1 -9 9 0 17 3 19 12 6z m1405 1 c0 -5 -7 -9 -15
-9 -8 0 -12 4 -9 9 3 4 9 8 15 8 5 0 9 -4 9 -8z m320 0 c0 -5 -7 -9 -15 -9 -8
0 -12 4 -9 9 3 4 9 8 15 8 5 0 9 -4 9 -8z m271 -15 c-10 -9 -11 -8 -5 6 3 10
9 15 12 12 3 -3 0 -11 -7 -18z"/>
<path d="M3076 5648 c3 -4 0 -8 -7 -8 -7 0 -5 -8 6 -20 20 -22 36 -26 33 -9
-5 21 21 20 32 0 11 -22 35 -28 44 -12 4 5 -3 7 -14 4 -11 -3 -21 0 -21 6 -3
26 -4 30 -12 38 -11 10 -67 12 -61 1z m59 -9 c3 -5 0 -6 -8 -3 -8 3 -18 0 -22
-5 -3 -6 -11 -9 -16 -5 -5 3 -7 9 -5 13 7 10 45 11 51 0z"/>
<path d="M2484 5548 c3 -12 0 -18 -9 -18 -8 0 -15 -5 -15 -10 0 -6 12 -4 29 4
16 9 32 12 35 8 4 -3 4 2 0 12 -5 14 -9 15 -15 4 -7 -11 -11 -10 -20 2 -9 13
-10 12 -5 -2z"/>
<path d="M3250 5549 c0 -5 5 -7 10 -4 6 3 10 8 10 11 0 2 -4 4 -10 4 -5 0 -10
-5 -10 -11z"/>
<path d="M3385 5520 c3 -4 14 -10 25 -13 11 -3 18 -2 15 3 -3 4 -14 10 -25 13
-11 3 -18 2 -15 -3z"/>
<path d="M3490 5469 c0 -5 5 -7 10 -4 6 3 10 8 10 11 0 2 -4 4 -10 4 -5 0 -10
-5 -10 -11z"/>
<path d="M3635 5419 c-4 -6 -5 -12 -2 -15 2 -3 7 2 10 11 7 17 1 20 -8 4z"/>
<path d="M3645 5391 c-3 -5 -2 -12 3 -15 5 -3 9 1 9 9 0 17 -3 19 -12 6z"/>
<path d="M2106 5344 c-6 -15 -4 -15 11 -3 10 7 20 15 22 16 2 2 -3 3 -11 3 -9
0 -19 -7 -22 -16z"/>
<path d="M1906 5174 c-3 -8 -11 -12 -17 -8 -7 4 -9 3 -6 -3 8 -13 -26 -40 -43
-35 -8 3 -12 2 -9 -2 10 -10 50 -16 44 -6 -3 4 12 22 32 39 24 20 32 31 21 31
-9 0 -19 -7 -22 -16z"/>
<path d="M3915 5151 c-3 -5 0 -13 6 -17 7 -4 9 -3 5 4 -3 5 0 13 6 15 9 4 10
6 1 6 -6 1 -14 -3 -18 -8z"/>
<path d="M3975 5110 c5 -9 2 -10 -14 -5 -14 4 -21 2 -21 -6 0 -7 3 -9 7 -6 3
4 12 2 18 -3 9 -8 14 -6 18 4 4 9 1 18 -5 22 -7 5 -8 2 -3 -6z"/>
<path d="M1726 4995 c-11 -8 -15 -15 -9 -15 6 0 16 7 23 15 16 19 11 19 -14 0z"/>
<path d="M1558 4778 c-10 -6 -10 -8 -1 -8 7 0 10 -7 6 -17 -3 -10 -4 -16 -2
-13 39 46 39 47 24 47 -8 0 -20 -4 -27 -9z"/>
<path d="M4283 4705 c0 -8 4 -12 9 -9 5 3 6 10 3 15 -9 13 -12 11 -12 -6z"/>
<path d="M4366 4602 c-3 -5 1 -9 9 -9 8 0 12 4 9 9 -3 4 -7 8 -9 8 -2 0 -6 -4
-9 -8z"/>
<path d="M1427 4589 c7 -7 15 -10 18 -7 3 3 -2 9 -12 12 -14 6 -15 5 -6 -5z"/>
<path d="M4200 4504 c0 -8 -4 -13 -9 -9 -5 3 -12 1 -15 -4 -4 -5 2 -8 11 -7
16 3 33 36 19 36 -3 0 -6 -7 -6 -16z"/>
<path d="M4270 4511 c0 -15 18 -22 25 -11 5 8 12 7 23 -2 14 -10 15 -10 5 2
-15 16 -53 24 -53 11z"/>
<path d="M4356 4512 c-3 -5 1 -9 9 -9 8 0 15 4 15 9 0 4 -4 8 -9 8 -6 0 -12
-4 -15 -8z"/>
<path d="M3931 4475 c-18 -23 -21 -38 -4 -17 15 18 21 20 31 10 9 -9 12 -9 12
1 0 8 7 10 20 6 11 -3 20 -2 20 3 0 12 -70 10 -79 -3z"/>
<path d="M4040 4470 c-8 -5 -10 -10 -5 -10 6 0 17 5 25 10 8 5 11 10 5 10 -5
0 -17 -5 -25 -10z"/>
<path d="M3795 4430 c-3 -5 -1 -10 4 -10 6 0 11 5 11 10 0 6 -2 10 -4 10 -3 0
-8 -4 -11 -10z"/>
<path d="M3650 4410 c0 -5 5 -10 11 -10 5 0 7 5 4 10 -3 6 -8 10 -11 10 -2 0
-4 -4 -4 -10z"/>
<path d="M3513 4353 c4 -3 -1 -12 -11 -20 -15 -13 -15 -13 6 -3 23 11 30 30
10 30 -6 0 -8 -3 -5 -7z"/>
<path d="M3363 4303 c-15 -5 -17 -23 -4 -23 5 0 11 7 15 15 3 8 4 15 3 14 -1
0 -8 -3 -14 -6z"/>
<path d="M1276 4281 c-4 -5 -2 -12 3 -15 5 -4 12 -2 15 3 4 5 2 12 -3 15 -5 4
-12 2 -15 -3z"/>
<path d="M3295 4281 c-3 -5 -2 -12 3 -15 5 -3 9 1 9 9 0 17 -3 19 -12 6z"/>
<path d="M1110 4026 c0 -2 7 -7 16 -10 8 -3 12 -2 9 4 -6 10 -25 14 -25 6z"/>
<path d="M2782 3968 c-15 -15 -16 -31 0 -26 6 2 12 12 14 21 3 20 2 21 -14 5z"/>
<path d="M1085 3950 c3 -5 8 -10 11 -10 2 0 4 5 4 10 0 6 -5 10 -11 10 -5 0
-7 -4 -4 -10z"/>
<path d="M1056 3911 c-3 -5 1 -11 9 -14 9 -4 12 -1 8 9 -6 16 -10 17 -17 5z"/>
<path d="M955 3770 c-3 -5 -1 -10 4 -10 6 0 11 5 11 10 0 6 -2 10 -4 10 -3 0
-8 -4 -11 -10z"/>
<path d="M2521 3738 c-7 -13 -10 -20 -6 -16 5 4 14 0 22 -10 13 -15 13 -15 3
6 -10 21 -7 26 13 23 5 -1 6 3 2 9 -10 15 -19 12 -34 -12z"/>
<path d="M915 3630 c-3 -5 -12 -7 -20 -3 -8 3 -15 3 -15 0 0 -13 30 -14 40 -1
7 8 10 14 7 14 -3 0 -8 -4 -12 -10z"/>
<path d="M868 3603 c7 -3 16 -2 19 1 4 3 -2 6 -13 5 -11 0 -14 -3 -6 -6z"/>
<path d="M2276 3383 c-6 -14 -5 -15 5 -6 7 7 10 15 7 18 -3 3 -9 -2 -12 -12z"/>
<path d="M625 3210 c-3 -6 1 -7 9 -4 18 7 21 14 7 14 -6 0 -13 -4 -16 -10z"/>
<path d="M555 3079 c-4 -5 2 -6 11 -2 10 4 15 2 11 -4 -3 -5 0 -10 7 -10 7 0
13 5 13 12 0 13 -34 17 -42 4z"/>
<path d="M2055 2991 c-3 -5 -2 -12 3 -15 5 -3 9 1 9 9 0 17 -3 19 -12 6z"/>
<path d="M3807 2989 c7 -7 15 -10 18 -7 3 3 -2 9 -12 12 -14 6 -15 5 -6 -5z"/>
<path d="M3016 2977 c3 -10 9 -15 12 -12 3 3 0 11 -7 18 -10 9 -11 8 -5 -6z"/>
<path d="M3069 2973 c-13 -16 -12 -17 4 -4 9 7 17 15 17 17 0 8 -8 3 -21 -13z"/>
<path d="M4316 2977 c3 -10 9 -15 12 -12 3 3 0 11 -7 18 -10 9 -11 8 -5 -6z"/>
<path d="M491 2964 c6 -7 16 -11 21 -8 11 7 3 17 -18 20 -12 2 -13 -1 -3 -12z"/>
<path d="M2950 2968 c0 -12 -7 -14 -40 -8 -22 4 -37 4 -35 -1 3 -4 1 -10 -5
-14 -6 -4 -8 -10 -6 -14 3 -4 -2 -8 -10 -8 -10 0 -11 4 -4 11 5 5 10 14 10 19
0 11 -21 -12 -38 -42 -8 -13 -9 -20 -3 -16 6 3 11 -1 11 -9 0 -9 6 -16 13 -16
8 0 9 -3 1 -8 -13 -8 -15 -42 -2 -42 4 0 8 5 8 12 0 6 2 9 5 6 8 -7 -6 -39
-14 -34 -4 3 -7 -4 -7 -15 0 -10 4 -19 8 -19 4 0 8 6 8 14 0 7 9 16 20 19 11
3 20 1 20 -3 0 -5 -7 -10 -15 -12 -8 -2 4 -11 25 -20 22 -9 37 -12 34 -6 -5 8
-1 9 10 5 10 -4 20 -7 22 -7 3 0 2 -6 -2 -12 -5 -8 -1 -7 10 2 24 19 60 25 50
8 -6 -9 -3 -9 9 1 9 7 15 17 12 21 -3 5 -1 11 4 14 5 4 8 -5 6 -19 -2 -25 -1
-25 21 -10 30 19 40 19 24 0 -7 -9 -10 -18 -6 -22 3 -3 6 -1 6 6 0 8 10 11 30
7 17 -2 28 0 25 4 -3 5 -1 11 5 15 6 4 7 11 4 17 -4 7 -2 8 4 4 6 -4 9 -14 6
-24 -5 -14 -4 -15 5 -2 9 13 11 13 11 0 0 -11 4 -9 13 5 6 11 12 23 13 28 1 4
2 8 4 10 8 10 6 37 -3 34 -7 -2 -11 -12 -10 -22 1 -12 -2 -14 -10 -6 -7 7 -6
15 3 26 10 12 10 15 -1 15 -11 0 -11 2 -1 9 7 4 12 12 11 17 -4 17 13 44 25
37 6 -3 7 -2 3 3 -5 5 -13 10 -18 10 -5 1 -13 2 -19 3 -5 0 -10 8 -10 16 0 18
-1 18 -34 5 -19 -7 -24 -6 -20 4 3 7 -2 13 -11 13 -10 0 -14 -6 -10 -15 4 -12
3 -13 -10 -2 -9 7 -15 8 -15 2 0 -14 -33 -8 -38 7 -3 8 -9 6 -17 -7 -17 -23
-53 -22 -71 3 -11 15 -14 16 -14 3z m260 -173 c0 -12 -19 -12 -23 0 -4 9 -1
12 9 8 7 -3 14 -7 14 -8z m-241 -2 c12 9 13 9 7 0 -9 -16 6 -17 20 -3 7 7 11
6 11 -5 0 -8 -3 -13 -5 -10 -3 3 -11 0 -19 -6 -10 -9 -13 -8 -13 0 0 7 -4 10
-9 7 -5 -3 -15 2 -22 12 -11 14 -11 15 1 5 11 -10 17 -10 29 0z m65 -9 c3 -8
2 -12 -4 -9 -6 3 -10 10 -10 16 0 14 7 11 14 -7z m-109 -12 c-3 -3 -11 0 -18
7 -9 10 -8 11 6 5 10 -3 15 -9 12 -12z m219 3 c-4 -8 -11 -12 -16 -9 -6 4 -5
10 3 15 19 12 19 11 13 -6z"/>
<path d="M2975 2970 c-7 -11 -8 -11 23 -14 27 -3 28 0 3 14 -13 7 -22 7 -26 0z"/>
<path d="M3747 2965 c3 -8 9 -12 14 -9 12 7 11 11 -5 17 -10 4 -13 1 -9 -8z"/>
<path d="M4275 2969 c-4 -6 -13 -8 -19 -6 -7 3 -13 -1 -13 -8 0 -11 5 -11 21
-4 20 10 21 10 2 -5 -11 -9 -26 -16 -33 -16 -7 0 -13 -5 -13 -11 0 -5 -6 -7
-12 -3 -10 6 -10 5 -1 -7 9 -12 10 -18 1 -27 -8 -8 -7 -13 5 -18 11 -4 17 -17
17 -36 0 -22 4 -29 15 -25 8 4 17 2 21 -4 3 -6 12 -8 20 -5 7 3 16 1 18 -3 9
-14 -6 -21 -25 -10 -14 7 -17 6 -13 -4 3 -8 15 -13 27 -12 12 1 28 3 36 4 11
1 11 4 1 15 -10 13 -8 13 14 3 14 -7 26 -16 26 -20 0 -5 4 -6 10 -2 5 3 7 13
4 23 -4 10 -2 13 3 7 11 -13 47 -19 39 -7 -7 12 13 10 32 -1 7 -5 9 -14 5 -20
-3 -7 3 -4 14 6 19 17 33 14 33 -7 0 -6 -4 -5 -9 3 -6 9 -11 10 -15 2 -7 -11
-4 -12 42 -14 20 0 26 4 24 16 -2 14 1 15 22 7 17 -6 27 -6 32 2 4 6 3 8 -2 5
-6 -3 -16 -2 -24 4 -12 7 -12 9 3 9 15 0 17 6 13 30 -2 17 0 30 6 30 6 0 7 -8
4 -17 -4 -10 -3 -14 1 -9 4 4 8 20 9 36 0 21 -4 26 -15 22 -8 -3 -12 -1 -8 5
9 14 -2 45 -13 38 -4 -2 -7 5 -6 17 1 12 -6 22 -15 23 -12 2 -15 -3 -12 -19 4
-21 4 -21 -9 -1 -13 21 -50 27 -65 11 -5 -5 -3 -6 5 -2 6 4 12 2 12 -3 0 -13
-17 -15 -24 -2 -4 7 -108 6 -133 -1 -4 -1 -18 3 -30 10 -15 8 -24 9 -28 1z
m23 -24 c-3 -3 -9 2 -12 12 -6 14 -5 15 5 6 7 -7 10 -15 7 -18z m-54 -46 c-3
-5 -10 -7 -15 -3 -5 3 -7 10 -3 15 3 5 10 7 15 3 5 -3 7 -10 3 -15z"/>
<path d="M4595 2960 c-6 -9 11 -50 21 -50 2 0 0 9 -6 20 -6 11 -8 25 -5 30 3
6 4 10 1 10 -3 0 -8 -4 -11 -10z"/>
<path d="M3516 2948 c3 -5 10 -6 15 -3 13 9 11 12 -6 12 -8 0 -12 -4 -9 -9z"/>
<path d="M3896 2921 c-4 -5 3 -7 14 -4 23 6 26 13 6 13 -8 0 -17 -4 -20 -9z"/>
<path d="M2801 2866 c-8 -10 -9 -16 -1 -21 6 -4 9 -1 8 7 -2 7 3 12 10 10 8
-1 11 2 7 8 -8 13 -10 13 -24 -4z"/>
<path d="M3216 2872 c-3 -5 1 -9 9 -9 8 0 12 4 9 9 -3 4 -7 8 -9 8 -2 0 -6 -4
-9 -8z"/>
<path d="M3909 2853 c-13 -16 -12 -17 4 -4 16 13 21 21 13 21 -2 0 -10 -8 -17
-17z"/>
<path d="M435 2850 c-3 -5 -1 -10 4 -10 6 0 11 5 11 10 0 6 -2 10 -4 10 -3 0
-8 -4 -11 -10z"/>
<path d="M4610 2809 c0 -5 5 -7 10 -4 6 3 10 8 10 11 0 2 -4 4 -10 4 -5 0 -10
-5 -10 -11z"/>
<path d="M1964 2792 c2 -9 8 -17 15 -18 8 -2 8 -1 0 3 -8 4 -8 7 1 13 9 5 8 9
-3 13 -10 4 -14 0 -13 -11z"/>
<path d="M4239 2783 c-13 -16 -12 -17 4 -4 9 7 17 15 17 17 0 8 -8 3 -21 -13z"/>
<path d="M4435 2779 c-4 -5 -14 -8 -22 -5 -8 3 -11 1 -8 -4 3 -6 1 -10 -4 -10
-6 0 -11 -5 -11 -10 0 -6 11 -3 24 5 23 15 25 15 28 -2 3 -15 5 -15 10 4 7 24
-6 41 -17 22z"/>
<path d="M2868 2763 c6 -2 10 -8 8 -12 -3 -4 4 -7 15 -7 19 0 19 1 3 13 -10 7
-23 13 -28 12 -6 0 -5 -3 2 -6z"/>
<path d="M4250 2761 c0 -6 4 -13 10 -16 6 -3 7 1 4 9 -7 18 -14 21 -14 7z"/>
<path d="M4350 2761 c0 -6 4 -13 10 -16 6 -3 7 1 4 9 -7 18 -14 21 -14 7z"/>
<path d="M4570 2766 c0 -2 8 -10 18 -17 15 -13 16 -12 3 4 -13 16 -21 21 -21
13z"/>
<path d="M1952 2740 c-5 -9 -7 -21 -4 -26 9 -12 35 -17 28 -5 -4 5 0 12 6 15
7 3 2 3 -12 0 l-25 -5 24 19 c15 12 18 19 8 19 -8 0 -19 -8 -25 -17z"/>
<path d="M4316 2752 c-3 -5 1 -9 9 -9 8 0 12 4 9 9 -3 4 -7 8 -9 8 -2 0 -6 -4
-9 -8z"/>
<path d="M3055 2730 c-3 -5 -1 -10 4 -10 6 0 11 5 11 10 0 6 -2 10 -4 10 -3 0
-8 -4 -11 -10z"/>
<path d="M4546 2728 c3 -5 10 -6 15 -3 13 9 11 12 -6 12 -8 0 -12 -4 -9 -9z"/>
<path d="M3961 2706 c-9 -10 -9 -16 -1 -21 6 -4 14 -4 17 -1 4 3 1 6 -7 6 -10
0 -10 3 0 15 7 8 10 15 7 15 -2 0 -10 -6 -16 -14z"/>
<path d="M4026 2668 c3 -4 9 -8 15 -8 5 0 9 4 9 8 0 5 -7 9 -15 9 -8 0 -12 -4
-9 -9z"/>
<path d="M4066 2651 c9 -9 34 -9 34 -1 0 5 -9 8 -20 7 -10 -1 -17 -3 -14 -6z"/>
<path d="M1946 2564 c-5 -14 -4 -15 9 -4 17 14 19 20 6 20 -5 0 -12 -7 -15
-16z"/>
<path d="M255 2539 c-4 -6 -5 -12 -2 -15 2 -3 7 2 10 11 7 17 1 20 -8 4z"/>
<path d="M1946 2523 c-6 -14 -5 -15 5 -6 7 7 10 15 7 18 -3 3 -9 -2 -12 -12z"/>
<path d="M4134 2503 c-4 -10 -8 -20 -8 -23 -1 -3 -5 -10 -9 -17 -4 -6 -2 -15
5 -19 7 -4 10 -4 6 1 -4 4 -2 15 4 23 12 13 22 52 14 52 -2 0 -7 -8 -12 -17z"/>
<path d="M1949 2453 c-13 -16 -12 -17 4 -4 9 7 17 15 17 17 0 8 -8 3 -21 -13z"/>
<path d="M3370 2466 c0 -2 8 -10 18 -17 15 -13 16 -12 3 4 -13 16 -21 21 -21
13z"/>
<path d="M4474 2403 c12 -22 43 -34 43 -18 0 8 -4 12 -9 9 -5 -3 -16 0 -25 8
-12 9 -15 9 -9 1z"/>
<path d="M1955 2390 c-16 -7 -17 -9 -3 -9 9 -1 20 4 23 9 7 11 7 11 -20 0z"/>
<path d="M4255 2391 c-3 -5 -2 -12 3 -15 5 -3 9 1 9 9 0 17 -3 19 -12 6z"/>
<path d="M4341 2393 c-1 -17 16 -25 25 -12 4 7 3 9 -4 5 -5 -3 -13 0 -15 6 -4
9 -6 10 -6 1z"/>
<path d="M5567 2389 c7 -7 15 -10 18 -7 3 3 -2 9 -12 12 -14 6 -15 5 -6 -5z"/>
<path d="M4550 2382 c0 -5 7 -9 15 -9 8 0 12 4 9 9 -3 4 -9 8 -15 8 -5 0 -9
-4 -9 -8z"/>
<path d="M180 2371 c0 -6 4 -13 10 -16 6 -3 7 1 4 9 -7 18 -14 21 -14 7z"/>
<path d="M3233 2355 c0 -8 4 -12 9 -9 5 3 6 10 3 15 -9 13 -12 11 -12 -6z"/>
<path d="M5648 2322 c20 -22 25 -21 16 2 -3 9 -12 16 -20 16 -11 0 -10 -4 4
-18z"/>
<path d="M5485 2310 c-3 -6 1 -7 9 -4 18 7 21 14 7 14 -6 0 -13 -4 -16 -10z"/>
<path d="M3215 2290 c3 -5 8 -10 11 -10 2 0 4 5 4 10 0 6 -5 10 -11 10 -5 0
-7 -4 -4 -10z"/>
<path d="M115 2170 c-3 -5 -1 -10 4 -10 6 0 11 5 11 10 0 6 -2 10 -4 10 -3 0
-8 -4 -11 -10z"/>
<path d="M3215 2170 c3 -5 8 -10 11 -10 2 0 4 5 4 10 0 6 -5 10 -11 10 -5 0
-7 -4 -4 -10z"/>
<path d="M90 2089 c0 -5 5 -7 10 -4 6 3 10 8 10 11 0 2 -4 4 -10 4 -5 0 -10
-5 -10 -11z"/>
<path d="M3218 2018 c5 -5 16 -8 23 -6 8 3 3 7 -10 11 -17 4 -21 3 -13 -5z"/>
<path d="M10 2009 c0 -5 5 -7 10 -4 6 3 10 8 10 11 0 2 -4 4 -10 4 -5 0 -10
-5 -10 -11z"/>
<path d="M5746 2012 c-3 -5 1 -9 9 -9 8 0 12 4 9 9 -3 4 -7 8 -9 8 -2 0 -6 -4
-9 -8z"/>
<path d="M3235 1979 c-4 -6 -5 -12 -2 -15 2 -3 7 2 10 11 7 17 1 20 -8 4z"/>
<path d="M2085 1970 c-16 -7 -17 -9 -3 -9 9 -1 20 4 23 9 7 11 7 11 -20 0z"/>
<path d="M5762 1968 c-15 -15 -15 -28 0 -28 6 0 8 3 5 7 -4 3 -2 12 4 20 14
16 7 17 -9 1z"/>
<path d="M8 1943 c6 -2 9 -10 6 -15 -4 -7 -2 -8 5 -4 13 9 5 26 -12 25 -9 0
-8 -2 1 -6z"/>
<path d="M4196 1917 c3 -10 9 -15 12 -12 3 3 0 11 -7 18 -10 9 -11 8 -5 -6z"/>
<path d="M3909 1903 c-13 -16 -12 -17 4 -4 9 7 17 15 17 17 0 8 -8 3 -21 -13z"/>
<path d="M3217 1899 c7 -7 15 -10 18 -7 3 3 -2 9 -12 12 -14 6 -15 5 -6 -5z"/>
<path d="M5759 1883 c-13 -16 -12 -17 4 -4 16 13 21 21 13 21 -2 0 -10 -8 -17
-17z"/>
<path d="M5755 1850 c-3 -6 1 -7 9 -4 18 7 21 14 7 14 -6 0 -13 -4 -16 -10z"/>
<path d="M2817 1836 c-5 -11 -3 -15 5 -10 8 5 9 2 5 -9 -3 -9 -1 -19 6 -23 7
-4 9 -4 5 1 -4 4 -3 17 3 28 7 12 7 17 1 13 -6 -3 -12 -1 -14 6 -3 7 -7 5 -11
-6z"/>
<path d="M3218 1778 c5 -5 16 -8 23 -6 8 3 3 7 -10 11 -17 4 -21 3 -13 -5z"/>
<path d="M4196 1757 c3 -10 9 -15 12 -12 3 3 0 11 -7 18 -10 9 -11 8 -5 -6z"/>
<path d="M3235 1739 c-4 -6 -5 -12 -2 -15 2 -3 7 2 10 11 7 17 1 20 -8 4z"/>
<path d="M3906 1728 c3 -5 10 -6 15 -3 13 9 11 12 -6 12 -8 0 -12 -4 -9 -9z"/>
<path d="M3500 1711 c0 -6 4 -13 10 -16 6 -3 7 1 4 9 -7 18 -14 21 -14 7z"/>
<path d="M4936 1703 c-6 -14 -5 -15 5 -6 7 7 10 15 7 18 -3 3 -9 -2 -12 -12z"/>
<path d="M2300 1696 c0 -2 8 -10 18 -17 15 -13 16 -12 3 4 -13 16 -21 21 -21
13z"/>
<path d="M4628 1693 c7 -3 16 -2 19 1 4 3 -2 6 -13 5 -11 0 -14 -3 -6 -6z"/>
<path d="M3905 1679 c-4 -6 -5 -12 -2 -15 2 -3 7 2 10 11 7 17 1 20 -8 4z"/>
<path d="M3217 1659 c7 -7 15 -10 18 -7 3 3 -2 9 -12 12 -14 6 -15 5 -6 -5z"/>
<path d="M3904 1644 c-18 -14 -18 -15 4 -4 12 6 22 13 22 15 0 8 -5 6 -26 -11z"/>
<path d="M4617 1654 c7 -3 10 -11 7 -19 -3 -7 4 -19 16 -25 15 -8 20 -8 16 -1
-4 6 -2 11 3 11 6 0 11 5 11 11 0 5 -4 8 -9 5 -5 -3 -14 1 -21 9 -7 8 -18 15
-24 14 -7 0 -7 -2 1 -5z m28 -24 c3 -5 1 -10 -4 -10 -6 0 -11 5 -11 10 0 6 2
10 4 10 3 0 8 -4 11 -10z"/>
<path d="M4800 1650 c-9 -6 -10 -10 -3 -10 6 0 15 5 18 10 8 12 4 12 -15 0z"/>
<path d="M4737 1626 c-5 -11 -3 -15 5 -10 8 5 9 1 4 -11 -7 -18 -6 -18 13 -1
18 16 20 36 5 36 -3 0 -2 -4 1 -10 3 -5 2 -10 -4 -10 -5 0 -11 5 -13 12 -3 7
-7 5 -11 -6z"/>
<path d="M3900 1505 c-9 -10 -9 -15 -1 -15 6 0 11 5 11 11 0 5 5 7 12 3 7 -4
8 -3 4 4 -9 15 -11 15 -26 -3z"/>
<path d="M5765 1510 c-3 -5 -3 -10 2 -10 4 0 2 -4 -6 -9 -9 -6 -10 -11 -2 -15
6 -4 11 -2 11 4 0 6 5 8 13 4 9 -6 9 -5 0 8 -7 8 -10 18 -6 21 3 4 4 7 0 7 -3
0 -9 -4 -12 -10z"/>
<path d="M5770 1450 c0 -5 5 -10 11 -10 5 0 7 5 4 10 -3 6 -8 10 -11 10 -2 0
-4 -4 -4 -10z"/>
<path d="M2720 1436 c0 -2 8 -10 18 -17 15 -13 16 -12 3 4 -13 16 -21 21 -21
13z"/>
<path d="M3215 1421 c-3 -5 -1 -13 5 -16 8 -5 7 -11 -1 -21 -10 -12 -9 -13 5
-8 18 7 21 20 6 29 -6 4 -8 11 -5 16 4 5 4 9 1 9 -3 0 -7 -4 -11 -9z"/>
<path d="M5755 1420 c3 -5 8 -10 11 -10 2 0 4 5 4 10 0 6 -5 10 -11 10 -5 0
-7 -4 -4 -10z"/>
<path d="M55 1399 c-5 -8 -4 -10 3 -5 12 7 15 -1 14 -46 0 -14 6 -29 14 -32
10 -4 13 -2 7 7 -4 6 -8 25 -9 40 -1 34 -18 55 -29 36z"/>
<path d="M30 1391 c0 -10 19 -25 25 -20 1 2 -3 10 -11 17 -8 7 -14 8 -14 3z"/>
<path d="M2680 1383 c0 -11 4 -13 13 -6 6 6 20 9 30 8 9 -2 17 0 17 4 0 5 -13
8 -30 9 -21 0 -30 -4 -30 -15z"/>
<path d="M4135 1370 c-3 -5 -1 -10 4 -10 6 0 11 5 11 10 0 6 -2 10 -4 10 -3 0
-8 -4 -11 -10z"/>
<path d="M5753 1361 c0 -11 5 -17 9 -15 5 3 6 9 3 14 -3 4 1 11 7 13 8 4 7 6
-4 6 -11 1 -16 -6 -15 -18z"/>
<path d="M36 1352 c-3 -5 1 -9 9 -9 8 0 12 4 9 9 -3 4 -7 8 -9 8 -2 0 -6 -4
-9 -8z"/>
<path d="M3959 1343 c-13 -16 -12 -17 4 -4 9 7 17 15 17 17 0 8 -8 3 -21 -13z"/>
<path d="M5747 1323 c-11 -11 -8 -21 9 -27 14 -5 15 -4 5 8 -9 11 -9 15 1 19
7 3 8 6 2 6 -6 1 -14 -2 -17 -6z"/>
<path d="M5711 1237 c2 -1 13 -9 24 -17 19 -14 19 -14 6 3 -7 9 -18 17 -24 17
-6 0 -8 -1 -6 -3z"/>
<path d="M5673 1157 c0 -8 6 -14 14 -14 9 0 10 4 2 14 -6 7 -12 13 -14 13 -1
0 -2 -6 -2 -13z"/>
<path d="M155 1079 c-4 -6 -4 -13 -1 -16 3 -4 6 -1 6 6 0 7 5 9 12 5 7 -4 8
-3 4 4 -9 15 -13 15 -21 1z"/>
<path d="M5530 870 c0 -5 5 -10 10 -10 6 0 10 5 10 10 0 6 -4 10 -10 10 -5 0
-10 -4 -10 -10z"/>
<path d="M370 770 c0 -6 7 -10 15 -10 8 0 15 2 15 4 0 2 -7 6 -15 10 -8 3 -15
1 -15 -4z"/>
<path d="M5316 664 c-8 -21 -8 -21 8 -21 8 0 11 8 8 19 -5 22 -8 23 -16 2z"/>
<path d="M496 642 c-2 -4 -1 -14 3 -21 6 -10 10 -9 14 3 6 16 -8 32 -17 18z"/>
<path d="M573 595 c0 -8 5 -11 10 -8 6 4 8 0 5 -9 -4 -9 0 -15 8 -15 19 0 18
11 -4 30 -15 14 -19 15 -19 2z"/>
<path d="M635 559 c-4 -5 -4 -13 -1 -16 3 -4 6 0 7 8 0 9 3 7 8 -4 4 -10 10
-17 13 -15 4 2 14 -6 23 -17 14 -19 15 -19 8 -1 -4 13 -3 17 5 12 7 -4 12 -14
12 -22 0 -8 5 -12 10 -9 6 3 10 1 10 -4 0 -6 5 -11 12 -11 7 0 -3 16 -22 35
-26 26 -37 32 -47 24 -10 -9 -13 -8 -13 4 0 20 -17 31 -25 16z"/>
<path d="M4925 450 c-3 -5 -1 -10 4 -10 6 0 11 5 11 10 0 6 -2 10 -4 10 -3 0
-8 -4 -11 -10z"/>
<path d="M5015 450 c3 -5 8 -10 11 -10 2 0 4 5 4 10 0 6 -5 10 -11 10 -5 0 -7
-4 -4 -10z"/>
<path d="M4886 432 c-2 -4 2 -18 11 -32 9 -16 12 -18 7 -5 -3 11 -7 26 -7 33
0 14 -4 15 -11 4z"/>
<path d="M4546 318 c3 -4 9 -8 15 -8 5 0 9 4 9 8 0 5 -7 9 -15 9 -8 0 -12 -4
-9 -9z"/>
<path d="M1296 293 c-6 -14 -5 -15 5 -6 7 7 10 15 7 18 -3 3 -9 -2 -12 -12z"/>
<path d="M1350 290 c0 -5 5 -10 11 -10 5 0 7 5 4 10 -3 6 -8 10 -11 10 -2 0
-4 -4 -4 -10z"/>
<path d="M4386 292 c-2 -4 5 -19 15 -32 l20 -25 -12 25 c-7 14 -12 28 -11 33
3 9 -5 9 -12 -1z"/>
<path d="M4333 276 c-3 -6 -3 -8 2 -4 4 4 14 3 22 -3 10 -9 13 -8 13 3 0 17
-28 20 -37 4z"/>
<path d="M1454 268 c-5 -7 -3 -8 6 -3 10 6 12 4 7 -9 -4 -10 -3 -15 3 -11 13
8 13 35 1 35 -6 0 -13 -5 -17 -12z"/>
<path d="M4194 269 c-23 -31 -11 -44 44 -46 28 0 52 3 52 9 0 5 -4 7 -8 4 -14
-8 -53 24 -45 37 4 8 1 7 -9 -1 -12 -9 -17 -10 -20 -1 -3 8 -7 7 -14 -2z m48
-27 c9 -9 6 -12 -14 -10 -15 1 -25 5 -22 9 2 4 -2 10 -8 13 -7 2 -3 4 10 2 12
-1 28 -8 34 -14z"/>
<path d="M4436 272 c-2 -4 4 -8 14 -8 10 0 16 4 14 8 -3 4 -9 8 -14 8 -5 0
-11 -4 -14 -8z"/>
<path d="M1506 244 c-9 -24 -7 -31 4 -14 9 13 11 13 20 0 11 -17 13 -10 4 14
-3 9 -10 16 -14 16 -4 0 -11 -7 -14 -16z"/>
<path d="M1386 229 c4 -8 30 -6 38 2 3 3 -5 5 -19 5 -13 0 -22 -3 -19 -7z"/>
</g>
</svg>
