<svg width="1600" height="1200" viewBox="0 0 1600 1200" fill="none" xmlns="http://www.w3.org/2000/svg">
<rect width="1600" height="849" fill="url(#paint0_linear_164_8)" fill-opacity="0.05"/>
<g filter="url(#filter0_f_164_8)">
<circle cx="300" cy="300" r="300" fill="url(#paint1_linear_164_8)" fill-opacity="0.3"/>
</g>
<path d="M1082.36 -1.00562e-05L1083.56 -1.01117e-05C1043.25 46.8326 1026.27 89.2432 1025.91 128.411L1025.91 129.61C1025.91 131.752 1025.96 133.875 1026.09 135.997C1026.09 136.41 1026.09 136.803 1026.13 137.196C1026.22 139.26 1026.4 141.303 1026.62 143.328C1026.62 143.76 1026.67 144.173 1026.75 144.586C1026.93 146.551 1027.2 148.516 1027.51 150.462C1027.55 150.894 1027.64 151.326 1027.69 151.739C1028 153.645 1028.35 155.532 1028.75 157.419C1028.84 157.812 1028.93 158.224 1029.02 158.637C1029.37 160.445 1029.81 162.253 1030.26 164.061C1030.35 164.474 1030.48 164.906 1030.57 165.319C1031.06 167.068 1031.54 168.817 1032.08 170.547C1032.21 170.999 1032.34 171.471 1032.47 171.923C1033.01 173.711 1033.63 175.499 1034.25 177.268C1034.43 177.759 1034.6 178.251 1034.78 178.742C1035.45 180.589 1036.11 182.437 1036.82 184.264C1036.82 184.284 1036.86 184.304 1036.86 184.343C1037.26 185.227 1037.62 186.112 1037.97 186.996C1069.37 261.402 1156.98 324.566 1243.14 386.629C1275.11 409.682 1306.06 431.988 1333.9 454.569C1334.3 454.864 1334.65 455.178 1335.01 455.492C1338.11 457.969 1341.08 460.445 1344.01 462.921C1344.45 463.236 1344.81 463.53 1345.12 463.845C1348.09 466.301 1350.97 468.778 1353.81 471.254C1354.16 471.529 1354.52 471.824 1354.83 472.119C1357.62 474.556 1360.37 476.993 1363.08 479.449C1363.43 479.744 1363.74 480.019 1364.05 480.314C1366.71 482.711 1369.28 485.129 1371.86 487.546C1372.17 487.821 1372.48 488.116 1372.74 488.411C1375.23 490.749 1377.66 493.108 1380.02 495.486C1380.37 495.781 1380.64 496.075 1380.95 496.37C1383.12 498.552 1385.29 500.753 1387.38 502.973C1387.69 503.268 1388 503.583 1388.31 503.897C1388.35 503.956 1388.44 504.035 1388.48 504.094C1390.39 506.118 1392.16 508.123 1393.72 510.107C1394.03 510.461 1394.29 510.815 1394.56 511.169C1395.93 512.957 1397.13 514.706 1398.19 516.475L1398.19 516.495C1398.64 517.163 1399.04 517.851 1399.39 518.519L1399.39 518.539C1402.72 524.631 1404.4 530.605 1404.4 536.521C1404.4 541.021 1403.43 545.482 1401.52 549.944C1395.76 563.327 1381.39 576.357 1357.62 589.819C1313.28 614.955 1242.96 637.654 1168.51 661.709C1141.86 670.317 1115.04 678.984 1088.88 687.906C1088.17 688.162 1087.46 688.397 1086.75 688.633C1085.99 688.889 1085.28 689.125 1084.57 689.38C1083.91 689.616 1083.2 689.852 1082.54 690.088C1082.05 690.245 1081.6 690.402 1081.12 690.559C1080.36 690.834 1079.56 691.11 1078.81 691.365C1078.59 691.444 1078.32 691.542 1078.1 691.621C1077.21 691.915 1076.37 692.21 1075.49 692.525C1075.4 692.564 1075.26 692.603 1075.13 692.642C1074.29 692.937 1073.45 693.232 1072.6 693.527C1072.47 693.566 1072.34 693.625 1072.2 693.664C1071.14 694.057 1070.03 694.431 1068.97 694.804L1068.92 694.824C1067.55 695.315 1066.17 695.807 1064.8 696.278C1064.67 696.337 1064.53 696.377 1064.4 696.435C1062.27 697.182 1060.14 697.949 1058.06 698.696C1058.06 698.696 1058.01 698.715 1057.97 698.735C1054.07 700.13 1050.21 701.545 1046.35 702.96C989.021 724.126 938.118 747.12 904.952 774.025C875.865 797.628 863.228 822.508 867.218 849L865.977 849C856.355 784.421 946.765 738.335 1055.84 698.892C1058.01 698.106 1060.19 697.32 1062.36 696.553C1063.87 696.003 1065.42 695.472 1066.93 694.922C1067.46 694.745 1067.99 694.549 1068.52 694.372C1068.79 694.274 1069.1 694.175 1069.37 694.077C1069.77 693.94 1070.12 693.802 1070.52 693.664C1070.87 693.547 1071.18 693.429 1071.54 693.291C1072.07 693.114 1072.65 692.918 1073.18 692.741C1073.49 692.623 1073.84 692.505 1074.15 692.387C1074.78 692.171 1075.44 691.955 1076.06 691.719L1076.11 691.719C1076.95 691.404 1077.79 691.11 1078.68 690.815C1078.81 690.775 1078.94 690.717 1079.08 690.677C1079.83 690.422 1080.58 690.147 1081.38 689.871C1081.78 689.734 1082.18 689.596 1082.58 689.478C1083.24 689.223 1083.95 689.007 1084.62 688.751C1085.28 688.535 1085.99 688.299 1086.66 688.063C1087.37 687.828 1088.08 687.572 1088.79 687.336C1114.9 678.414 1141.6 669.786 1167.85 661.316C1242.25 637.281 1312.53 614.582 1356.74 589.524C1397.26 566.55 1411.19 544.264 1399.26 520.445C1398.9 519.737 1398.55 519.03 1398.11 518.322C1397 516.278 1395.67 514.215 1394.12 512.151C1393.85 511.798 1393.63 511.464 1393.32 511.11C1391.68 508.968 1389.86 506.806 1387.77 504.624C1387.69 504.506 1387.55 504.408 1387.46 504.29C1387.29 504.094 1387.11 503.897 1386.89 503.701C1384.76 501.441 1382.59 499.2 1380.33 496.979C1380.06 496.685 1379.75 496.409 1379.44 496.115C1377.04 493.717 1374.61 491.319 1372.08 488.941C1371.81 488.647 1371.5 488.372 1371.19 488.077C1368.62 485.64 1366 483.222 1363.34 480.805C1363.03 480.51 1362.72 480.235 1362.37 479.96C1359.71 477.484 1356.91 475.027 1354.08 472.571C1353.77 472.276 1353.46 471.981 1353.06 471.686C1350.26 469.21 1347.34 466.734 1344.37 464.258C1344.05 463.943 1343.66 463.648 1343.26 463.334C1340.33 460.838 1337.32 458.342 1334.21 455.866C1333.86 455.551 1333.5 455.257 1333.1 454.962C1305.26 432.341 1274.22 409.996 1242.16 386.885C1154.54 323.721 1065.33 259.436 1035.36 183.341C1034.96 182.456 1034.65 181.572 1034.34 180.668C1033.81 179.391 1033.36 178.113 1032.96 176.836C1032.74 176.344 1032.56 175.833 1032.43 175.342C1031.9 173.789 1031.41 172.237 1030.92 170.684C1030.79 170.232 1030.66 169.78 1030.52 169.328C1030.04 167.697 1029.59 166.066 1029.19 164.415C1029.06 164.002 1028.97 163.59 1028.88 163.157C1028.44 161.428 1028.04 159.679 1027.69 157.93C1027.6 157.517 1027.51 157.104 1027.42 156.692C1027.07 154.844 1026.75 152.997 1026.44 151.15C1026.4 150.717 1026.31 150.304 1026.27 149.872C1025.96 147.966 1025.74 146.04 1025.51 144.094C1025.47 143.681 1025.42 143.249 1025.42 142.836C1025.2 140.832 1025.07 138.808 1024.98 136.783C1024.94 136.39 1024.89 135.997 1024.89 135.584C1024.8 133.482 1024.76 131.379 1024.76 129.256C1024.76 128.863 1024.76 128.451 1024.8 128.057C1025.2 88.9878 1042.23 46.695 1082.36 -1.00562e-05Z" fill="url(#paint2_linear_164_8)" fill-opacity="0.1"/>
<path d="M1043.03 -6.49071e-06L1044.27 -6.54822e-06C1009.99 44.8083 1000.77 85.352 1008.53 122.889C1008.62 123.341 1008.71 123.773 1008.84 124.206C1009.24 126.269 1009.77 128.313 1010.35 130.337C1010.44 130.789 1010.53 131.222 1010.7 131.654C1011.24 133.619 1011.81 135.565 1012.48 137.491C1012.61 137.962 1012.74 138.434 1012.92 138.906C1013.54 140.773 1014.25 142.64 1014.92 144.487C1015.14 144.979 1015.32 145.47 1015.54 145.961C1016.25 147.75 1017 149.538 1017.75 151.307C1017.98 151.798 1018.2 152.27 1018.42 152.761C1019.17 154.432 1019.97 156.102 1020.81 157.753C1021.08 158.303 1021.35 158.853 1021.66 159.384C1022.41 160.937 1023.21 162.47 1024.09 164.002C1024.41 164.651 1024.8 165.299 1025.16 165.948C1025.16 165.948 1025.16 165.948 1025.16 165.968C1025.96 167.402 1026.8 168.837 1027.69 170.272C1028.22 171.176 1028.75 172.08 1029.28 172.964C1030.88 175.539 1032.56 178.113 1034.34 180.668C1035.14 181.867 1035.98 183.066 1036.82 184.264C1036.82 184.284 1036.86 184.304 1036.86 184.343C1076.33 239.882 1148.03 289.525 1218.62 338.401C1270.27 374.169 1319.93 408.562 1355.23 444.113C1355.58 444.428 1355.89 444.762 1356.2 445.096C1358.64 447.572 1361.04 450.029 1363.3 452.525C1363.61 452.839 1363.92 453.173 1364.19 453.507C1366.49 455.984 1368.66 458.46 1370.75 460.956C1371.06 461.27 1371.32 461.604 1371.59 461.919C1373.63 464.375 1375.63 466.832 1377.49 469.308C1377.8 469.642 1378.06 469.977 1378.24 470.311C1380.15 472.728 1381.92 475.165 1383.56 477.602C1383.83 477.956 1384.05 478.309 1384.27 478.643C1385.91 481.002 1387.42 483.38 1388.84 485.758C1389.11 486.131 1389.33 486.524 1389.55 486.917C1390.88 489.079 1392.12 491.28 1393.27 493.462C1393.32 493.521 1393.32 493.579 1393.36 493.638C1393.58 494.051 1393.81 494.484 1393.98 494.896C1394.96 496.744 1395.76 498.571 1396.42 500.379C1396.73 501.126 1397 501.893 1397.22 502.639C1398.77 507.297 1399.48 511.837 1399.48 516.298C1399.48 517.045 1399.48 517.792 1399.39 518.519L1399.39 518.539C1399.39 519.187 1399.35 519.816 1399.26 520.445C1393.85 573.507 1285.08 613.422 1170.86 655.361C1143.24 665.502 1115.39 675.741 1088.61 686.295C1087.9 686.57 1087.19 686.845 1086.48 687.12C1085.91 687.356 1085.33 687.572 1084.75 687.808C1084.04 688.083 1083.38 688.358 1082.67 688.633C1082.36 688.751 1082.09 688.869 1081.78 688.987C1080.98 689.302 1080.19 689.636 1079.39 689.93C1079.34 689.97 1079.34 689.97 1079.3 689.97C1078.5 690.304 1077.75 690.618 1076.95 690.913C1076.82 690.972 1076.68 691.031 1076.55 691.09C1076.15 691.247 1075.75 691.404 1075.35 691.562C1075.26 691.562 1075.26 691.581 1075.26 691.601C1074.73 691.817 1074.2 692.033 1073.67 692.249C1073.27 692.407 1072.91 692.564 1072.56 692.721C1071.98 692.937 1071.41 693.173 1070.87 693.409C1070.56 693.507 1070.25 693.645 1069.99 693.763C1069.5 693.959 1069.01 694.156 1068.52 694.372C1067.81 694.647 1067.11 694.942 1066.4 695.237C1063.6 696.377 1060.81 697.536 1058.06 698.696C1058.06 698.696 1058.02 698.715 1057.97 698.735C1006.36 720.451 961.176 743.779 933.374 770.487C907.524 795.289 898.966 821.329 907.79 849L906.327 849C906.061 848.194 905.795 847.388 905.573 846.583C897.946 819.757 906.681 794.798 932.222 770.271C958.205 745.351 999.131 723.399 1046.35 702.96C1049.46 701.604 1052.65 700.248 1055.84 698.892C1059.7 697.261 1063.6 695.649 1067.55 694.018C1068.52 693.625 1069.5 693.212 1070.52 692.819C1071.36 692.466 1072.25 692.092 1073.14 691.758C1073.76 691.503 1074.38 691.247 1075 690.992C1075.62 690.736 1076.24 690.5 1076.86 690.245C1076.99 690.186 1077.13 690.147 1077.26 690.088C1077.35 690.048 1077.44 690.009 1077.53 689.989C1077.75 689.891 1077.97 689.793 1078.23 689.695C1078.72 689.498 1079.21 689.302 1079.74 689.105C1079.83 689.046 1079.92 689.007 1080.05 688.987C1080.72 688.692 1081.43 688.417 1082.14 688.142C1082.31 688.063 1082.54 687.965 1082.76 687.906C1083.42 687.611 1084.13 687.336 1084.84 687.081C1085.33 686.865 1085.86 686.648 1086.39 686.472C1087.1 686.177 1087.81 685.882 1088.52 685.626C1115.08 675.152 1142.75 665.011 1170.11 654.948C1285.57 612.538 1395.4 572.21 1398.11 518.322C1398.19 517.713 1398.19 517.104 1398.19 516.495L1398.19 516.475C1398.24 512.682 1397.71 508.83 1396.64 504.899C1396.42 504.153 1396.2 503.386 1395.98 502.62C1395.27 500.458 1394.38 498.276 1393.32 496.075C1393.1 495.604 1392.87 495.112 1392.61 494.641C1392.47 494.346 1392.34 494.051 1392.16 493.756C1391.1 491.752 1389.99 489.767 1388.79 487.762C1388.57 487.389 1388.35 486.996 1388.13 486.603C1386.67 484.166 1385.11 481.749 1383.47 479.331C1383.25 478.977 1383.03 478.624 1382.76 478.27C1381.08 475.813 1379.31 473.357 1377.44 470.9C1377.22 470.566 1376.96 470.232 1376.69 469.898C1374.78 467.402 1372.79 464.926 1370.7 462.449C1370.44 462.115 1370.17 461.781 1369.86 461.467C1367.78 458.951 1365.6 456.455 1363.34 453.979C1363.03 453.645 1362.72 453.311 1362.41 452.996C1360.15 450.501 1357.76 448.005 1355.32 445.528C1355.01 445.214 1354.7 444.88 1354.34 444.546C1319.09 408.955 1269.34 374.523 1217.6 338.696C1148.82 291.077 1077.92 242.004 1037.97 186.996C1037.09 185.778 1036.2 184.559 1035.36 183.341C1032.43 179.174 1029.73 174.949 1027.2 170.704C1026.67 169.839 1026.13 168.955 1025.65 168.071C1025.07 167.088 1024.49 166.105 1023.96 165.123C1023.87 165.005 1023.83 164.867 1023.78 164.749C1023.43 164.14 1023.07 163.531 1022.81 162.922C1022.01 161.507 1021.26 160.091 1020.59 158.677C1020.28 158.146 1020.02 157.596 1019.75 157.045C1019 155.453 1018.24 153.842 1017.49 152.25C1017.31 151.778 1017.09 151.287 1016.87 150.796C1016.11 149.047 1015.36 147.317 1014.69 145.568C1014.47 145.077 1014.3 144.585 1014.12 144.075C1013.41 142.247 1012.74 140.419 1012.12 138.572C1011.95 138.1 1011.81 137.628 1011.68 137.157C1011.01 135.231 1010.44 133.285 1009.91 131.359C1009.77 130.927 1009.64 130.494 1009.55 130.062C1008.97 128.018 1008.49 125.994 1008.04 123.95C1007.95 123.518 1007.87 123.085 1007.73 122.633C1003.61 102.509 1004.54 82.3845 1010.44 61.9062C1016.34 41.428 1027.11 20.9105 1043.03 -6.49071e-06Z" fill="url(#paint3_linear_164_8)" fill-opacity="0.1"/>
<path d="M1004.27 -3.01014e-06L1005.56 -3.06971e-06C977.626 42.7252 976.118 81.4608 991.771 117.465C991.992 117.936 992.17 118.428 992.436 118.899C993.278 120.865 994.209 122.83 995.229 124.775C995.451 125.267 995.717 125.758 995.983 126.249C996.914 128.116 997.934 129.964 998.998 131.811L998.998 131.831C999.308 132.381 999.619 132.912 999.974 133.462C1000.95 135.211 1002.01 136.96 1003.12 138.69C1003.52 139.299 1003.88 139.888 1004.27 140.478C1005.38 142.168 1006.54 143.858 1007.69 145.548C1008.13 146.158 1008.53 146.767 1009.02 147.396C1010.08 148.889 1011.15 150.403 1012.34 151.896C1012.88 152.643 1013.45 153.39 1014.03 154.137C1014.96 155.375 1015.94 156.613 1016.91 157.831C1017.93 159.07 1018.95 160.308 1020.02 161.526C1021.83 163.727 1023.7 165.909 1025.65 168.071C1026.31 168.817 1026.98 169.545 1027.69 170.272C1029.19 171.982 1030.79 173.672 1032.43 175.342C1033.01 175.991 1033.63 176.639 1034.25 177.268C1077.66 221.782 1142.26 262.718 1206.02 303.105C1275.68 347.245 1342.5 389.597 1376.2 434.13C1376.47 434.484 1376.73 434.837 1376.96 435.191C1378.77 437.628 1380.5 440.065 1382.1 442.522C1382.37 442.875 1382.59 443.249 1382.81 443.602C1384.36 446.039 1385.82 448.496 1387.2 450.933C1387.42 451.306 1387.6 451.68 1387.77 452.053C1389.1 454.47 1390.3 456.888 1391.37 459.305C1391.54 459.698 1391.72 460.091 1391.9 460.484C1392.92 462.862 1393.81 465.24 1394.65 467.638C1394.78 468.09 1394.91 468.542 1395.09 468.994C1395.8 471.254 1396.42 473.514 1396.91 475.794C1397.04 476.344 1397.17 476.894 1397.31 477.445C1397.66 479.272 1397.97 481.139 1398.19 482.987C1398.24 483.046 1398.24 483.124 1398.24 483.183C1398.37 484.087 1398.46 485.011 1398.51 485.915C1398.64 487.33 1398.68 488.725 1398.68 490.14C1398.68 494.326 1398.19 498.493 1397.22 502.639C1397.04 503.406 1396.86 504.153 1396.64 504.899C1396.07 507.002 1395.36 509.086 1394.56 511.169C1394.38 511.503 1394.25 511.837 1394.12 512.151C1385.74 532.276 1365.74 552.145 1333.72 572.269C1291.51 598.8 1232.41 623.563 1175.3 647.5C1145.99 659.783 1116.32 672.204 1088.43 685.076C1087.68 685.391 1087.01 685.705 1086.35 686.039C1085.82 686.255 1085.33 686.472 1084.89 686.707C1084.18 687.022 1083.47 687.356 1082.8 687.69C1082.58 687.769 1082.4 687.847 1082.22 687.945C1081.52 688.28 1080.76 688.614 1080.05 688.948C1080.05 688.948 1080.05 688.948 1080.05 688.967C1079.92 689.026 1079.83 689.046 1079.74 689.105C1079.17 689.38 1078.54 689.655 1078.01 689.93C1077.66 690.068 1077.39 690.225 1077.08 690.363C1076.99 690.402 1076.86 690.461 1076.82 690.5C1076.02 690.854 1075.26 691.228 1074.51 691.581C1074.42 691.621 1074.38 691.68 1074.24 691.719C1074.16 691.738 1074.16 691.758 1074.16 691.778C1073.09 692.249 1072.07 692.741 1071.14 693.212C1070.7 693.389 1070.34 693.586 1069.99 693.763C1069.77 693.861 1069.54 693.979 1069.37 694.077C1067.81 694.804 1066.31 695.531 1064.8 696.278C1064.49 696.435 1064.18 696.593 1063.87 696.75C1020.46 718.112 983.346 740.831 961.619 766.124C939.005 792.38 934.793 819.855 949.159 849L947.519 849C917.101 787.015 974.877 740.32 1057.97 698.735C1058.02 698.715 1058.06 698.696 1058.06 698.696C1059.48 697.968 1060.94 697.261 1062.36 696.553C1064.09 695.708 1065.82 694.863 1067.55 694.018C1069.23 693.212 1070.92 692.407 1072.6 691.601C1073.36 691.247 1074.07 690.893 1074.82 690.54C1075.26 690.323 1075.66 690.127 1076.11 689.93C1076.77 689.616 1077.44 689.302 1078.1 688.987C1078.72 688.692 1079.34 688.397 1079.96 688.103C1080.05 688.063 1080.19 688.004 1080.23 687.965C1080.36 687.906 1080.5 687.867 1080.58 687.808C1080.76 687.729 1080.94 687.651 1081.12 687.572C1081.65 687.317 1082.22 687.061 1082.76 686.806C1082.8 686.786 1082.85 686.747 1082.93 686.727C1083.33 686.53 1083.73 686.354 1084.13 686.157C1084.44 686.02 1084.75 685.882 1085.06 685.744C1085.42 685.567 1085.82 685.391 1086.22 685.214C1086.88 684.88 1087.59 684.565 1088.34 684.231C1115.88 671.575 1145.19 659.272 1174.36 647.068C1275.99 604.48 1372.83 563.917 1393.32 511.11C1393.49 510.776 1393.63 510.442 1393.72 510.107C1394.65 507.631 1395.4 505.135 1395.98 502.62C1396.16 501.873 1396.29 501.126 1396.42 500.379C1397.17 496.508 1397.49 492.558 1397.31 488.529C1397.31 487.546 1397.22 486.544 1397.13 485.542C1397.09 484.775 1397 483.989 1396.91 483.203C1396.73 481.749 1396.51 480.314 1396.2 478.86C1396.11 478.29 1396.02 477.72 1395.89 477.13C1395.36 474.732 1394.78 472.335 1394.03 469.957C1393.89 469.485 1393.72 469.033 1393.58 468.562C1392.79 466.105 1391.85 463.668 1390.83 461.231C1390.7 460.838 1390.52 460.445 1390.35 460.052C1389.28 457.595 1388.09 455.119 1386.75 452.682C1386.58 452.309 1386.36 451.935 1386.13 451.562C1384.8 449.086 1383.34 446.609 1381.74 444.153C1381.57 443.779 1381.3 443.426 1381.08 443.072C1379.48 440.596 1377.75 438.139 1375.94 435.682L1375.14 434.621C1341.62 390.049 1274.66 347.658 1204.91 303.439C1142.44 263.858 1078.28 223.216 1034.78 178.742C1034.16 178.113 1033.54 177.484 1032.96 176.836C1031.68 175.558 1030.44 174.261 1029.28 172.964C1028.53 172.217 1027.86 171.47 1027.2 170.704C1023.61 166.793 1020.19 162.863 1017 158.893C1016.11 157.812 1015.23 156.731 1014.43 155.63C1014.43 155.611 1014.43 155.611 1014.43 155.611C1013.67 154.726 1013.01 153.842 1012.39 152.958C1011.77 152.23 1011.24 151.484 1010.7 150.737C1009.68 149.381 1008.71 148.025 1007.78 146.669C1007.29 146.059 1006.89 145.431 1006.49 144.821C1006.09 144.271 1005.69 143.721 1005.34 143.17C1004.63 142.109 1003.92 141.028 1003.25 139.967C1002.86 139.358 1002.46 138.768 1002.1 138.159C1001.04 136.449 999.973 134.739 999.042 133.049C998.688 132.519 998.377 131.968 998.111 131.438C997.047 129.59 996.072 127.763 995.14 125.935C994.874 125.444 994.608 124.952 994.387 124.461C993.367 122.515 992.48 120.57 991.593 118.624C991.371 118.152 991.194 117.681 990.972 117.209C981.084 94.412 978.646 71.8702 983.39 48.8961C986.76 32.6432 993.633 16.41 1004.27 -3.01014e-06Z" fill="url(#paint4_linear_164_8)" fill-opacity="0.1"/>
<path d="M966.363 -5.9652e-07L967.471 -6.4787e-07C946.011 40.6027 951.997 77.5302 975.231 111.982C975.586 112.532 975.985 113.082 976.384 113.613C977.625 115.48 978.956 117.327 980.33 119.174C980.774 119.744 981.217 120.334 981.66 120.904C982.991 122.653 984.365 124.382 985.828 126.112C986.36 126.78 986.893 127.429 987.469 128.077C988.799 129.689 990.174 131.3 991.637 132.892C992.302 133.659 992.967 134.405 993.677 135.172C995.051 136.705 996.514 138.238 997.978 139.751C998.82 140.655 999.663 141.52 1000.55 142.404C1001.75 143.642 1003.03 144.88 1004.27 146.118C1005.74 147.533 1007.2 148.948 1008.75 150.363C1010.57 152.112 1012.48 153.862 1014.43 155.611C1014.43 155.611 1014.43 155.611 1014.43 155.63C1015.23 156.357 1016.07 157.104 1016.91 157.831C1018.82 159.522 1020.81 161.231 1022.81 162.922C1023.21 163.275 1023.65 163.649 1024.09 164.002C1026.18 165.791 1028.35 167.56 1030.52 169.328C1031.06 169.741 1031.54 170.154 1032.08 170.547C1077.79 207.18 1138.14 241.533 1197.78 275.493C1285.7 325.529 1369.91 373.462 1396.47 424.677C1396.64 425.07 1396.86 425.443 1397.04 425.817C1398.24 428.214 1399.3 430.592 1400.23 433.01C1400.41 433.403 1400.54 433.796 1400.68 434.189C1401.56 436.547 1402.32 438.925 1402.94 441.303C1403.07 441.735 1403.16 442.168 1403.25 442.6C1403.83 444.919 1404.27 447.238 1404.53 449.577C1404.62 450.049 1404.67 450.54 1404.71 451.031C1404.93 453.134 1405.07 455.257 1405.07 457.379L1405.07 457.654C1405.07 458.303 1405.07 458.951 1404.98 459.6C1404.98 461.349 1404.8 463.098 1404.58 464.867C1404.45 465.948 1404.27 467.048 1404.09 468.149C1404.09 468.149 1404.09 468.168 1404.05 468.188C1403.83 469.701 1403.52 471.215 1403.12 472.728C1401.96 477.209 1400.41 481.591 1398.5 485.915C1398.15 486.799 1397.75 487.664 1397.31 488.529C1396.29 490.671 1395.18 492.793 1393.98 494.896L1393.32 496.075C1391.76 498.709 1390.08 501.323 1388.31 503.897C1388.13 504.153 1387.95 504.389 1387.77 504.624C1351.68 555.623 1265.93 596.737 1182.57 636.711C1149.53 652.551 1117.21 668.037 1088.3 683.877C1087.59 684.251 1086.88 684.624 1086.17 685.017C1085.82 685.214 1085.46 685.43 1085.06 685.646C1085.02 685.666 1085.02 685.685 1085.02 685.685C1084.71 685.823 1084.4 686 1084.13 686.157C1083.73 686.373 1083.33 686.609 1082.93 686.845C1082.8 686.884 1082.76 686.924 1082.67 686.982C1082 687.336 1081.34 687.71 1080.72 688.063C1080.5 688.201 1080.23 688.319 1080.01 688.456C1079.61 688.673 1079.25 688.889 1078.85 689.105C1078.81 689.125 1078.81 689.144 1078.81 689.164C1078.59 689.262 1078.41 689.36 1078.23 689.459C1077.92 689.636 1077.66 689.793 1077.39 689.97C1077.17 690.068 1077.04 690.147 1076.86 690.245C1076.06 690.697 1075.31 691.129 1074.51 691.581C1074.42 691.621 1074.38 691.68 1074.24 691.719C1074.15 691.738 1074.15 691.758 1074.15 691.778C1073.62 692.092 1073.09 692.407 1072.56 692.721C1072.2 692.918 1071.89 693.095 1071.54 693.291C1070.7 693.802 1069.81 694.293 1068.97 694.804L1068.92 694.824C1033.94 715.381 1005.52 736.724 989.287 760.287C969.556 788.843 969.777 817.988 990.662 849L989.42 849C986.582 844.794 984.144 840.608 982.06 836.442C968.802 809.95 970.708 784.952 987.868 760.091C1003.52 737.313 1030.52 716.639 1063.87 696.75C1064.04 696.652 1064.18 696.534 1064.4 696.435C1065.02 696.023 1065.69 695.63 1066.39 695.237C1066.57 695.138 1066.75 695.02 1066.93 694.922C1068.12 694.215 1069.32 693.507 1070.52 692.819C1071.23 692.407 1071.94 691.994 1072.6 691.601C1073.84 690.893 1075.09 690.206 1076.28 689.498C1076.5 689.36 1076.77 689.243 1076.99 689.105C1077.57 688.771 1078.15 688.437 1078.72 688.103C1079.39 687.749 1080.01 687.395 1080.67 687.041C1081.07 686.825 1081.47 686.589 1081.87 686.373C1081.96 686.314 1082.05 686.255 1082.18 686.196C1082.49 686.039 1082.76 685.862 1083.07 685.705C1083.16 685.646 1083.24 685.607 1083.33 685.567C1083.95 685.214 1084.57 684.86 1085.24 684.506C1085.51 684.349 1085.77 684.211 1086.04 684.074C1086.04 684.054 1086.08 684.054 1086.13 684.035C1086.79 683.661 1087.46 683.288 1088.17 682.914C1116.85 667.251 1148.82 651.942 1181.5 636.259C1265.13 596.147 1351.15 554.896 1386.89 503.701C1387.06 503.465 1387.24 503.229 1387.38 502.973C1389.28 500.222 1391.01 497.451 1392.61 494.641C1392.83 494.248 1393.05 493.855 1393.27 493.462C1394.69 490.848 1396.02 488.214 1397.13 485.542C1397.53 484.696 1397.88 483.851 1398.19 482.987C1399.57 479.587 1400.72 476.147 1401.61 472.649C1401.74 472.158 1401.87 471.667 1401.96 471.195C1402.23 470.075 1402.45 468.974 1402.63 467.874C1403.03 465.614 1403.29 463.354 1403.43 461.113C1403.47 460.465 1403.52 459.836 1403.52 459.187C1403.6 456.809 1403.52 454.431 1403.29 452.073C1403.29 451.581 1403.25 451.11 1403.16 450.619C1402.89 448.221 1402.5 445.804 1401.92 443.426C1401.87 442.993 1401.74 442.541 1401.61 442.109C1401.03 439.672 1400.32 437.255 1399.44 434.857C1399.3 434.444 1399.13 434.051 1398.99 433.658C1398.06 431.221 1397 428.804 1395.8 426.406C1395.62 426.013 1395.4 425.62 1395.22 425.247C1368.97 373.992 1284.68 326.02 1196.62 275.905C1138.14 242.614 1078.23 208.536 1032.47 171.923C1031.99 171.51 1031.45 171.097 1030.92 170.684C1029.02 169.112 1027.06 167.54 1025.16 165.968C1025.16 165.948 1025.16 165.948 1025.16 165.948C1024.67 165.535 1024.23 165.142 1023.78 164.749C1022.45 163.688 1021.21 162.607 1020.01 161.526C1018.95 160.661 1017.93 159.777 1017 158.893C1012.52 155.001 1008.31 151.091 1004.27 147.14C1002.86 145.784 1001.52 144.428 1000.19 143.072C999.441 142.345 998.731 141.598 998.022 140.871C997.224 140.026 996.381 139.181 995.628 138.316C994.342 136.98 993.1 135.643 991.947 134.287C991.238 133.521 990.528 132.755 989.863 131.988C988.533 130.475 987.247 128.961 986.006 127.429C985.562 126.957 985.208 126.485 984.809 126.014C984.676 125.837 984.498 125.66 984.365 125.483C982.991 123.793 981.705 122.103 980.419 120.413C979.975 119.843 979.532 119.273 979.133 118.703C977.803 116.895 976.517 115.067 975.275 113.259C974.921 112.728 974.522 112.178 974.167 111.628C949.558 74.484 946.853 37.5368 966.363 -5.9652e-07Z" fill="url(#paint5_linear_164_8)" fill-opacity="0.1"/>
<path d="M928.896 -2.71593e-07L930.138 -3.29106e-07C915.195 38.4409 928.409 73.5014 958.737 106.38C959.314 107.009 959.89 107.638 960.467 108.247C962.107 109.977 963.792 111.706 965.522 113.436C966.187 114.124 966.896 114.812 967.65 115.499C969.202 117.052 970.842 118.585 972.483 120.137C972.483 120.157 972.527 120.157 972.527 120.157C973.414 120.983 974.301 121.808 975.232 122.633C976.74 124.009 978.336 125.385 979.932 126.76C981.218 127.881 982.504 129.001 983.878 130.121C985.297 131.359 986.805 132.578 988.313 133.796C990.352 135.467 992.48 137.137 994.609 138.808C996.427 140.242 998.333 141.657 1000.2 143.072C1001.57 144.094 1002.9 145.116 1004.28 146.118C1006.4 147.671 1008.53 149.204 1010.7 150.737C1011.24 151.13 1011.77 151.503 1012.35 151.896C1014.74 153.626 1017.22 155.336 1019.75 157.045C1020.1 157.281 1020.46 157.517 1020.81 157.753C1023.47 159.561 1026.18 161.369 1028.88 163.157C1029.37 163.452 1029.82 163.767 1030.26 164.061C1077.13 194.621 1134.33 223.727 1190.9 252.518C1298.07 307.035 1400.55 359.174 1415.8 415.853C1415.93 416.265 1416.06 416.698 1416.11 417.111C1416.73 419.41 1417.13 421.729 1417.44 424.048C1417.48 424.5 1417.53 424.952 1417.57 425.424C1417.71 427.035 1417.79 428.666 1417.79 430.298C1417.79 430.946 1417.79 431.614 1417.75 432.263C1417.75 432.774 1417.71 433.285 1417.66 433.796C1417.53 435.958 1417.26 438.1 1416.82 440.262C1416.73 440.91 1416.6 441.559 1416.46 442.187C1416.06 443.917 1415.58 445.627 1415 447.356C1414.65 448.476 1414.25 449.616 1413.76 450.736C1412.3 454.549 1410.34 458.401 1407.91 462.273C1406.66 464.238 1405.42 466.203 1404.09 468.149C1404.09 468.149 1404.09 468.168 1404.05 468.188C1403.38 469.19 1402.67 470.193 1401.96 471.195C1400.46 473.298 1398.95 475.381 1397.31 477.445C1396.95 477.916 1396.6 478.388 1396.2 478.86C1394.12 481.572 1391.85 484.264 1389.55 486.917C1389.33 487.212 1389.06 487.487 1388.8 487.762C1386.31 490.671 1383.65 493.54 1380.95 496.37C1380.73 496.586 1380.55 496.783 1380.33 496.979C1334.97 543.792 1263.84 582.705 1194.63 620.576C1156.41 641.506 1119.21 661.847 1088.12 682.679C1087.46 683.131 1086.75 683.583 1086.13 684.035C1086.08 684.054 1086.04 684.054 1086.04 684.074C1085.77 684.251 1085.51 684.428 1085.24 684.624C1084.49 685.115 1083.78 685.607 1083.07 686.098C1083.07 686.118 1083.02 686.118 1083.02 686.137C1082.45 686.53 1081.83 686.943 1081.29 687.336C1081.03 687.493 1080.81 687.651 1080.58 687.808C1080.45 687.906 1080.32 688.004 1080.19 688.083C1079.92 688.26 1079.7 688.437 1079.43 688.614C1079.34 688.633 1079.34 688.653 1079.34 688.673C1078.99 688.948 1078.59 689.203 1078.23 689.459C1077.97 689.636 1077.75 689.812 1077.53 689.989C1077.35 690.068 1077.26 690.166 1077.17 690.245C1076.99 690.323 1076.9 690.422 1076.82 690.5C1076.28 690.854 1075.8 691.208 1075.35 691.562C1075.26 691.562 1075.26 691.581 1075.26 691.601C1074.87 691.856 1074.51 692.112 1074.16 692.387C1073.62 692.76 1073.09 693.134 1072.6 693.527C1072.25 693.763 1071.89 693.999 1071.58 694.254C1046.44 712.708 1026.71 731.673 1015.85 751.896C998.999 783.202 1004.63 815.02 1033.81 849L1032.12 849C1002.94 814.981 997.402 783.104 1014.3 751.738C1025.03 731.791 1044.36 713.042 1068.92 694.824L1068.97 694.804C1069.46 694.431 1069.99 694.038 1070.52 693.664C1070.61 693.586 1070.74 693.488 1070.87 693.409C1070.96 693.35 1071.05 693.271 1071.14 693.212C1071.81 692.721 1072.47 692.23 1073.14 691.758C1073.71 691.345 1074.24 690.933 1074.82 690.54C1075.31 690.186 1075.8 689.852 1076.28 689.498C1076.68 689.223 1077.04 688.967 1077.44 688.692C1078.01 688.26 1078.63 687.847 1079.25 687.415C1079.83 687.002 1080.45 686.589 1081.07 686.177C1081.78 685.666 1082.49 685.174 1083.25 684.663C1083.38 684.585 1083.47 684.487 1083.6 684.408C1083.73 684.329 1083.87 684.251 1083.95 684.153C1084.49 683.818 1084.93 683.524 1085.46 683.19C1085.46 683.17 1085.46 683.17 1085.46 683.17C1085.51 683.15 1085.51 683.131 1085.55 683.091C1085.68 683.013 1085.77 682.954 1085.91 682.875C1086.57 682.403 1087.28 681.932 1088.03 681.46C1118.9 660.884 1155.61 640.779 1193.39 620.124C1262.78 582.155 1334.12 543.105 1379.44 496.115C1379.66 495.899 1379.84 495.702 1380.02 495.486C1382.85 492.558 1385.56 489.61 1388.13 486.603C1388.4 486.328 1388.62 486.052 1388.84 485.758C1391.32 482.928 1393.67 480.039 1395.89 477.13C1396.24 476.698 1396.6 476.246 1396.91 475.794C1398.9 473.18 1400.81 470.546 1402.63 467.874C1403.34 466.871 1403.96 465.869 1404.58 464.867C1405.25 463.943 1405.82 463.019 1406.4 462.096C1408.13 459.285 1409.64 456.495 1410.88 453.724C1411.41 452.564 1411.9 451.405 1412.34 450.245C1413.23 448.064 1413.89 445.882 1414.42 443.72C1414.65 443.052 1414.82 442.384 1414.96 441.716C1415.44 439.397 1415.8 437.117 1416.02 434.818C1416.06 434.307 1416.06 433.776 1416.11 433.265C1416.24 430.907 1416.24 428.568 1416.02 426.21C1416.02 425.738 1415.98 425.286 1415.93 424.834C1415.67 422.456 1415.27 420.098 1414.69 417.759C1414.6 417.346 1414.51 416.934 1414.38 416.521C1399.7 359.823 1297.05 307.605 1189.71 252.99C1134.15 224.73 1077.39 195.86 1030.57 165.319C1030.13 165.024 1029.64 164.71 1029.19 164.415C1026.62 162.745 1024.14 161.074 1021.66 159.384C1021.3 159.148 1020.95 158.912 1020.59 158.677C1018.38 157.163 1016.16 155.67 1014.03 154.137C1013.45 153.744 1012.88 153.351 1012.39 152.958C1011.1 152.093 1009.86 151.228 1008.75 150.363C1007.2 149.283 1005.69 148.221 1004.28 147.14C998.732 143.112 993.456 139.043 988.401 134.936C986.45 133.344 984.499 131.733 982.593 130.121C981.883 129.531 981.174 128.922 980.509 128.333C979.223 127.232 977.937 126.151 976.74 125.051C976.695 125.051 976.695 125.031 976.695 125.031C975.409 123.871 974.124 122.712 972.838 121.552C971.951 120.747 971.108 119.941 970.266 119.115C968.714 117.681 967.206 116.226 965.743 114.772C965.034 114.084 964.324 113.377 963.659 112.689C963.349 112.375 963.038 112.08 962.728 111.765C961.398 110.409 960.112 109.053 958.87 107.697C958.294 107.088 957.718 106.459 957.186 105.85C924.994 70.4159 915.55 35.375 928.896 -2.71593e-07Z" fill="url(#paint6_linear_164_8)" fill-opacity="0.1"/>
<path d="M892.271 -7.91682e-08L893.556 -1.38735e-07C885.265 36.2201 905.351 69.4136 942.286 100.661C943.173 101.389 944.06 102.135 944.947 102.863C946.809 104.415 948.716 105.968 950.667 107.501C951.82 108.385 952.928 109.269 954.081 110.134C955.766 111.412 957.451 112.689 959.18 113.966C960.776 115.185 962.461 116.384 964.146 117.583C965.255 118.408 966.408 119.214 967.605 120.039C970.664 122.181 973.768 124.323 977.005 126.466C978.823 127.684 980.685 128.903 982.592 130.121C984.454 131.339 986.361 132.578 988.312 133.796C990.706 135.309 993.145 136.803 995.628 138.316C996.382 138.788 997.18 139.279 997.978 139.751C1000.77 141.441 1003.61 143.131 1006.49 144.821C1006.89 145.057 1007.29 145.313 1007.69 145.548C1010.7 147.298 1013.76 149.047 1016.87 150.796C1017.13 150.973 1017.44 151.149 1017.75 151.307C1020.95 153.115 1024.14 154.903 1027.42 156.692C1027.86 156.927 1028.31 157.183 1028.75 157.419C1075.75 183.144 1130.16 207.887 1184.03 232.394C1311.86 290.547 1433.93 346.085 1434.02 407.658L1434.02 407.736C1434.02 408.188 1434.02 408.621 1433.98 409.073C1433.93 411.293 1433.71 413.514 1433.31 415.754C1433.22 416.305 1433.13 416.835 1433 417.386C1432.6 419.449 1432.03 421.513 1431.27 423.576C1431.05 424.284 1430.83 424.991 1430.52 425.699C1429.94 427.212 1429.28 428.725 1428.48 430.239C1427.9 431.496 1427.24 432.754 1426.48 434.032C1423.34 439.534 1419.12 445.116 1413.76 450.736C1413.45 451.11 1413.09 451.464 1412.74 451.837C1412.12 452.466 1411.5 453.095 1410.88 453.724C1408.97 455.709 1406.97 457.654 1404.98 459.6C1404.49 460.111 1403.96 460.622 1403.43 461.113C1400.68 463.766 1397.93 466.38 1395.09 468.994C1394.74 469.308 1394.38 469.642 1394.03 469.957C1390.83 472.885 1387.6 475.774 1384.27 478.643C1384.05 478.879 1383.78 479.115 1383.47 479.331C1379.97 482.397 1376.42 485.424 1372.74 488.411C1372.57 488.588 1372.34 488.765 1372.08 488.941C1324.23 528.443 1267.52 563.131 1216.09 594.614C1166.56 624.919 1121.11 652.767 1087.99 681.008C1087.28 681.617 1086.57 682.227 1085.86 682.816C1085.77 682.914 1085.68 683.013 1085.55 683.091C1085.51 683.131 1085.51 683.15 1085.46 683.17C1085.46 683.17 1085.46 683.17 1085.46 683.19C1084.89 683.7 1084.31 684.211 1083.73 684.703L1083.69 684.722C1083.51 684.88 1083.33 685.037 1083.16 685.194C1082.93 685.41 1082.71 685.607 1082.49 685.803C1082.27 686 1082.05 686.196 1081.87 686.373C1081.34 686.845 1080.81 687.317 1080.32 687.788C1080.19 687.906 1080.05 688.004 1079.96 688.103C1079.74 688.28 1079.56 688.456 1079.43 688.614C1079.34 688.633 1079.34 688.653 1079.34 688.673C1079.17 688.83 1078.99 688.967 1078.85 689.105C1078.81 689.125 1078.81 689.144 1078.81 689.164C1078.59 689.341 1078.41 689.518 1078.23 689.695C1078.15 689.773 1078.06 689.852 1078.01 689.93C1077.61 690.265 1077.26 690.599 1076.95 690.913C1076.64 691.188 1076.33 691.463 1076.11 691.719C1076.06 691.738 1076.02 691.778 1076.02 691.797L1076.02 691.817C1075.66 692.092 1075.4 692.367 1075.13 692.642C1059.35 707.814 1047.42 723.203 1040.59 739.259C1025.56 774.614 1037.49 810.461 1078.01 849L1076.15 849C1035.71 810.441 1023.87 774.536 1038.9 739.121C1045.47 723.674 1056.73 708.836 1071.58 694.254C1071.76 694.058 1071.98 693.861 1072.2 693.664C1072.47 693.35 1072.82 693.055 1073.18 692.741C1073.31 692.584 1073.45 692.407 1073.67 692.249C1073.8 692.092 1073.98 691.935 1074.15 691.778C1074.15 691.758 1074.15 691.738 1074.24 691.719C1074.47 691.483 1074.69 691.227 1075 690.992C1075.31 690.638 1075.71 690.284 1076.11 689.93C1076.37 689.655 1076.68 689.38 1076.99 689.105C1077.13 688.967 1077.26 688.83 1077.44 688.692C1078.41 687.788 1079.39 686.884 1080.41 685.961C1080.81 685.587 1081.25 685.214 1081.65 684.84C1082.27 684.29 1082.89 683.74 1083.56 683.19C1084.09 682.718 1084.62 682.246 1085.2 681.775C1085.33 681.617 1085.55 681.46 1085.73 681.303C1085.77 681.264 1085.82 681.224 1085.86 681.165C1086.3 680.792 1086.79 680.399 1087.24 680.006C1087.24 679.986 1087.28 679.966 1087.32 679.947C1087.46 679.809 1087.63 679.672 1087.86 679.514C1120.85 651.607 1165.81 624.094 1214.71 594.162C1266.33 562.58 1323.21 527.736 1371.19 488.077C1371.41 487.9 1371.63 487.723 1371.86 487.546C1375.54 484.48 1379.22 481.395 1382.76 478.27C1383.03 478.054 1383.3 477.818 1383.56 477.602C1386.98 474.615 1390.3 471.608 1393.58 468.562C1393.94 468.267 1394.29 467.952 1394.65 467.638C1397.62 464.847 1400.59 462.037 1403.52 459.187C1404.05 458.676 1404.54 458.165 1405.07 457.654C1407.11 455.63 1409.15 453.586 1411.14 451.542C1411.54 451.11 1411.98 450.677 1412.34 450.245C1413.27 449.282 1414.16 448.319 1415 447.356C1417.97 443.976 1420.54 440.596 1422.71 437.255C1423.56 435.977 1424.31 434.7 1425.02 433.442C1426.17 431.398 1427.19 429.374 1428.04 427.35C1428.39 426.622 1428.66 425.915 1428.92 425.188C1429.81 422.928 1430.47 420.687 1431.01 418.447C1431.14 417.916 1431.23 417.366 1431.32 416.835C1431.8 414.516 1432.11 412.197 1432.16 409.878C1432.2 409.407 1432.25 408.935 1432.2 408.463C1433.18 346.832 1310.89 291.195 1182.79 232.925C1129.89 208.85 1075.93 184.304 1029.02 158.637C1028.53 158.401 1028.13 158.166 1027.69 157.93C1024.54 156.22 1021.48 154.49 1018.42 152.761C1018.11 152.604 1017.8 152.427 1017.49 152.25C1014.65 150.639 1011.81 149.007 1009.02 147.396C1008.58 147.14 1008.18 146.905 1007.78 146.669C1005.34 145.254 1002.94 143.819 1000.55 142.404C999.707 141.893 998.865 141.382 998.022 140.871C996.87 140.183 995.761 139.495 994.608 138.808C992.524 137.53 990.44 136.233 988.401 134.936C981.749 130.75 975.32 126.505 969.201 122.24C966.186 120.177 963.259 118.074 960.422 115.971C960.2 115.853 960.067 115.735 959.934 115.617C958.293 114.438 956.697 113.259 955.19 112.08C953.771 111.019 952.396 109.957 951.022 108.896C949.957 108.051 948.893 107.206 947.829 106.361C946.055 104.926 944.282 103.492 942.641 102.057C941.71 101.31 940.823 100.583 939.981 99.8361C939.759 99.6592 939.582 99.4824 939.36 99.3055C900.74 65.8958 885.043 33.0363 892.271 -7.91682e-08Z" fill="url(#paint7_linear_164_8)" fill-opacity="0.1"/>
<path d="M856.577 -2.41005e-09L858.439 -8.86788e-08C857.242 29.0468 876.574 58.074 916.481 87.6514C919.895 90.1866 923.442 92.7021 927.078 95.1981C928.408 96.1218 929.783 97.0258 931.157 97.9494C933.197 99.3251 935.281 100.681 937.454 102.057C939.36 103.295 941.311 104.553 943.351 105.791C944.726 106.675 946.145 107.54 947.608 108.405C951.332 110.704 955.234 113.003 959.181 115.264C959.58 115.499 959.979 115.735 960.422 115.971C962.772 117.347 965.167 118.703 967.605 120.039C970.576 121.71 973.591 123.38 976.695 125.031C976.695 125.031 976.695 125.051 976.739 125.051C977.759 125.621 978.823 126.19 979.932 126.76C983.169 128.51 986.494 130.259 989.864 131.988C990.441 132.283 991.061 132.597 991.638 132.892C995.052 134.641 998.511 136.41 1002.1 138.159C1002.41 138.336 1002.77 138.513 1003.12 138.69C1006.71 140.478 1010.39 142.286 1014.12 144.075L1014.92 144.487C1018.69 146.276 1022.45 148.084 1026.27 149.872C1026.67 150.069 1027.11 150.265 1027.51 150.462C1074.07 172.296 1125.77 193.364 1176.54 214.078C1317.5 271.542 1452.38 326.511 1452.38 387.887C1452.38 391.758 1451.85 395.669 1450.69 399.62C1450.56 400.189 1450.38 400.779 1450.16 401.369C1449.54 403.314 1448.79 405.28 1447.86 407.245C1447.5 408.011 1447.1 408.797 1446.66 409.564C1445.99 410.9 1445.24 412.256 1444.35 413.612C1443.56 414.929 1442.67 416.285 1441.65 417.621C1437.75 423.026 1432.74 428.509 1426.48 434.032C1425.29 435.093 1424.05 436.174 1422.72 437.255C1421.07 438.63 1419.35 440.006 1417.53 441.382C1417.17 441.657 1416.82 441.932 1416.46 442.187C1415.8 442.698 1415.13 443.209 1414.42 443.72C1411.23 446.177 1407.99 448.614 1404.71 451.031C1404.27 451.385 1403.83 451.719 1403.29 452.073C1399.53 454.903 1395.76 457.694 1391.9 460.484C1391.59 460.74 1391.23 460.976 1390.83 461.231C1386.71 464.277 1382.5 467.304 1378.24 470.311C1377.98 470.507 1377.71 470.704 1377.44 470.9C1373.01 474.064 1368.53 477.209 1364.05 480.314C1363.83 480.471 1363.61 480.648 1363.34 480.805C1327.96 505.489 1292.58 528.385 1260.07 549.413C1188.24 595.892 1123.91 637.536 1087.81 679.338C1087.63 679.534 1087.46 679.75 1087.32 679.947C1087.28 679.966 1087.24 679.986 1087.24 680.006C1086.75 680.595 1086.26 681.165 1085.77 681.755L1085.77 681.775C1085.24 682.364 1084.75 682.973 1084.26 683.583C1084.04 683.858 1083.82 684.133 1083.6 684.408C1083.42 684.565 1083.29 684.742 1083.2 684.919C1082.93 685.214 1082.71 685.509 1082.49 685.803C1082.36 685.921 1082.27 686.059 1082.18 686.196C1081.87 686.57 1081.56 686.963 1081.29 687.336C1081.21 687.415 1081.12 687.493 1081.12 687.572C1080.94 687.729 1080.81 687.906 1080.72 688.063C1080.5 688.358 1080.23 688.653 1080.05 688.948C1080.05 688.948 1080.05 688.948 1080.05 688.967L1080.05 688.987C1079.79 689.243 1079.61 689.498 1079.48 689.754C1079.39 689.812 1079.3 689.891 1079.3 689.97C1079.03 690.245 1078.86 690.52 1078.68 690.815C1078.46 691.07 1078.23 691.345 1078.1 691.621C1071.45 700.72 1066.31 709.839 1062.8 719.056C1046.89 760.818 1066.26 803.111 1123.51 849L1121.16 849C1103.38 834.771 1089.36 820.975 1078.9 807.415C1055.58 777.326 1049.72 748.378 1060.99 718.918C1064.36 710.055 1069.23 701.27 1075.49 692.525C1075.62 692.289 1075.8 692.053 1076.02 691.817L1076.02 691.797C1076.02 691.778 1076.02 691.738 1076.06 691.719C1076.19 691.522 1076.33 691.306 1076.55 691.09C1076.68 690.854 1076.86 690.618 1077.08 690.363C1077.04 690.323 1077.08 690.284 1077.17 690.245C1077.17 690.206 1077.17 690.147 1077.26 690.088C1077.26 690.048 1077.3 690.009 1077.39 689.97C1077.57 689.655 1077.79 689.321 1078.1 688.987C1078.28 688.692 1078.5 688.397 1078.72 688.103C1078.9 687.867 1079.08 687.651 1079.25 687.415C1079.61 686.924 1080.01 686.452 1080.41 685.961C1080.94 685.253 1081.52 684.526 1082.14 683.818C1082.67 683.131 1083.2 682.443 1083.82 681.755C1084.35 681.067 1084.93 680.379 1085.6 679.691C1085.82 679.357 1086.08 679.023 1086.44 678.689C1086.79 678.257 1087.15 677.824 1087.55 677.372C1087.55 677.353 1087.55 677.353 1087.59 677.333C1087.59 677.313 1087.59 677.294 1087.63 677.274C1087.68 677.254 1087.68 677.235 1087.72 677.195C1124.13 635.944 1187.76 594.791 1258.57 548.961C1291.25 527.815 1326.81 504.782 1362.37 479.96C1362.63 479.803 1362.9 479.626 1363.08 479.449C1367.64 476.305 1372.17 473.121 1376.69 469.898C1376.96 469.701 1377.22 469.505 1377.49 469.308C1381.79 466.262 1386.05 463.177 1390.35 460.052C1390.7 459.816 1391.01 459.561 1391.37 459.305C1395.31 456.436 1399.26 453.527 1403.16 450.619C1403.6 450.265 1404.09 449.931 1404.54 449.577C1408.04 446.983 1411.5 444.369 1414.96 441.716C1415.27 441.46 1415.62 441.224 1415.93 440.969C1416.24 440.733 1416.55 440.497 1416.82 440.262C1419.79 437.982 1422.54 435.702 1425.02 433.442C1426.26 432.381 1427.42 431.3 1428.48 430.239C1431.67 427.232 1434.42 424.264 1436.82 421.297C1438.01 419.901 1439.08 418.506 1440.05 417.111C1441.43 415.185 1442.67 413.239 1443.78 411.313C1444.22 410.546 1444.66 409.76 1445.02 408.994C1446.17 406.832 1447.1 404.69 1447.81 402.548C1448.08 401.958 1448.26 401.369 1448.43 400.779C1469.14 334.451 1325.7 275.984 1175.3 214.687C1125.01 194.189 1073.89 173.357 1027.69 151.739C1027.29 151.543 1026.89 151.346 1026.45 151.15C1022.76 149.42 1019.13 147.691 1015.54 145.961C1015.23 145.824 1014.96 145.706 1014.69 145.568C1011.19 143.878 1007.73 142.188 1004.27 140.478C1003.92 140.321 1003.61 140.144 1003.25 139.967C1000.02 138.375 996.826 136.783 993.677 135.172C993.101 134.877 992.525 134.582 991.948 134.287C989.243 132.892 986.539 131.516 983.878 130.121C982.725 129.531 981.617 128.922 980.508 128.333C979.311 127.723 978.158 127.095 977.005 126.466C974.389 125.07 971.773 123.655 969.202 122.24C961.531 118.015 954.17 113.77 947.076 109.466C943.528 107.304 940.026 105.142 936.656 102.981C936.523 102.902 936.39 102.823 936.301 102.745C934.483 101.605 932.754 100.465 931.024 99.3251C929.473 98.2836 927.921 97.2616 926.413 96.22C926.369 96.22 926.369 96.22 926.369 96.2004C925.083 95.316 923.797 94.4316 922.511 93.5275C919.939 91.7195 917.412 89.8918 914.929 88.0641C874.845 58.3687 855.38 29.204 856.577 -2.41005e-09Z" fill="url(#paint8_linear_164_8)" fill-opacity="0.1"/>
<path d="M821.947 0L823.942 -9.24308e-08C828.154 25.5289 850.502 51.0972 891.162 77.1764C897.547 81.2642 904.287 85.3323 911.381 89.3612C913.687 90.6779 916.037 91.9946 918.387 93.2917C918.431 93.2917 918.431 93.2917 918.431 93.3114C920.116 94.2351 921.757 95.1391 923.486 96.0628C927.654 98.3032 931.911 100.524 936.301 102.745C936.567 102.902 936.877 103.059 937.187 103.216C940.602 104.946 944.06 106.675 947.607 108.405C950.091 109.623 952.618 110.861 955.19 112.08L959.18 113.966C962.816 115.696 966.496 117.406 970.265 119.115C970.975 119.469 971.729 119.803 972.482 120.137C972.482 120.157 972.527 120.157 972.527 120.157C976.429 121.926 980.375 123.695 984.366 125.483C984.853 125.679 985.341 125.896 985.829 126.112C989.864 127.9 993.988 129.669 998.111 131.438C998.422 131.575 998.688 131.693 998.998 131.811L998.998 131.831C1003.17 133.619 1007.42 135.388 1011.68 137.157C1011.95 137.294 1012.21 137.393 1012.48 137.491C1016.73 139.299 1021.08 141.087 1025.42 142.836C1025.82 143.013 1026.22 143.17 1026.62 143.328C1071.67 161.683 1120.36 179.489 1168.25 197.039C1323.48 253.875 1472.15 308.313 1472.15 369.787C1472.15 376.842 1470.2 383.976 1466.08 391.228C1465.64 392.053 1465.15 392.879 1464.57 393.684C1463.82 394.923 1462.98 396.161 1462.04 397.399C1461.03 398.814 1459.92 400.229 1458.68 401.663L1458.68 401.683C1454.2 406.93 1448.57 412.237 1441.65 417.621C1440.14 418.84 1438.5 420.078 1436.82 421.297C1434.82 422.771 1432.74 424.225 1430.52 425.699C1429.72 426.249 1428.88 426.799 1428.04 427.35C1426.17 428.548 1424.27 429.747 1422.32 430.946C1420.76 431.889 1419.21 432.852 1417.66 433.796C1417.13 434.13 1416.55 434.484 1416.02 434.818C1411.72 437.431 1407.51 440.026 1403.25 442.6C1402.81 442.875 1402.36 443.15 1401.92 443.426C1397.17 446.334 1392.43 449.204 1387.77 452.053C1387.42 452.269 1387.07 452.486 1386.75 452.682C1381.97 455.591 1377.22 458.48 1372.52 461.349C1372.21 461.545 1371.9 461.722 1371.59 461.919C1371.28 462.096 1371.01 462.273 1370.7 462.449C1365.38 465.712 1360.06 468.935 1354.83 472.119C1354.56 472.276 1354.34 472.413 1354.08 472.571C1224.78 551.378 1122.84 615.289 1087.68 677.117C1087.63 677.176 1087.63 677.215 1087.63 677.274C1087.59 677.294 1087.59 677.313 1087.59 677.333C1087.55 677.353 1087.55 677.353 1087.55 677.372C1087.06 678.237 1086.57 679.102 1086.13 679.966C1085.95 680.242 1085.82 680.536 1085.68 680.812C1085.51 681.126 1085.33 681.46 1085.2 681.775C1084.84 682.384 1084.53 682.973 1084.26 683.583C1084.18 683.779 1084.04 683.956 1083.95 684.152C1083.95 684.231 1083.91 684.29 1083.87 684.369C1083.82 684.487 1083.78 684.585 1083.73 684.703L1083.69 684.722C1083.56 684.998 1083.42 685.292 1083.33 685.567C1083.2 685.744 1083.11 685.921 1083.07 686.098C1083.02 686.137 1083.02 686.177 1083.02 686.216L1083.02 686.255C1082.89 686.432 1082.8 686.629 1082.76 686.806C1082.71 686.865 1082.67 686.924 1082.67 686.982C1082.49 687.297 1082.36 687.631 1082.22 687.945C1082.18 688.004 1082.14 688.083 1082.14 688.142C1082 688.417 1081.87 688.712 1081.78 688.987C1081.65 689.282 1081.52 689.577 1081.38 689.871C1081.29 690.107 1081.21 690.323 1081.12 690.559C1060.1 741.991 1087.9 792.616 1169.93 849L1167.45 849C1136.28 827.578 1113.13 807.14 1097.48 787.349C1072.03 755.138 1065.91 723.674 1078.81 691.365C1078.86 691.129 1078.94 690.913 1079.08 690.677C1079.17 690.422 1079.25 690.166 1079.39 689.93C1079.39 689.871 1079.43 689.812 1079.48 689.754C1079.52 689.537 1079.61 689.321 1079.74 689.105C1079.79 688.889 1079.92 688.673 1080.01 688.456C1080.05 688.319 1080.1 688.201 1080.19 688.083C1080.19 688.044 1080.19 688.004 1080.23 687.965C1080.23 687.906 1080.27 687.847 1080.32 687.788C1080.41 687.533 1080.5 687.297 1080.67 687.041C1080.76 686.747 1080.89 686.472 1081.07 686.177C1081.21 685.725 1081.43 685.292 1081.65 684.84C1081.74 684.624 1081.87 684.388 1081.96 684.172C1082 684.054 1082.09 683.936 1082.14 683.818C1082.8 682.423 1083.51 681.047 1084.26 679.652C1084.66 678.925 1085.06 678.217 1085.46 677.49C1086.17 676.252 1086.88 675.014 1087.63 673.776C1087.68 673.658 1087.77 673.56 1087.81 673.461C1124.84 612.44 1225.75 549.295 1353.06 471.686C1353.32 471.549 1353.59 471.391 1353.81 471.254C1359.13 468.011 1364.5 464.749 1369.86 461.467C1370.17 461.29 1370.44 461.133 1370.75 460.956C1370.79 460.917 1370.88 460.877 1370.93 460.838C1375.94 457.772 1381.03 454.687 1386.13 451.562C1386.49 451.365 1386.8 451.149 1387.2 450.933C1391.94 448.024 1396.78 445.076 1401.61 442.109C1402.05 441.834 1402.5 441.578 1402.94 441.303C1407.28 438.65 1411.67 435.958 1416.11 433.265C1416.64 432.931 1417.17 432.597 1417.75 432.263C1418.72 431.654 1419.74 431.044 1420.72 430.435C1423.6 428.686 1426.31 426.937 1428.92 425.188C1429.72 424.638 1430.52 424.107 1431.27 423.576C1434.42 421.414 1437.35 419.253 1440.05 417.111C1441.56 415.931 1442.98 414.772 1444.35 413.612C1447.5 410.94 1450.34 408.286 1452.87 405.653C1454.33 404.159 1455.66 402.666 1456.9 401.192C1458.5 399.305 1459.96 397.418 1461.25 395.551C1461.82 394.726 1462.36 393.901 1462.84 393.075C1506.96 322.207 1341.13 261.461 1167 197.707C1119.6 180.354 1071.45 162.725 1026.76 144.586C1026.36 144.428 1025.91 144.251 1025.51 144.094C1021.3 142.365 1017.09 140.635 1012.92 138.906C1012.65 138.808 1012.39 138.69 1012.12 138.572C1008.04 136.882 1003.96 135.172 999.973 133.462C999.663 133.344 999.353 133.207 999.042 133.049C995.14 131.418 991.283 129.748 987.469 128.077C986.982 127.861 986.494 127.645 986.006 127.429C982.37 125.837 978.779 124.245 975.232 122.633C974.433 122.28 973.635 121.926 972.837 121.552C969.911 120.236 967.029 118.919 964.146 117.583C962.728 116.934 961.309 116.266 959.934 115.617C959.668 115.499 959.446 115.381 959.18 115.264C955.057 113.338 951.022 111.392 947.075 109.466C938.695 105.378 930.625 101.251 922.866 97.1044C918.698 94.8836 914.663 92.6432 910.716 90.4028L910.716 90.3831L910.672 90.3831C910.628 90.3635 910.583 90.3242 910.539 90.3045C908.278 89.0271 906.061 87.7693 903.932 86.4919C898.922 83.5636 894.133 80.6157 889.522 77.6677C848.595 51.4313 826.115 25.6862 821.947 0Z" fill="url(#paint9_linear_164_8)" fill-opacity="0.1"/>
<path d="M788.248 0L790.465 -1.02701e-07C802.082 29.5381 841.057 56.9537 895.152 83.0723C900.119 85.4896 905.306 87.9069 910.539 90.3045C910.627 90.3242 910.672 90.3438 910.716 90.3831L910.716 90.4028C910.76 90.4224 910.849 90.4617 910.938 90.4814C915.061 92.3484 919.229 94.2154 923.486 96.0628C925.969 97.1633 928.496 98.2443 931.024 99.3251C933.152 100.229 935.281 101.153 937.453 102.057C940.867 103.492 944.326 104.906 947.829 106.361C948.76 106.734 949.691 107.127 950.667 107.501C954.923 109.25 959.269 110.979 963.658 112.689C964.279 112.945 964.9 113.2 965.521 113.436C969.999 115.205 974.522 116.954 979.133 118.703C979.532 118.86 979.931 119.017 980.33 119.174C984.942 120.943 989.642 122.712 994.386 124.461C994.652 124.579 994.918 124.677 995.229 124.775C999.973 126.544 1004.72 128.293 1009.55 130.062C1009.82 130.141 1010.08 130.239 1010.35 130.337C1015.14 132.086 1020.02 133.835 1024.89 135.584C1025.29 135.722 1025.69 135.86 1026.09 135.997C1068.79 151.208 1114.06 166.145 1159.02 180.963C1322.68 234.929 1477.25 285.909 1491.75 344.14C1492.51 347.127 1492.91 350.095 1492.91 353.042C1492.91 362.495 1489.09 371.889 1481.42 381.284C1480.18 382.816 1478.81 384.369 1477.3 385.902C1472.33 391.149 1466.12 396.397 1458.67 401.663L1458.67 401.683C1456.81 403 1454.86 404.336 1452.87 405.653C1450.87 406.95 1448.83 408.267 1446.66 409.564C1445.73 410.153 1444.75 410.723 1443.78 411.313C1440.36 413.337 1436.77 415.342 1433 417.386C1432.38 417.739 1431.72 418.093 1431.01 418.447C1429.72 419.115 1428.43 419.803 1427.1 420.491C1423.91 422.142 1420.72 423.792 1417.57 425.424C1417.04 425.699 1416.51 425.954 1416.02 426.21C1410.83 428.902 1405.73 431.555 1400.68 434.189C1400.23 434.425 1399.84 434.641 1399.44 434.857C1393.8 437.805 1388.26 440.714 1382.81 443.602C1382.41 443.799 1382.1 443.976 1381.74 444.153C1375.8 447.297 1369.95 450.422 1364.19 453.507C1363.87 453.665 1363.61 453.822 1363.34 453.979C1357.14 457.3 1351.06 460.582 1345.12 463.845C1344.81 463.982 1344.59 464.12 1344.37 464.258C1195.16 545.679 1106.61 610.828 1087.81 673.461C1087.77 673.678 1087.68 673.913 1087.63 674.13C1087.19 675.662 1086.75 677.176 1086.44 678.689C1086.3 679.121 1086.22 679.534 1086.13 679.966C1086.04 680.359 1085.95 680.772 1085.86 681.165C1085.82 681.342 1085.77 681.519 1085.77 681.716C1085.77 681.735 1085.77 681.735 1085.77 681.755L1085.77 681.775C1085.64 682.227 1085.55 682.698 1085.46 683.17C1085.46 683.17 1085.46 683.17 1085.46 683.19C1085.37 683.622 1085.28 684.054 1085.24 684.506C1085.2 684.546 1085.2 684.585 1085.24 684.624C1085.15 684.958 1085.11 685.292 1085.06 685.646C1085.02 685.666 1085.02 685.685 1085.02 685.685C1085.02 685.705 1085.02 685.725 1085.06 685.744C1084.97 686.059 1084.93 686.393 1084.89 686.707C1084.84 686.825 1084.84 686.963 1084.84 687.081C1084.8 687.317 1084.75 687.572 1084.75 687.808C1084.71 688.122 1084.66 688.437 1084.62 688.751C1084.57 688.967 1084.57 689.164 1084.57 689.38C1078.9 740.929 1121.51 791.555 1217.68 849L1215.02 849C1118.58 791.299 1077.17 741.165 1082.54 690.088C1082.54 689.891 1082.54 689.695 1082.58 689.478C1082.62 689.203 1082.62 688.928 1082.67 688.633C1082.71 688.397 1082.76 688.162 1082.76 687.906C1082.8 687.847 1082.8 687.769 1082.8 687.69C1082.85 687.415 1082.89 687.14 1082.93 686.845L1082.93 686.727C1082.98 686.57 1082.98 686.413 1083.02 686.255L1083.02 686.137C1083.02 686 1083.07 685.862 1083.07 685.705C1083.11 685.548 1083.16 685.371 1083.16 685.194C1083.2 685.115 1083.2 685.017 1083.2 684.919C1083.24 684.84 1083.24 684.762 1083.24 684.663C1083.33 684.172 1083.42 683.681 1083.55 683.19C1083.6 682.718 1083.69 682.246 1083.82 681.755C1083.95 681.047 1084.09 680.359 1084.26 679.652C1084.62 678.178 1084.97 676.724 1085.42 675.25C1085.82 673.658 1086.3 672.066 1086.84 670.474C1087.15 669.55 1087.46 668.646 1087.81 667.723C1111 604.126 1205.05 538.584 1343.26 463.334C1343.48 463.196 1343.74 463.059 1344.01 462.921C1350.04 459.639 1356.16 456.318 1362.41 452.996C1362.68 452.839 1362.99 452.682 1363.3 452.525C1369.11 449.4 1375.05 446.236 1381.08 443.072C1381.39 442.895 1381.74 442.718 1382.1 442.522C1387.64 439.574 1393.27 436.626 1398.99 433.658C1399.39 433.442 1399.84 433.226 1400.23 433.01C1405.42 430.298 1410.65 427.566 1415.93 424.834C1416.46 424.579 1416.95 424.323 1417.44 424.048C1420.14 422.672 1422.85 421.277 1425.55 419.882C1427.55 418.86 1429.45 417.857 1431.32 416.835C1432.03 416.482 1432.65 416.108 1433.31 415.754C1437.44 413.494 1441.34 411.254 1445.02 408.994C1445.99 408.404 1446.92 407.815 1447.86 407.245C1451.05 405.221 1454.06 403.216 1456.9 401.192C1458.72 399.934 1460.4 398.657 1462.04 397.399C1465.28 394.903 1468.25 392.427 1470.96 389.95C1472.64 388.358 1474.28 386.767 1475.79 385.175C1488.56 371.575 1493.13 358.015 1489.71 344.258C1475.26 286.4 1321.04 235.538 1157.78 181.71C1113.26 167.029 1068.48 152.25 1026.13 137.196C1025.73 137.058 1025.34 136.921 1024.98 136.783C1020.19 135.093 1015.4 133.383 1010.7 131.654C1010.44 131.575 1010.17 131.477 1009.91 131.359C1005.21 129.669 1000.59 127.979 995.983 126.249C995.717 126.171 995.406 126.053 995.14 125.935C990.617 124.284 986.095 122.594 981.661 120.904C981.217 120.747 980.818 120.589 980.419 120.413C976.118 118.781 971.861 117.15 967.649 115.499C966.984 115.263 966.363 115.008 965.742 114.772C961.796 113.22 957.894 111.687 954.081 110.134C953.017 109.721 951.997 109.309 951.021 108.896C948.45 107.854 945.878 106.813 943.351 105.791C941.267 104.926 939.227 104.061 937.187 103.216C937.01 103.138 936.832 103.059 936.655 102.981C931.955 101.035 927.388 99.0696 922.865 97.1044C913.066 92.8397 903.666 88.5358 894.665 84.2122C889.566 81.7752 884.644 79.3383 879.855 76.8816C832.588 52.6498 798.889 27.2191 788.248 0Z" fill="url(#paint10_linear_164_8)" fill-opacity="0.1"/>
<path d="M756.545 0L758.939 -1.10917e-07C777.074 27.2191 821.326 52.6105 879.855 76.8816C884.821 78.9452 889.921 81.0087 895.153 83.0723C898.035 84.2121 900.961 85.352 903.932 86.4919C906.371 87.4549 908.854 88.3982 911.381 89.3612C915.062 90.7369 918.742 92.1322 922.511 93.5275C924.018 94.0778 925.526 94.6281 927.078 95.1981C931.335 96.7506 935.636 98.3032 939.981 99.8361C940.735 100.111 941.488 100.386 942.287 100.661C947.164 102.391 952.175 104.14 957.185 105.85C957.717 106.046 958.205 106.223 958.737 106.38C963.836 108.149 968.98 109.898 974.167 111.628C974.522 111.746 974.877 111.864 975.232 111.982C980.419 113.731 985.696 115.46 990.972 117.209C991.238 117.288 991.504 117.386 991.771 117.465C997.047 119.194 1002.37 120.904 1007.73 122.633C1008 122.712 1008.27 122.791 1008.53 122.889C1013.9 124.618 1019.35 126.348 1024.8 128.057C1025.16 128.175 1025.56 128.293 1025.91 128.411C1065.82 140.989 1107.41 153.37 1148.74 165.673C1329.6 219.502 1500.4 270.344 1513.66 329.656C1514.19 332.112 1514.46 334.569 1514.46 337.025C1514.46 353.357 1502.22 369.551 1477.3 385.902C1475.3 387.258 1473.17 388.594 1470.96 389.95C1468.92 391.189 1466.79 392.427 1464.57 393.684C1463.51 394.294 1462.4 394.923 1461.25 395.551C1457.74 397.477 1454.06 399.423 1450.16 401.369C1449.41 401.762 1448.61 402.155 1447.81 402.548C1443.42 404.71 1438.81 406.891 1433.98 409.073C1433.4 409.348 1432.78 409.603 1432.16 409.878C1432.12 409.918 1431.98 409.977 1431.89 410.016C1426.57 412.394 1421.3 414.752 1416.11 417.111C1415.62 417.327 1415.13 417.543 1414.69 417.759C1408.7 420.471 1402.85 423.144 1397.04 425.817C1396.6 426.013 1396.2 426.21 1395.8 426.406C1389.37 429.354 1383.12 432.282 1376.96 435.191C1376.6 435.348 1376.25 435.525 1375.94 435.682C1369.2 438.846 1362.63 441.991 1356.2 445.096C1355.89 445.253 1355.58 445.391 1355.32 445.528C1348.36 448.869 1341.62 452.191 1335.01 455.492C1334.74 455.61 1334.48 455.748 1334.21 455.866C1169.27 537.916 1092.33 604.637 1087.81 667.723L1087.81 667.9C1087.68 669.865 1087.59 671.811 1087.63 673.776L1087.63 674.13C1087.63 675.132 1087.68 676.115 1087.68 677.117C1087.72 677.136 1087.72 677.156 1087.72 677.195C1087.72 677.903 1087.77 678.61 1087.81 679.338C1087.86 679.397 1087.86 679.455 1087.86 679.514C1087.9 680.006 1087.9 680.497 1087.99 681.008C1087.99 681.146 1087.99 681.303 1088.03 681.46C1088.03 681.873 1088.08 682.266 1088.12 682.679C1088.12 682.757 1088.17 682.836 1088.17 682.914C1088.21 683.248 1088.26 683.563 1088.3 683.877C1088.3 683.995 1088.3 684.113 1088.34 684.231C1088.34 684.506 1088.39 684.801 1088.43 685.076C1088.48 685.253 1088.48 685.45 1088.52 685.626C1088.57 685.843 1088.57 686.078 1088.61 686.295C1088.65 686.648 1088.74 686.982 1088.79 687.336C1088.83 687.533 1088.83 687.71 1088.88 687.906C1097.66 738.178 1153.52 788.843 1267.26 849L1264.38 849C1151.57 789.197 1095.88 738.728 1086.75 688.633C1086.7 688.437 1086.66 688.26 1086.66 688.063C1086.57 687.749 1086.53 687.434 1086.48 687.12C1086.44 686.904 1086.39 686.688 1086.39 686.472C1086.35 686.334 1086.3 686.196 1086.35 686.039C1086.26 685.764 1086.22 685.489 1086.22 685.214C1086.17 685.155 1086.17 685.096 1086.17 685.017C1086.13 684.703 1086.08 684.388 1086.04 684.074C1085.99 683.681 1085.95 683.268 1085.91 682.875C1085.91 682.855 1085.86 682.836 1085.86 682.816C1085.86 682.462 1085.82 682.128 1085.77 681.775L1085.77 681.755C1085.77 681.735 1085.77 681.735 1085.77 681.716C1085.77 681.578 1085.73 681.44 1085.73 681.303C1085.73 681.146 1085.68 680.969 1085.68 680.812C1085.64 680.438 1085.64 680.065 1085.59 679.691C1085.55 678.964 1085.51 678.217 1085.46 677.49C1085.42 676.743 1085.42 675.997 1085.42 675.25C1085.37 672.793 1085.42 670.337 1085.59 667.88C1089.98 604.441 1167.23 537.386 1333.1 454.962C1333.37 454.824 1333.64 454.706 1333.9 454.569C1340.55 451.247 1347.38 447.906 1354.34 444.546C1354.61 444.408 1354.92 444.271 1355.23 444.113C1361.75 440.969 1368.35 437.805 1375.14 434.621C1375.49 434.464 1375.85 434.287 1376.2 434.13C1382.41 431.182 1388.79 428.234 1395.22 425.247C1395.67 425.05 1396.07 424.873 1396.47 424.677C1402.32 421.984 1408.3 419.253 1414.38 416.521C1414.82 416.305 1415.31 416.089 1415.8 415.853C1420.59 413.691 1425.42 411.509 1430.34 409.328C1431.01 409.033 1431.63 408.758 1432.2 408.463C1432.87 408.188 1433.45 407.933 1434.02 407.658C1439.08 405.358 1443.87 403.059 1448.43 400.779C1449.23 400.386 1449.98 399.993 1450.69 399.62C1454.99 397.438 1459.03 395.257 1462.84 393.075C1463.95 392.466 1465.02 391.837 1466.08 391.228C1469.49 389.204 1472.73 387.199 1475.79 385.175C1477.74 383.878 1479.65 382.581 1481.42 381.284C1505.41 364.068 1515.3 347.029 1511.44 329.754C1498.32 270.914 1327.92 220.19 1147.54 166.479C1106.61 154.294 1065.46 142.05 1025.91 129.61C1025.51 129.492 1025.16 129.374 1024.76 129.256C1019.44 127.566 1014.12 125.896 1008.84 124.206C1008.58 124.127 1008.31 124.029 1008.04 123.95C1002.81 122.28 997.623 120.589 992.436 118.899C992.17 118.821 991.859 118.722 991.593 118.624C986.494 116.954 981.439 115.283 976.384 113.613C976.03 113.495 975.675 113.377 975.276 113.259C970.31 111.588 965.344 109.918 960.466 108.247C959.934 108.051 959.402 107.874 958.87 107.697C954.17 106.086 949.558 104.474 944.947 102.863C944.193 102.587 943.395 102.332 942.641 102.057C938.784 100.681 934.926 99.3251 931.157 97.9494C929.561 97.3795 927.965 96.8096 926.413 96.22C926.368 96.22 926.368 96.22 926.368 96.2004C923.708 95.2374 921.048 94.2744 918.431 93.3114C918.431 93.2917 918.431 93.2917 918.387 93.2917C915.904 92.3484 913.377 91.4247 910.938 90.4814C910.849 90.4617 910.761 90.4224 910.716 90.4028L910.716 90.3831L910.672 90.3831C905.218 88.3392 899.897 86.2757 894.665 84.2122C827.578 57.7595 776.365 29.9901 756.545 0Z" fill="url(#paint11_linear_164_8)" fill-opacity="0.1"/>
<defs>
<filter id="filter0_f_164_8" x="-600" y="-600" width="1800" height="1800" filterUnits="userSpaceOnUse" color-interpolation-filters="sRGB">
<feFlood flood-opacity="0" result="BackgroundImageFix"/>
<feBlend mode="normal" in="SourceGraphic" in2="BackgroundImageFix" result="shape"/>
<feGaussianBlur stdDeviation="300" result="effect1_foregroundBlur_164_8"/>
</filter>
<linearGradient id="paint0_linear_164_8" x1="1868.39" y1="-1356.04" x2="793.167" y2="336.419" gradientUnits="userSpaceOnUse">
<stop stop-color="#FF8079"/>
<stop offset="1" stop-color="#FF1E1E"/>
</linearGradient>
<linearGradient id="paint1_linear_164_8" x1="700.645" y1="-958.333" x2="-125.348" y2="-268.435" gradientUnits="userSpaceOnUse">
<stop stop-color="#FF8079"/>
<stop offset="1" stop-color="#FF3654"/>
</linearGradient>
<linearGradient id="paint2_linear_164_8" x1="4.16417" y1="-142.413" x2="960.109" y2="584.377" gradientUnits="userSpaceOnUse">
<stop stop-color="#FF8079"/>
<stop offset="1" stop-color="#FF1E1E"/>
</linearGradient>
<linearGradient id="paint3_linear_164_8" x1="109.782" y1="-142.413" x2="1042.05" y2="510.422" gradientUnits="userSpaceOnUse">
<stop stop-color="#FF8079"/>
<stop offset="1" stop-color="#FF1E1E"/>
</linearGradient>
<linearGradient id="paint4_linear_164_8" x1="205.549" y1="-142.413" x2="1110.95" y2="444.139" gradientUnits="userSpaceOnUse">
<stop stop-color="#FF8079"/>
<stop offset="1" stop-color="#FF1E1E"/>
</linearGradient>
<linearGradient id="paint5_linear_164_8" x1="232.21" y1="-142.413" x2="1131.18" y2="430.075" gradientUnits="userSpaceOnUse">
<stop stop-color="#FF8079"/>
<stop offset="1" stop-color="#FF1E1E"/>
</linearGradient>
<linearGradient id="paint6_linear_164_8" x1="132.791" y1="-142.413" x2="1063.89" y2="507.23" gradientUnits="userSpaceOnUse">
<stop stop-color="#FF8079"/>
<stop offset="1" stop-color="#FF1E1E"/>
</linearGradient>
<linearGradient id="paint7_linear_164_8" x1="22.5349" y1="-142.413" x2="980.499" y2="591.763" gradientUnits="userSpaceOnUse">
<stop stop-color="#FF8079"/>
<stop offset="1" stop-color="#FF1E1E"/>
</linearGradient>
<linearGradient id="paint8_linear_164_8" x1="-95.1867" y1="-142.413" x2="882.05" y2="678.738" gradientUnits="userSpaceOnUse">
<stop stop-color="#FF8079"/>
<stop offset="1" stop-color="#FF1E1E"/>
</linearGradient>
<linearGradient id="paint9_linear_164_8" x1="-216.579" y1="-142.413" x2="771.773" y2="763.835" gradientUnits="userSpaceOnUse">
<stop stop-color="#FF8079"/>
<stop offset="1" stop-color="#FF1E1E"/>
</linearGradient>
<linearGradient id="paint10_linear_164_8" x1="-337.247" y1="-142.413" x2="654.804" y2="843.403" gradientUnits="userSpaceOnUse">
<stop stop-color="#FF8079"/>
<stop offset="1" stop-color="#FF1E1E"/>
</linearGradient>
<linearGradient id="paint11_linear_164_8" x1="-454.007" y1="-142.413" x2="535.872" y2="915.581" gradientUnits="userSpaceOnUse">
<stop stop-color="#FF8079"/>
<stop offset="1" stop-color="#FF1E1E"/>
</linearGradient>
</defs>
</svg>
